<?xml version="1.0" encoding="UTF-8" standalone="no"?>
<!DOCTYPE svg PUBLIC "-//W3C//DTD SVG 1.1//EN"
 "http://www.w3.org/Graphics/SVG/1.1/DTD/svg11.dtd">
<!-- Generated by graphviz version 2.43.0 (0)
 -->
<!-- Title: %3 Pages: 1 -->
<svg width="1705pt" height="1071pt"
 viewBox="0.00 0.00 1705.00 1071.00" xmlns="http://www.w3.org/2000/svg" xmlns:xlink="http://www.w3.org/1999/xlink">
<g id="graph0" class="graph" transform="scale(1 1) rotate(0) translate(4 1067)">
<title>%3</title>
<polygon fill="white" stroke="transparent" points="-4,4 -4,-1067 1701,-1067 1701,4 -4,4"/>
<g id="clust1" class="cluster">
<title>cluster_0</title>
<defs>
<radialGradient id="r_0" cx="50%" cy="50%" r="75%" fx="0%" fy="50%">
<stop offset="0" style="stop-color:yellow;stop-opacity:1.;"/>
<stop offset="1" style="stop-color:blue;stop-opacity:1.;"/>
</radialGradient>
</defs>
<polygon fill="url(#r_0)" stroke="black" points="231,-8 231,-381 1624.5,-381 1624.5,-8 231,-8"/>
<text text-anchor="middle" x="927.75" y="-365.8" font-family="Times,serif" font-size="14.00">Bartlett\GraphUml\Formatter</text>
</g>
<g id="clust2" class="cluster">
<title>cluster_1</title>
<defs>
<linearGradient id="l_0" gradientUnits="userSpaceOnUse" x1="321.53" y1="-460.61" x2="1439.47" y2="-806.39" >
<stop offset="0" style="stop-color:yellow;stop-opacity:1.;"/>
<stop offset="1" style="stop-color:blue;stop-opacity:1.;"/>
</linearGradient>
</defs>
<polygon fill="url(#l_0)" stroke="black" points="90,-389 90,-878 1671,-878 1671,-389 90,-389"/>
<text text-anchor="middle" x="880.5" y="-862.8" font-family="Times,serif" font-size="14.00">Bartlett\GraphUml\Generator</text>
</g>
<g id="clust3" class="cluster">
<title>cluster_2</title>
<polygon fill="lightblue" stroke="black" points="8,-886 8,-1055 1689,-1055 1689,-886 8,-886"/>
<text text-anchor="middle" x="848.5" y="-1039.8" font-family="Times,serif" font-size="14.00">Bartlett\GraphUml</text>
</g>
<!-- Bartlett\\GraphUml\\Formatter\\HtmlFormatter -->
<g id="node1" class="node">
<title>Bartlett\\GraphUml\\Formatter\\HtmlFormatter</title>
<polygon fill="#eeeeee" stroke="transparent" points="247.5,-312 247.5,-346 718.5,-346 718.5,-312 247.5,-312"/>
<polygon fill="none" stroke="black" points="247.5,-312 247.5,-346 718.5,-346 718.5,-312 247.5,-312"/>
<text text-anchor="start" x="422.5" y="-318.8" font-family="Times,serif" font-weight="bold" font-size="14.00">HtmlFormatter</text>
<polygon fill="none" stroke="black" points="247.5,-306 247.5,-312 718.5,-312 718.5,-306 247.5,-306"/>
<polygon fill="none" stroke="black" points="247.5,-186 247.5,-306 718.5,-306 718.5,-186 247.5,-186"/>
<text text-anchor="start" x="252.5" y="-289.8" font-family="Times,serif" font-size="14.00">+ __construct(options : array)</text>
<text text-anchor="start" x="252.5" y="-270.8" font-family="Times,serif" font-size="14.00">+ getLabelExtension(reflection : ReflectionExtension) : string</text>
<text text-anchor="start" x="252.5" y="-251.8" font-family="Times,serif" font-size="14.00">+ getLabelClass(reflection : ReflectionClass) : string</text>
<text text-anchor="start" x="252.5" y="-232.8" font-family="Times,serif" font-size="14.00">+ getLabelConstants(reflection) : string</text>
<text text-anchor="start" x="252.5" y="-213.8" font-family="Times,serif" font-size="14.00">+ getLabelProperties(reflection : ReflectionClass) : string</text>
<text text-anchor="start" x="252.5" y="-194.8" font-family="Times,serif" font-size="14.00">+ getLabelFunctions(functions : array, class : string = &#39;&#39;) : string</text>
</g>
<!-- Bartlett\\GraphUml\\Formatter\\AbstractFormatter -->
<g id="node2" class="node">
<title>Bartlett\\GraphUml\\Formatter\\AbstractFormatter</title>
<polygon fill="#eeeeee" stroke="transparent" points="1222,-105 1222,-139 1445,-139 1445,-105 1222,-105"/>
<polygon fill="none" stroke="black" points="1222,-105 1222,-139 1445,-139 1445,-105 1222,-105"/>
<text text-anchor="start" x="1291.5" y="-125.8" font-family="Times,serif" font-weight="bold" font-size="14.00">«abstract»</text>
<text text-anchor="start" x="1260" y="-111.8" font-family="Times,serif" font-weight="bold" font-size="14.00">AbstractFormatter</text>
<polygon fill="none" stroke="black" points="1222,-99 1222,-105 1445,-105 1445,-99 1222,-99"/>
<polygon fill="none" stroke="black" points="1222,-55 1222,-99 1445,-99 1445,-55 1222,-55"/>
<text text-anchor="start" x="1227" y="-82.8" font-family="Times,serif" font-size="14.00">+ __construct(options : array)</text>
<text text-anchor="start" x="1227" y="-63.8" font-family="Times,serif" font-size="14.00">+ getFormat() : string</text>
</g>
<!-- Bartlett\\GraphUml\\Formatter\\HtmlFormatter&#45;&gt;Bartlett\\GraphUml\\Formatter\\AbstractFormatter -->
<g id="edge1" class="edge">
<title>Bartlett\\GraphUml\\Formatter\\HtmlFormatter&#45;&gt;Bartlett\\GraphUml\\Formatter\\AbstractFormatter</title>
<path fill="none" stroke="black" d="M726.14,-217.59C808.32,-201.2 900.65,-182.8 985,-166 1057.2,-151.62 1137.85,-135.59 1203.21,-122.59"/>
<polygon fill="none" stroke="black" points="1204.03,-126 1213.15,-120.62 1202.66,-119.13 1204.03,-126"/>
</g>
<!-- Bartlett\\GraphUml\\Formatter\\FormatterInterface -->
<g id="node3" class="node">
<title>Bartlett\\GraphUml\\Formatter\\FormatterInterface</title>
<polygon fill="#eeeeee" stroke="transparent" points="1058,-305 1058,-339 1609,-339 1609,-305 1058,-305"/>
<polygon fill="none" stroke="black" points="1058,-305 1058,-339 1609,-339 1609,-305 1058,-305"/>
<text text-anchor="start" x="1288.5" y="-325.8" font-family="Times,serif" font-weight="bold" font-size="14.00">«interface»</text>
<text text-anchor="start" x="1257" y="-311.8" font-family="Times,serif" font-weight="bold" font-size="14.00">FormatterInterface</text>
<polygon fill="none" stroke="black" points="1058,-299 1058,-305 1609,-305 1609,-299 1058,-299"/>
<polygon fill="none" stroke="black" points="1058,-179 1058,-299 1609,-299 1609,-179 1058,-179"/>
<text text-anchor="start" x="1063" y="-282.8" font-family="Times,serif" font-size="14.00">+ «abstract» getFormat() : string</text>
<text text-anchor="start" x="1063" y="-263.8" font-family="Times,serif" font-size="14.00">+ «abstract» getLabelExtension(reflection : ReflectionExtension) : string</text>
<text text-anchor="start" x="1063" y="-244.8" font-family="Times,serif" font-size="14.00">+ «abstract» getLabelClass(reflection : ReflectionClass) : string</text>
<text text-anchor="start" x="1063" y="-225.8" font-family="Times,serif" font-size="14.00">+ «abstract» getLabelConstants(reflection) : string</text>
<text text-anchor="start" x="1063" y="-206.8" font-family="Times,serif" font-size="14.00">+ «abstract» getLabelProperties(reflection : ReflectionClass) : string</text>
<text text-anchor="start" x="1063" y="-187.8" font-family="Times,serif" font-size="14.00">+ «abstract» getLabelFunctions(functions : array, class : string = &#39;&#39;) : string</text>
</g>
<!-- Bartlett\\GraphUml\\Formatter\\HtmlFormatter&#45;&gt;Bartlett\\GraphUml\\Formatter\\FormatterInterface -->
<g id="edge2" class="edge">
<title>Bartlett\\GraphUml\\Formatter\\HtmlFormatter&#45;&gt;Bartlett\\GraphUml\\Formatter\\FormatterInterface</title>
<path fill="none" stroke="black" stroke-dasharray="5,2" d="M726.08,-264C823.6,-263.19 936.91,-262.26 1038.98,-261.42"/>
<polygon fill="none" stroke="black" points="1039.17,-264.92 1049.14,-261.33 1039.11,-257.92 1039.17,-264.92"/>
</g>
<!-- Bartlett\\GraphUml\\Formatter\\RecordFormatter -->
<g id="node4" class="node">
<title>Bartlett\\GraphUml\\Formatter\\RecordFormatter</title>
<polygon fill="#eeeeee" stroke="transparent" points="247.5,-126 247.5,-160 718.5,-160 718.5,-126 247.5,-126"/>
<polygon fill="none" stroke="black" points="247.5,-126 247.5,-160 718.5,-160 718.5,-126 247.5,-126"/>
<text text-anchor="start" x="415" y="-132.8" font-family="Times,serif" font-weight="bold" font-size="14.00">RecordFormatter</text>
<polygon fill="none" stroke="black" points="247.5,-120 247.5,-126 718.5,-126 718.5,-120 247.5,-120"/>
<polygon fill="none" stroke="black" points="247.5,-19 247.5,-120 718.5,-120 718.5,-19 247.5,-19"/>
<text text-anchor="start" x="252.5" y="-103.8" font-family="Times,serif" font-size="14.00">+ getLabelExtension(reflection : ReflectionExtension) : string</text>
<text text-anchor="start" x="252.5" y="-84.8" font-family="Times,serif" font-size="14.00">+ getLabelClass(reflection : ReflectionClass) : string</text>
<text text-anchor="start" x="252.5" y="-65.8" font-family="Times,serif" font-size="14.00">+ getLabelProperties(reflection : ReflectionClass) : string</text>
<text text-anchor="start" x="252.5" y="-46.8" font-family="Times,serif" font-size="14.00">+ getLabelConstants(reflection) : string</text>
<text text-anchor="start" x="252.5" y="-27.8" font-family="Times,serif" font-size="14.00">+ getLabelFunctions(functions : array, class : string = &#39;&#39;) : string</text>
</g>
<!-- Bartlett\\GraphUml\\Formatter\\RecordFormatter&#45;&gt;Bartlett\\GraphUml\\Formatter\\AbstractFormatter -->
<g id="edge3" class="edge">
<title>Bartlett\\GraphUml\\Formatter\\RecordFormatter&#45;&gt;Bartlett\\GraphUml\\Formatter\\AbstractFormatter</title>
<path fill="none" stroke="black" d="M726.08,-92C881.53,-93.28 1077.11,-94.9 1203.32,-95.94"/>
<polygon fill="none" stroke="black" points="1203.39,-99.44 1213.42,-96.02 1203.45,-92.44 1203.39,-99.44"/>
</g>
<!-- Bartlett\\GraphUml\\Formatter\\RecordFormatter&#45;&gt;Bartlett\\GraphUml\\Formatter\\FormatterInterface -->
<g id="edge4" class="edge">
<title>Bartlett\\GraphUml\\Formatter\\RecordFormatter&#45;&gt;Bartlett\\GraphUml\\Formatter\\FormatterInterface</title>
<path fill="none" stroke="black" stroke-dasharray="5,2" d="M726.09,-131.15C797.97,-143.91 876.77,-158.46 949,-173 978.39,-178.92 1008.99,-185.34 1039.51,-191.92"/>
<polygon fill="none" stroke="black" points="1038.9,-195.37 1049.41,-194.06 1040.38,-188.53 1038.9,-195.37"/>
</g>
<!-- Bartlett\\GraphUml\\Generator\\GraphVizGenerator -->
<g id="node5" class="node">
<title>Bartlett\\GraphUml\\Generator\\GraphVizGenerator</title>
<polygon fill="#eeeeee" stroke="transparent" points="106.5,-673 106.5,-707 859.5,-707 859.5,-673 106.5,-673"/>
<polygon fill="none" stroke="black" points="106.5,-673 106.5,-707 859.5,-707 859.5,-673 106.5,-673"/>
<text text-anchor="start" x="406" y="-679.8" font-family="Times,serif" font-weight="bold" font-size="14.00">GraphVizGenerator</text>
<polygon fill="none" stroke="black" points="106.5,-667 106.5,-673 859.5,-673 859.5,-667 106.5,-667"/>
<polygon fill="none" stroke="black" points="106.5,-547 106.5,-667 859.5,-667 859.5,-547 106.5,-547"/>
<text text-anchor="start" x="111.5" y="-650.8" font-family="Times,serif" font-size="14.00">+ __construct(graphViz : Graphp\GraphViz\GraphViz, executable : string = &#39;dot&#39;, format : string = &#39;png&#39;)</text>
<text text-anchor="start" x="111.5" y="-631.8" font-family="Times,serif" font-size="14.00">+ getFormatter() : Bartlett\GraphUml\Formatter\FormatterInterface</text>
<text text-anchor="start" x="111.5" y="-612.8" font-family="Times,serif" font-size="14.00">+ getName() : string</text>
<text text-anchor="start" x="111.5" y="-593.8" font-family="Times,serif" font-size="14.00">+ getPrefix() : string</text>
<text text-anchor="start" x="111.5" y="-574.8" font-family="Times,serif" font-size="14.00">+ createScript(graph : Graphp\Graph\Graph) : string</text>
<text text-anchor="start" x="111.5" y="-555.8" font-family="Times,serif" font-size="14.00">+ createImageFile(graph : Graphp\Graph\Graph, cmdFormat : string = &#39;&#39;) : string</text>
</g>
<!-- Bartlett\\GraphUml\\Generator\\AbstractGenerator -->
<g id="node6" class="node">
<title>Bartlett\\GraphUml\\Generator\\AbstractGenerator</title>
<polygon fill="#eeeeee" stroke="transparent" points="1043,-584 1043,-618 1624,-618 1624,-584 1043,-584"/>
<polygon fill="none" stroke="black" points="1043,-584 1043,-618 1624,-618 1624,-584 1043,-584"/>
<text text-anchor="start" x="1291.5" y="-604.8" font-family="Times,serif" font-weight="bold" font-size="14.00">«abstract»</text>
<text text-anchor="start" x="1259.5" y="-590.8" font-family="Times,serif" font-weight="bold" font-size="14.00">AbstractGenerator</text>
<polygon fill="none" stroke="black" points="1043,-578 1043,-584 1624,-584 1624,-578 1043,-578"/>
<polygon fill="none" stroke="black" points="1043,-401 1043,-578 1624,-578 1624,-401 1043,-401"/>
<text text-anchor="start" x="1048" y="-561.8" font-family="Times,serif" font-size="14.00">+ __construct(executable : string, format : string)</text>
<text text-anchor="start" x="1048" y="-542.8" font-family="Times,serif" font-size="14.00">+ setOptions(values : array) : void</text>
<text text-anchor="start" x="1048" y="-523.8" font-family="Times,serif" font-size="14.00">+ «abstract» getFormatter() : Bartlett\GraphUml\Formatter\FormatterInterface</text>
<text text-anchor="start" x="1048" y="-504.8" font-family="Times,serif" font-size="14.00">+ «abstract» getName() : string</text>
<text text-anchor="start" x="1048" y="-485.8" font-family="Times,serif" font-size="14.00">+ getPrefix() : string</text>
<text text-anchor="start" x="1048" y="-466.8" font-family="Times,serif" font-size="14.00">+ getLabelClass(reflection : ReflectionClass) : string</text>
<text text-anchor="start" x="1048" y="-447.8" font-family="Times,serif" font-size="14.00">+ getLabelExtension(reflection : ReflectionExtension) : string</text>
<text text-anchor="start" x="1048" y="-428.8" font-family="Times,serif" font-size="14.00">+ «abstract» createScript(graph : Graphp\Graph\Graph) : string</text>
<text text-anchor="start" x="1048" y="-409.8" font-family="Times,serif" font-size="14.00">+ createImageFile(graph : Graphp\Graph\Graph, cmdFormat : string) : string</text>
</g>
<!-- Bartlett\\GraphUml\\Generator\\GraphVizGenerator&#45;&gt;Bartlett\\GraphUml\\Generator\\AbstractGenerator -->
<g id="edge5" class="edge">
<title>Bartlett\\GraphUml\\Generator\\GraphVizGenerator&#45;&gt;Bartlett\\GraphUml\\Generator\\AbstractGenerator</title>
<path fill="none" stroke="black" d="M867.1,-574.11C919.68,-566.86 973.1,-559.49 1024.08,-552.46"/>
<polygon fill="none" stroke="black" points="1024.82,-555.89 1034.25,-551.06 1023.86,-548.96 1024.82,-555.89"/>
</g>
<!-- Bartlett\\GraphUml\\Generator\\GeneratorInterface -->
<g id="node7" class="node">
<title>Bartlett\\GraphUml\\Generator\\GeneratorInterface</title>
<polygon fill="#eeeeee" stroke="transparent" points="1011,-809 1011,-843 1655,-843 1655,-809 1011,-809"/>
<polygon fill="none" stroke="black" points="1011,-809 1011,-843 1655,-843 1655,-809 1011,-809"/>
<text text-anchor="start" x="1288" y="-829.8" font-family="Times,serif" font-weight="bold" font-size="14.00">«interface»</text>
<text text-anchor="start" x="1256" y="-815.8" font-family="Times,serif" font-weight="bold" font-size="14.00">GeneratorInterface</text>
<polygon fill="none" stroke="black" points="1011,-803 1011,-809 1655,-809 1655,-803 1011,-803"/>
<polygon fill="none" stroke="black" points="1011,-645 1011,-803 1655,-803 1655,-645 1011,-645"/>
<text text-anchor="start" x="1016" y="-786.8" font-family="Times,serif" font-size="14.00">+ «abstract» setOptions(values : array) : void</text>
<text text-anchor="start" x="1016" y="-767.8" font-family="Times,serif" font-size="14.00">+ «abstract» getFormatter() : Bartlett\GraphUml\Formatter\FormatterInterface</text>
<text text-anchor="start" x="1016" y="-748.8" font-family="Times,serif" font-size="14.00">+ «abstract» getName() : string</text>
<text text-anchor="start" x="1016" y="-729.8" font-family="Times,serif" font-size="14.00">+ «abstract» getPrefix() : string</text>
<text text-anchor="start" x="1016" y="-710.8" font-family="Times,serif" font-size="14.00">+ «abstract» getLabelClass(reflection : ReflectionClass) : string</text>
<text text-anchor="start" x="1016" y="-691.8" font-family="Times,serif" font-size="14.00">+ «abstract» getLabelExtension(reflection : ReflectionExtension) : string</text>
<text text-anchor="start" x="1016" y="-672.8" font-family="Times,serif" font-size="14.00">+ «abstract» createScript(graph : Graphp\Graph\Graph) : string</text>
<text text-anchor="start" x="1016" y="-653.8" font-family="Times,serif" font-size="14.00">+ «abstract» createImageFile(graph : Graphp\Graph\Graph, cmdFormat : string) : string</text>
</g>
<!-- Bartlett\\GraphUml\\Generator\\GraphVizGenerator&#45;&gt;Bartlett\\GraphUml\\Generator\\GeneratorInterface -->
<g id="edge6" class="edge">
<title>Bartlett\\GraphUml\\Generator\\GraphVizGenerator&#45;&gt;Bartlett\\GraphUml\\Generator\\GeneratorInterface</title>
<path fill="none" stroke="black" stroke-dasharray="5,2" d="M867.1,-679.89C909.06,-685.68 951.56,-691.54 992.93,-697.25"/>
<polygon fill="none" stroke="black" points="992.48,-700.72 1002.86,-698.61 993.43,-693.78 992.48,-700.72"/>
</g>
<!-- Bartlett\\GraphUml\\ClassDiagramBuilder -->
<g id="node8" class="node">
<title>Bartlett\\GraphUml\\ClassDiagramBuilder</title>
<polygon fill="#eeeeee" stroke="transparent" points="24.5,-986 24.5,-1020 941.5,-1020 941.5,-986 24.5,-986"/>
<polygon fill="none" stroke="black" points="24.5,-986 24.5,-1020 941.5,-1020 941.5,-986 24.5,-986"/>
<text text-anchor="start" x="398.5" y="-992.8" font-family="Times,serif" font-weight="bold" font-size="14.00">ClassDiagramBuilder</text>
<polygon fill="none" stroke="black" points="24.5,-980 24.5,-986 941.5,-986 941.5,-980 24.5,-980"/>
<polygon fill="none" stroke="black" points="24.5,-898 24.5,-980 941.5,-980 941.5,-898 24.5,-898"/>
<text text-anchor="start" x="29.5" y="-963.8" font-family="Times,serif" font-size="14.00">+ __construct(generator : Bartlett\GraphUml\Generator\GeneratorInterface, graph : Graphp\Graph\Graph, options : array = [])</text>
<text text-anchor="start" x="29.5" y="-944.8" font-family="Times,serif" font-size="14.00">+ createVertexClass(class, attributes : array = []) : Graphp\Graph\Vertex</text>
<text text-anchor="start" x="29.5" y="-925.8" font-family="Times,serif" font-size="14.00">+ createVertexExtension(extension, attributes : array = []) : Graphp\Graph\Vertex</text>
<text text-anchor="start" x="29.5" y="-906.8" font-family="Times,serif" font-size="14.00">+ createVerticesFromCallable(callback : callable, vertices : Generator) : void</text>
</g>
<!-- Bartlett\\GraphUml\\ClassDiagramBuilderInterface -->
<g id="node9" class="node">
<title>Bartlett\\GraphUml\\ClassDiagramBuilderInterface</title>
<polygon fill="#eeeeee" stroke="transparent" points="993,-976 993,-1010 1673,-1010 1673,-976 993,-976"/>
<polygon fill="none" stroke="black" points="993,-976 993,-1010 1673,-1010 1673,-976 993,-976"/>
<text text-anchor="start" x="1288" y="-996.8" font-family="Times,serif" font-weight="bold" font-size="14.00">«interface»</text>
<text text-anchor="start" x="1212" y="-982.8" font-family="Times,serif" font-weight="bold" font-size="14.00">ClassDiagramBuilderInterface</text>
<polygon fill="none" stroke="black" points="993,-970 993,-976 1673,-976 1673,-970 993,-970"/>
<polygon fill="none" stroke="black" points="993,-907 993,-970 1673,-970 1673,-907 993,-907"/>
<text text-anchor="start" x="998" y="-953.8" font-family="Times,serif" font-size="14.00">+ «abstract» createVertexClass(class, attributes : array = []) : Graphp\Graph\Vertex</text>
<text text-anchor="start" x="998" y="-934.8" font-family="Times,serif" font-size="14.00">+ «abstract» createVertexExtension(extension, attributes : array = []) : Graphp\Graph\Vertex</text>
<text text-anchor="start" x="998" y="-915.8" font-family="Times,serif" font-size="14.00">+ «abstract» createVerticesFromCallable(callback : callable, vertices : Generator) : void</text>
</g>
<!-- Bartlett\\GraphUml\\ClassDiagramBuilder&#45;&gt;Bartlett\\GraphUml\\ClassDiagramBuilderInterface -->
<g id="edge7" class="edge">
<title>Bartlett\\GraphUml\\ClassDiagramBuilder&#45;&gt;Bartlett\\GraphUml\\ClassDiagramBuilderInterface</title>
<path fill="none" stroke="black" stroke-dasharray="5,2" d="M949.02,-959C957.61,-959 966.19,-959 974.72,-959"/>
<polygon fill="none" stroke="black" points="974.72,-962.5 984.72,-959 974.72,-955.5 974.72,-962.5"/>
</g>
</g>
</svg>
