<?xml version="1.0" encoding="UTF-8" standalone="no"?>
<!DOCTYPE svg PUBLIC "-//W3C//DTD SVG 1.1//EN"
 "http://www.w3.org/Graphics/SVG/1.1/DTD/svg11.dtd">
<!-- Generated by graphviz version 2.43.0 (0)
 -->
<!-- Title: %3 Pages: 1 -->
<svg width="1705pt" height="948pt"
 viewBox="0.00 0.00 1705.00 948.00" xmlns="http://www.w3.org/2000/svg" xmlns:xlink="http://www.w3.org/1999/xlink">
<g id="graph0" class="graph" transform="scale(1 1) rotate(0) translate(4 944)">
<title>%3</title>
<g id="clust1" class="cluster">
<title>cluster_0</title>
<polygon fill="#cdaa7d" stroke="black" points="8,-8 8,-297 1689,-297 1689,-8 8,-8"/>
<text text-anchor="middle" x="848.5" y="-281.8" font-family="Times,serif" font-size="14.00">Bartlett\GraphUml</text>
</g>
<g id="clust2" class="cluster">
<title>cluster_1</title>
<polygon fill="#cdaa7d" stroke="black" points="90,-305 90,-932 1671,-932 1671,-305 90,-305"/>
<text text-anchor="middle" x="880.5" y="-916.8" font-family="Times,serif" font-size="14.00">Bartlett\GraphUml\Generator</text>
</g>
<!-- Bartlett\\GraphUml\\ClassDiagramBuilder -->
<g id="node1" class="node">
<title>Bartlett\\GraphUml\\ClassDiagramBuilder</title>
<polygon fill="#fecece" stroke="transparent" points="949,-266 16,-266 16,-16 949,-16 949,-266"/>
<polygon fill="#eeeeee" stroke="transparent" points="24.5,-228 24.5,-262 941.5,-262 941.5,-228 24.5,-228"/>
<polygon fill="none" stroke="black" points="24.5,-228 24.5,-262 941.5,-262 941.5,-228 24.5,-228"/>
<text text-anchor="start" x="398.5" y="-234.8" font-family="Times,serif" font-weight="bold" font-size="14.00">ClassDiagramBuilder</text>
<polygon fill="none" stroke="black" points="24.5,-203 24.5,-228 941.5,-228 941.5,-203 24.5,-203"/>
<text text-anchor="start" x="29.5" y="-211.8" font-family="Times,serif" font-size="14.00">+ «static» OPTIONS_DEFAULTS : array = […] {readOnly}</text>
<polygon fill="none" stroke="black" points="24.5,-121 24.5,-203 941.5,-203 941.5,-121 24.5,-121"/>
<text text-anchor="start" x="29.5" y="-186.8" font-family="Times,serif" font-size="14.00">– graph</text>
<text text-anchor="start" x="29.5" y="-167.8" font-family="Times,serif" font-size="14.00">– options : mixed</text>
<text text-anchor="start" x="29.5" y="-148.8" font-family="Times,serif" font-size="14.00">– generator</text>
<text text-anchor="start" x="29.5" y="-129.8" font-family="Times,serif" font-size="14.00">– entities : mixed</text>
<polygon fill="none" stroke="black" points="24.5,-20 24.5,-121 941.5,-121 941.5,-20 24.5,-20"/>
<text text-anchor="start" x="29.5" y="-104.8" font-family="Times,serif" font-size="14.00">+ __construct(generator : Bartlett\GraphUml\Generator\GeneratorInterface, graph : Graphp\Graph\Graph, options : array = [])</text>
<text text-anchor="start" x="29.5" y="-85.8" font-family="Times,serif" font-size="14.00">+ createVertexClass(class, attributes : array = []) : Graphp\Graph\Vertex</text>
<text text-anchor="start" x="29.5" y="-66.8" font-family="Times,serif" font-size="14.00">+ createVertexExtension(extension, attributes : array = []) : Graphp\Graph\Vertex</text>
<text text-anchor="start" x="29.5" y="-47.8" font-family="Times,serif" font-size="14.00">+ createVerticesFromCallable(callback : callable, vertices : Generator) : void</text>
<text text-anchor="start" x="29.5" y="-28.8" font-family="Times,serif" font-size="14.00">– getInterfaces(reflection : ReflectionClass) : array</text>
</g>
<!-- Bartlett\\GraphUml\\ClassDiagramBuilderInterface -->
<g id="node2" class="node">
<title>Bartlett\\GraphUml\\ClassDiagramBuilderInterface</title>
<polygon fill="#fecece" stroke="transparent" points="1681,-209 985,-209 985,-73 1681,-73 1681,-209"/>
<polygon fill="#eeeeee" stroke="transparent" points="993,-171 993,-205 1673,-205 1673,-171 993,-171"/>
<polygon fill="none" stroke="black" points="993,-171 993,-205 1673,-205 1673,-171 993,-171"/>
<text text-anchor="start" x="1288" y="-191.8" font-family="Times,serif" font-weight="bold" font-size="14.00">«interface»</text>
<text text-anchor="start" x="1212" y="-177.8" font-family="Times,serif" font-weight="bold" font-size="14.00">ClassDiagramBuilderInterface</text>
<polygon fill="none" stroke="black" points="993,-146 993,-171 1673,-171 1673,-146 993,-146"/>
<text text-anchor="start" x="998" y="-154.8" font-family="Times,serif" font-size="14.00">+ «static» OPTIONS_DEFAULTS : array = […] {readOnly}</text>
<polygon fill="none" stroke="black" points="993,-140 993,-146 1673,-146 1673,-140 993,-140"/>
<polygon fill="none" stroke="black" points="993,-77 993,-140 1673,-140 1673,-77 993,-77"/>
<text text-anchor="start" x="998" y="-123.8" font-family="Times,serif" font-size="14.00">+ «abstract» createVertexClass(class, attributes : array = []) : Graphp\Graph\Vertex</text>
<text text-anchor="start" x="998" y="-104.8" font-family="Times,serif" font-size="14.00">+ «abstract» createVertexExtension(extension, attributes : array = []) : Graphp\Graph\Vertex</text>
<text text-anchor="start" x="998" y="-85.8" font-family="Times,serif" font-size="14.00">+ «abstract» createVerticesFromCallable(callback : callable, vertices : Generator) : void</text>
</g>
<!-- Bartlett\\GraphUml\\ClassDiagramBuilder&#45;&gt;Bartlett\\GraphUml\\ClassDiagramBuilderInterface -->
<g id="edge1" class="edge">
<title>Bartlett\\GraphUml\\ClassDiagramBuilder&#45;&gt;Bartlett\\GraphUml\\ClassDiagramBuilderInterface</title>
<path fill="none" stroke="black" stroke-dasharray="5,2" d="M949.02,-141C957.61,-141 966.19,-141 974.72,-141"/>
<polygon fill="none" stroke="black" points="974.72,-144.5 984.72,-141 974.72,-137.5 974.72,-144.5"/>
</g>
<!-- Bartlett\\GraphUml\\Generator\\GraphVizGenerator -->
<g id="node3" class="node">
<title>Bartlett\\GraphUml\\Generator\\GraphVizGenerator</title>
<polygon fill="#fecece" stroke="transparent" points="867,-739.5 98,-739.5 98,-552.5 867,-552.5 867,-739.5"/>
<polygon fill="#eeeeee" stroke="transparent" points="106.5,-701 106.5,-735 859.5,-735 859.5,-701 106.5,-701"/>
<polygon fill="none" stroke="black" points="106.5,-701 106.5,-735 859.5,-735 859.5,-701 106.5,-701"/>
<text text-anchor="start" x="406" y="-707.8" font-family="Times,serif" font-weight="bold" font-size="14.00">GraphVizGenerator</text>
<polygon fill="none" stroke="black" points="106.5,-676 106.5,-701 859.5,-701 859.5,-676 106.5,-676"/>
<text text-anchor="start" x="111.5" y="-684.8" font-family="Times,serif" font-size="14.00">– graphViz</text>
<polygon fill="none" stroke="black" points="106.5,-556 106.5,-676 859.5,-676 859.5,-556 106.5,-556"/>
<text text-anchor="start" x="111.5" y="-659.8" font-family="Times,serif" font-size="14.00">+ __construct(graphViz : Graphp\GraphViz\GraphViz, executable : string = &#39;dot&#39;, format : string = &#39;png&#39;)</text>
<text text-anchor="start" x="111.5" y="-640.8" font-family="Times,serif" font-size="14.00">+ getFormatter() : Bartlett\GraphUml\Formatter\FormatterInterface</text>
<text text-anchor="start" x="111.5" y="-621.8" font-family="Times,serif" font-size="14.00">+ getName() : string</text>
<text text-anchor="start" x="111.5" y="-602.8" font-family="Times,serif" font-size="14.00">+ getPrefix() : string</text>
<text text-anchor="start" x="111.5" y="-583.8" font-family="Times,serif" font-size="14.00">+ createScript(graph : Graphp\Graph\Graph) : string</text>
<text text-anchor="start" x="111.5" y="-564.8" font-family="Times,serif" font-size="14.00">+ createImageFile(graph : Graphp\Graph\Graph, cmdFormat : string = &#39;&#39;) : string</text>
</g>
<!-- Bartlett\\GraphUml\\Generator\\AbstractGenerator -->
<g id="node4" class="node">
<title>Bartlett\\GraphUml\\Generator\\AbstractGenerator</title>
<polygon fill="#fecece" stroke="transparent" points="1631.5,-677 1034.5,-677 1034.5,-313 1631.5,-313 1631.5,-677"/>
<polygon fill="#eeeeee" stroke="transparent" points="1043,-639 1043,-673 1624,-673 1624,-639 1043,-639"/>
<polygon fill="none" stroke="black" points="1043,-639 1043,-673 1624,-673 1624,-639 1043,-639"/>
<text text-anchor="start" x="1291.5" y="-659.8" font-family="Times,serif" font-weight="bold" font-size="14.00">«abstract»</text>
<text text-anchor="start" x="1259.5" y="-645.8" font-family="Times,serif" font-weight="bold" font-size="14.00">AbstractGenerator</text>
<polygon fill="none" stroke="black" points="1043,-557 1043,-639 1624,-639 1624,-557 1043,-557"/>
<text text-anchor="start" x="1048" y="-622.8" font-family="Times,serif" font-size="14.00">+ «static» CMD_EXECUTABLE : string = &quot;\%E&quot; {readOnly}</text>
<text text-anchor="start" x="1048" y="-603.8" font-family="Times,serif" font-size="14.00">+ «static» CMD_FORMAT : string = &quot;\%F&quot; {readOnly}</text>
<text text-anchor="start" x="1048" y="-584.8" font-family="Times,serif" font-size="14.00">+ «static» CMD_OUTPUT_FILE : string = &quot;\%o&quot; {readOnly}</text>
<text text-anchor="start" x="1048" y="-565.8" font-family="Times,serif" font-size="14.00">+ «static» CMD_TEMP_FILE : string = &quot;\%t&quot; {readOnly}</text>
<polygon fill="none" stroke="black" points="1043,-494 1043,-557 1624,-557 1624,-494 1043,-494"/>
<text text-anchor="start" x="1048" y="-540.8" font-family="Times,serif" font-size="14.00"># options : mixed</text>
<text text-anchor="start" x="1048" y="-521.8" font-family="Times,serif" font-size="14.00">– executable</text>
<text text-anchor="start" x="1048" y="-502.8" font-family="Times,serif" font-size="14.00">– format</text>
<polygon fill="none" stroke="black" points="1043,-317 1043,-494 1624,-494 1624,-317 1043,-317"/>
<text text-anchor="start" x="1048" y="-477.8" font-family="Times,serif" font-size="14.00">+ __construct(executable : string, format : string)</text>
<text text-anchor="start" x="1048" y="-458.8" font-family="Times,serif" font-size="14.00">+ setOptions(values : array) : void</text>
<text text-anchor="start" x="1048" y="-439.8" font-family="Times,serif" font-size="14.00">+ «abstract» getFormatter() : Bartlett\GraphUml\Formatter\FormatterInterface</text>
<text text-anchor="start" x="1048" y="-420.8" font-family="Times,serif" font-size="14.00">+ «abstract» getName() : string</text>
<text text-anchor="start" x="1048" y="-401.8" font-family="Times,serif" font-size="14.00">+ getPrefix() : string</text>
<text text-anchor="start" x="1048" y="-382.8" font-family="Times,serif" font-size="14.00">+ getLabelClass(reflection : ReflectionClass) : string</text>
<text text-anchor="start" x="1048" y="-363.8" font-family="Times,serif" font-size="14.00">+ getLabelExtension(reflection : ReflectionExtension) : string</text>
<text text-anchor="start" x="1048" y="-344.8" font-family="Times,serif" font-size="14.00">+ «abstract» createScript(graph : Graphp\Graph\Graph) : string</text>
<text text-anchor="start" x="1048" y="-325.8" font-family="Times,serif" font-size="14.00">+ createImageFile(graph : Graphp\Graph\Graph, cmdFormat : string) : string</text>
</g>
<!-- Bartlett\\GraphUml\\Generator\\GraphVizGenerator&#45;&gt;Bartlett\\GraphUml\\Generator\\AbstractGenerator -->
<g id="edge2" class="edge">
<title>Bartlett\\GraphUml\\Generator\\GraphVizGenerator&#45;&gt;Bartlett\\GraphUml\\Generator\\AbstractGenerator</title>
<path fill="none" stroke="black" d="M867.1,-577.73C919.79,-568.36 973.32,-558.83 1024.4,-549.74"/>
<polygon fill="none" stroke="black" points="1025.02,-553.19 1034.25,-547.99 1023.79,-546.29 1025.02,-553.19"/>
</g>
<!-- Bartlett\\GraphUml\\Generator\\GeneratorInterface -->
<g id="node5" class="node">
<title>Bartlett\\GraphUml\\Generator\\GeneratorInterface</title>
<polygon fill="#fecece" stroke="transparent" points="1663,-901 1003,-901 1003,-695 1663,-695 1663,-901"/>
<polygon fill="#eeeeee" stroke="transparent" points="1011,-863 1011,-897 1655,-897 1655,-863 1011,-863"/>
<polygon fill="none" stroke="black" points="1011,-863 1011,-897 1655,-897 1655,-863 1011,-863"/>
<text text-anchor="start" x="1288" y="-883.8" font-family="Times,serif" font-weight="bold" font-size="14.00">«interface»</text>
<text text-anchor="start" x="1256" y="-869.8" font-family="Times,serif" font-weight="bold" font-size="14.00">GeneratorInterface</text>
<polygon fill="none" stroke="black" points="1011,-857 1011,-863 1655,-863 1655,-857 1011,-857"/>
<polygon fill="none" stroke="black" points="1011,-699 1011,-857 1655,-857 1655,-699 1011,-699"/>
<text text-anchor="start" x="1016" y="-840.8" font-family="Times,serif" font-size="14.00">+ «abstract» setOptions(values : array) : void</text>
<text text-anchor="start" x="1016" y="-821.8" font-family="Times,serif" font-size="14.00">+ «abstract» getFormatter() : Bartlett\GraphUml\Formatter\FormatterInterface</text>
<text text-anchor="start" x="1016" y="-802.8" font-family="Times,serif" font-size="14.00">+ «abstract» getName() : string</text>
<text text-anchor="start" x="1016" y="-783.8" font-family="Times,serif" font-size="14.00">+ «abstract» getPrefix() : string</text>
<text text-anchor="start" x="1016" y="-764.8" font-family="Times,serif" font-size="14.00">+ «abstract» getLabelClass(reflection : ReflectionClass) : string</text>
<text text-anchor="start" x="1016" y="-745.8" font-family="Times,serif" font-size="14.00">+ «abstract» getLabelExtension(reflection : ReflectionExtension) : string</text>
<text text-anchor="start" x="1016" y="-726.8" font-family="Times,serif" font-size="14.00">+ «abstract» createScript(graph : Graphp\Graph\Graph) : string</text>
<text text-anchor="start" x="1016" y="-707.8" font-family="Times,serif" font-size="14.00">+ «abstract» createImageFile(graph : Graphp\Graph\Graph, cmdFormat : string) : string</text>
</g>
<!-- Bartlett\\GraphUml\\Generator\\GraphVizGenerator&#45;&gt;Bartlett\\GraphUml\\Generator\\GeneratorInterface -->
<g id="edge3" class="edge">
<title>Bartlett\\GraphUml\\Generator\\GraphVizGenerator&#45;&gt;Bartlett\\GraphUml\\Generator\\GeneratorInterface</title>
<path fill="none" stroke="black" stroke-dasharray="5,2" d="M867.1,-714.72C909.06,-722.24 951.56,-729.85 992.93,-737.26"/>
<polygon fill="none" stroke="black" points="992.4,-740.72 1002.86,-739.04 993.63,-733.83 992.4,-740.72"/>
</g>
</g>
</svg>
