<?xml version="1.0" encoding="UTF-8" standalone="no"?>
<!DOCTYPE svg PUBLIC "-//W3C//DTD SVG 1.1//EN"
 "http://www.w3.org/Graphics/SVG/1.1/DTD/svg11.dtd">
<!-- Generated by graphviz version 2.43.0 (0)
 -->
<!-- Title: %3 Pages: 1 -->
<svg width="1130pt" height="397pt"
 viewBox="0.00 0.00 1130.00 397.00" xmlns="http://www.w3.org/2000/svg" xmlns:xlink="http://www.w3.org/1999/xlink">
<g id="graph0" class="graph" transform="scale(1 1) rotate(0) translate(4 393)">
<title>%3</title>
<g id="clust1" class="cluster">
<title>cluster_0</title>
<polygon fill="#ffd39b" stroke="black" points="8,-8 8,-381 1114,-381 1114,-8 8,-8"/>
<text text-anchor="middle" x="561" y="-365.8" font-family="Times,serif" font-size="14.00">Bartlett\GraphUml\Formatter</text>
</g>
<!-- Bartlett\\GraphUml\\Formatter\\HtmlFormatter -->
<g id="node1" class="node">
<title>Bartlett\\GraphUml\\Formatter\\HtmlFormatter</title>
<polygon fill="#fecece" stroke="transparent" points="503,-350 16,-350 16,-182 503,-182 503,-350"/>
<polygon fill="#eeeeee" stroke="transparent" points="24.5,-312 24.5,-346 495.5,-346 495.5,-312 24.5,-312"/>
<polygon fill="none" stroke="black" points="24.5,-312 24.5,-346 495.5,-346 495.5,-312 24.5,-312"/>
<text text-anchor="start" x="199.5" y="-318.8" font-family="Times,serif" font-weight="bold" font-size="14.00">HtmlFormatter</text>
<polygon fill="none" stroke="black" points="24.5,-306 24.5,-312 495.5,-312 495.5,-306 24.5,-306"/>
<polygon fill="none" stroke="black" points="24.5,-186 24.5,-306 495.5,-306 495.5,-186 24.5,-186"/>
<text text-anchor="start" x="29.5" y="-289.8" font-family="Times,serif" font-size="14.00">+ __construct(options : array)</text>
<text text-anchor="start" x="29.5" y="-270.8" font-family="Times,serif" font-size="14.00">+ getLabelExtension(reflection : ReflectionExtension) : string</text>
<text text-anchor="start" x="29.5" y="-251.8" font-family="Times,serif" font-size="14.00">+ getLabelClass(reflection : ReflectionClass) : string</text>
<text text-anchor="start" x="29.5" y="-232.8" font-family="Times,serif" font-size="14.00">+ getLabelConstants(reflection) : string</text>
<text text-anchor="start" x="29.5" y="-213.8" font-family="Times,serif" font-size="14.00">+ getLabelProperties(reflection : ReflectionClass) : string</text>
<text text-anchor="start" x="29.5" y="-194.8" font-family="Times,serif" font-size="14.00">+ getLabelFunctions(functions : array, class : string = &#39;&#39;) : string</text>
</g>
<!-- Bartlett\\GraphUml\\Formatter\\AbstractFormatter -->
<g id="node2" class="node">
<title>Bartlett\\GraphUml\\Formatter\\AbstractFormatter</title>
<polygon fill="#fecece" stroke="transparent" points="942,-143 703,-143 703,-51 942,-51 942,-143"/>
<polygon fill="#eeeeee" stroke="transparent" points="711.5,-105 711.5,-139 934.5,-139 934.5,-105 711.5,-105"/>
<polygon fill="none" stroke="black" points="711.5,-105 711.5,-139 934.5,-139 934.5,-105 711.5,-105"/>
<text text-anchor="start" x="781" y="-125.8" font-family="Times,serif" font-weight="bold" font-size="14.00">«abstract»</text>
<text text-anchor="start" x="749.5" y="-111.8" font-family="Times,serif" font-weight="bold" font-size="14.00">AbstractFormatter</text>
<polygon fill="none" stroke="black" points="711.5,-99 711.5,-105 934.5,-105 934.5,-99 711.5,-99"/>
<polygon fill="none" stroke="black" points="711.5,-55 711.5,-99 934.5,-99 934.5,-55 711.5,-55"/>
<text text-anchor="start" x="716.5" y="-82.8" font-family="Times,serif" font-size="14.00">+ __construct(options : array)</text>
<text text-anchor="start" x="716.5" y="-63.8" font-family="Times,serif" font-size="14.00">+ getFormat() : string</text>
</g>
<!-- Bartlett\\GraphUml\\Formatter\\HtmlFormatter&#45;&gt;Bartlett\\GraphUml\\Formatter\\AbstractFormatter -->
<g id="edge1" class="edge">
<title>Bartlett\\GraphUml\\Formatter\\HtmlFormatter&#45;&gt;Bartlett\\GraphUml\\Formatter\\AbstractFormatter</title>
<path fill="none" stroke="black" d="M488.59,-181.92C505.58,-176.33 522.52,-170.96 539,-166 588.87,-151 644.41,-136.89 692.96,-125.38"/>
<polygon fill="none" stroke="black" points="693.96,-128.74 702.89,-123.04 692.35,-121.93 693.96,-128.74"/>
</g>
<!-- Bartlett\\GraphUml\\Formatter\\FormatterInterface -->
<g id="node3" class="node">
<title>Bartlett\\GraphUml\\Formatter\\FormatterInterface</title>
<polygon fill="#cdaa7d" stroke="transparent" points="1106,-343 539,-343 539,-175 1106,-175 1106,-343"/>
<polygon fill="#eeeeee" stroke="transparent" points="547.5,-305 547.5,-339 1098.5,-339 1098.5,-305 547.5,-305"/>
<polygon fill="none" stroke="black" points="547.5,-305 547.5,-339 1098.5,-339 1098.5,-305 547.5,-305"/>
<text text-anchor="start" x="778" y="-325.8" font-family="Times,serif" font-weight="bold" font-size="14.00">«interface»</text>
<text text-anchor="start" x="746.5" y="-311.8" font-family="Times,serif" font-weight="bold" font-size="14.00">FormatterInterface</text>
<polygon fill="none" stroke="black" points="547.5,-299 547.5,-305 1098.5,-305 1098.5,-299 547.5,-299"/>
<polygon fill="none" stroke="black" points="547.5,-179 547.5,-299 1098.5,-299 1098.5,-179 547.5,-179"/>
<text text-anchor="start" x="552.5" y="-282.8" font-family="Times,serif" font-size="14.00">+ «abstract» getFormat() : string</text>
<text text-anchor="start" x="552.5" y="-263.8" font-family="Times,serif" font-size="14.00">+ «abstract» getLabelExtension(reflection : ReflectionExtension) : string</text>
<text text-anchor="start" x="552.5" y="-244.8" font-family="Times,serif" font-size="14.00">+ «abstract» getLabelClass(reflection : ReflectionClass) : string</text>
<text text-anchor="start" x="552.5" y="-225.8" font-family="Times,serif" font-size="14.00">+ «abstract» getLabelConstants(reflection) : string</text>
<text text-anchor="start" x="552.5" y="-206.8" font-family="Times,serif" font-size="14.00">+ «abstract» getLabelProperties(reflection : ReflectionClass) : string</text>
<text text-anchor="start" x="552.5" y="-187.8" font-family="Times,serif" font-size="14.00">+ «abstract» getLabelFunctions(functions : array, class : string = &#39;&#39;) : string</text>
</g>
<!-- Bartlett\\GraphUml\\Formatter\\HtmlFormatter&#45;&gt;Bartlett\\GraphUml\\Formatter\\FormatterInterface -->
<g id="edge2" class="edge">
<title>Bartlett\\GraphUml\\Formatter\\HtmlFormatter&#45;&gt;Bartlett\\GraphUml\\Formatter\\FormatterInterface</title>
<path fill="none" stroke="black" stroke-dasharray="5,2" d="M503.3,-262.97C511.62,-262.87 519.98,-262.76 528.35,-262.66"/>
<polygon fill="none" stroke="black" points="528.62,-266.15 538.57,-262.53 528.53,-259.16 528.62,-266.15"/>
</g>
<!-- Bartlett\\GraphUml\\Formatter\\RecordFormatter -->
<g id="node4" class="node">
<title>Bartlett\\GraphUml\\Formatter\\RecordFormatter</title>
<polygon fill="#fecece" stroke="transparent" points="503,-164.5 16,-164.5 16,-15.5 503,-15.5 503,-164.5"/>
<polygon fill="#eeeeee" stroke="transparent" points="24.5,-126 24.5,-160 495.5,-160 495.5,-126 24.5,-126"/>
<polygon fill="none" stroke="black" points="24.5,-126 24.5,-160 495.5,-160 495.5,-126 24.5,-126"/>
<text text-anchor="start" x="192" y="-132.8" font-family="Times,serif" font-weight="bold" font-size="14.00">RecordFormatter</text>
<polygon fill="none" stroke="black" points="24.5,-120 24.5,-126 495.5,-126 495.5,-120 24.5,-120"/>
<polygon fill="none" stroke="black" points="24.5,-19 24.5,-120 495.5,-120 495.5,-19 24.5,-19"/>
<text text-anchor="start" x="29.5" y="-103.8" font-family="Times,serif" font-size="14.00">+ getLabelExtension(reflection : ReflectionExtension) : string</text>
<text text-anchor="start" x="29.5" y="-84.8" font-family="Times,serif" font-size="14.00">+ getLabelClass(reflection : ReflectionClass) : string</text>
<text text-anchor="start" x="29.5" y="-65.8" font-family="Times,serif" font-size="14.00">+ getLabelProperties(reflection : ReflectionClass) : string</text>
<text text-anchor="start" x="29.5" y="-46.8" font-family="Times,serif" font-size="14.00">+ getLabelConstants(reflection) : string</text>
<text text-anchor="start" x="29.5" y="-27.8" font-family="Times,serif" font-size="14.00">+ getLabelFunctions(functions : array, class : string = &#39;&#39;) : string</text>
</g>
<!-- Bartlett\\GraphUml\\Formatter\\RecordFormatter&#45;&gt;Bartlett\\GraphUml\\Formatter\\AbstractFormatter -->
<g id="edge3" class="edge">
<title>Bartlett\\GraphUml\\Formatter\\RecordFormatter&#45;&gt;Bartlett\\GraphUml\\Formatter\\AbstractFormatter</title>
<path fill="none" stroke="black" d="M503.3,-93.03C568.53,-93.84 636.53,-94.69 692.84,-95.39"/>
<polygon fill="none" stroke="black" points="692.81,-98.89 702.85,-95.52 692.9,-91.89 692.81,-98.89"/>
</g>
<!-- Bartlett\\GraphUml\\Formatter\\RecordFormatter&#45;&gt;Bartlett\\GraphUml\\Formatter\\FormatterInterface -->
<g id="edge4" class="edge">
<title>Bartlett\\GraphUml\\Formatter\\RecordFormatter&#45;&gt;Bartlett\\GraphUml\\Formatter\\FormatterInterface</title>
<path fill="none" stroke="black" stroke-dasharray="5,2" d="M503.3,-163.14C513.07,-166.09 522.91,-169.05 532.75,-172.02"/>
<polygon fill="none" stroke="black" points="532.02,-175.45 542.61,-174.98 534.04,-168.75 532.02,-175.45"/>
</g>
</g>
</svg>
