<?xml version="1.0" encoding="UTF-8" standalone="no"?>
<!DOCTYPE svg PUBLIC "-//W3C//DTD SVG 1.1//EN"
 "http://www.w3.org/Graphics/SVG/1.1/DTD/svg11.dtd">
<!-- Generated by graphviz version 2.43.0 (0)
 -->
<!-- Title: %3 Pages: 1 -->
<svg width="1707pt" height="313pt"
 viewBox="0.00 0.00 1707.00 313.00" xmlns="http://www.w3.org/2000/svg" xmlns:xlink="http://www.w3.org/1999/xlink">
<g id="graph0" class="graph" transform="scale(1 1) rotate(0) translate(4 309)">
<title>%3</title>
<g id="clust1" class="cluster">
<title>cluster_0</title>
<polygon fill="#cdaa7d" stroke="black" points="8,-8 8,-297 1691,-297 1691,-8 8,-8"/>
<text text-anchor="middle" x="849.5" y="-281.8" font-family="Times,serif" font-size="14.00">Bartlett\GraphUml</text>
</g>
<!-- Bartlett\\GraphUml\\ClassDiagramBuilder -->
<g id="node1" class="node">
<title>Bartlett\\GraphUml\\ClassDiagramBuilder</title>
<polygon fill="#fecece" stroke="transparent" points="949,-266 16,-266 16,-16 949,-16 949,-266"/>
<polygon fill="#eeeeee" stroke="transparent" points="24.5,-228 24.5,-262 941.5,-262 941.5,-228 24.5,-228"/>
<polygon fill="none" stroke="black" points="24.5,-228 24.5,-262 941.5,-262 941.5,-228 24.5,-228"/>
<text text-anchor="start" x="398.5" y="-234.8" font-family="Times,serif" font-weight="bold" font-size="14.00">ClassDiagramBuilder</text>
<polygon fill="none" stroke="black" points="24.5,-203 24.5,-228 941.5,-228 941.5,-203 24.5,-203"/>
<text text-anchor="start" x="29.5" y="-211.8" font-family="Times,serif" font-size="14.00">+ «static» OPTIONS_DEFAULTS : array = […] {readOnly}</text>
<polygon fill="none" stroke="black" points="24.5,-121 24.5,-203 941.5,-203 941.5,-121 24.5,-121"/>
<text text-anchor="start" x="29.5" y="-186.8" font-family="Times,serif" font-size="14.00">– options : mixed</text>
<text text-anchor="start" x="29.5" y="-167.8" font-family="Times,serif" font-size="14.00">– entities : mixed</text>
<text text-anchor="start" x="29.5" y="-148.8" font-family="Times,serif" font-size="14.00">– generator</text>
<text text-anchor="start" x="29.5" y="-129.8" font-family="Times,serif" font-size="14.00">– graph</text>
<polygon fill="none" stroke="black" points="24.5,-20 24.5,-121 941.5,-121 941.5,-20 24.5,-20"/>
<text text-anchor="start" x="29.5" y="-104.8" font-family="Times,serif" font-size="14.00">+ __construct(generator : Bartlett\GraphUml\Generator\GeneratorInterface, graph : Graphp\Graph\Graph, options : array = [])</text>
<text text-anchor="start" x="29.5" y="-85.8" font-family="Times,serif" font-size="14.00">+ createVertexClass(source, attributes : array = []) : Graphp\Graph\Vertex</text>
<text text-anchor="start" x="29.5" y="-66.8" font-family="Times,serif" font-size="14.00">+ createVertexExtension(source, attributes : array = []) : Graphp\Graph\Vertex</text>
<text text-anchor="start" x="29.5" y="-47.8" font-family="Times,serif" font-size="14.00">+ createVerticesFromCallable(callback : callable, vertices : Generator) : void</text>
<text text-anchor="start" x="29.5" y="-28.8" font-family="Times,serif" font-size="14.00">– getInterfaces(reflection : ReflectionClass) : array</text>
</g>
<!-- Bartlett\\GraphUml\\ClassDiagramBuilderInterface -->
<g id="node2" class="node">
<title>Bartlett\\GraphUml\\ClassDiagramBuilderInterface</title>
<polygon fill="#fecece" stroke="transparent" points="1683,-209 985,-209 985,-73 1683,-73 1683,-209"/>
<polygon fill="#eeeeee" stroke="transparent" points="993,-171 993,-205 1675,-205 1675,-171 993,-171"/>
<polygon fill="none" stroke="black" points="993,-171 993,-205 1675,-205 1675,-171 993,-171"/>
<text text-anchor="start" x="1289" y="-191.8" font-family="Times,serif" font-weight="bold" font-size="14.00">«interface»</text>
<text text-anchor="start" x="1213" y="-177.8" font-family="Times,serif" font-weight="bold" font-size="14.00">ClassDiagramBuilderInterface</text>
<polygon fill="none" stroke="black" points="993,-146 993,-171 1675,-171 1675,-146 993,-146"/>
<text text-anchor="start" x="998" y="-154.8" font-family="Times,serif" font-size="14.00">+ «static» OPTIONS_DEFAULTS : array = […] {readOnly}</text>
<polygon fill="none" stroke="black" points="993,-140 993,-146 1675,-146 1675,-140 993,-140"/>
<polygon fill="none" stroke="black" points="993,-77 993,-140 1675,-140 1675,-77 993,-77"/>
<text text-anchor="start" x="998" y="-123.8" font-family="Times,serif" font-size="14.00">+ «abstract» createVertexClass(source : mixed, attributes : array = []) : Graphp\Graph\Vertex</text>
<text text-anchor="start" x="998" y="-104.8" font-family="Times,serif" font-size="14.00">+ «abstract» createVertexExtension(source, attributes : array = []) : Graphp\Graph\Vertex</text>
<text text-anchor="start" x="998" y="-85.8" font-family="Times,serif" font-size="14.00">+ «abstract» createVerticesFromCallable(callback : callable, vertices : Generator) : void</text>
</g>
<!-- Bartlett\\GraphUml\\ClassDiagramBuilder&#45;&gt;Bartlett\\GraphUml\\ClassDiagramBuilderInterface -->
<g id="edge1" class="edge">
<title>Bartlett\\GraphUml\\ClassDiagramBuilder&#45;&gt;Bartlett\\GraphUml\\ClassDiagramBuilderInterface</title>
<path fill="none" stroke="black" stroke-dasharray="5,2" d="M949.26,-141C957.71,-141 966.13,-141 974.52,-141"/>
<polygon fill="none" stroke="black" points="974.74,-144.5 984.74,-141 974.74,-137.5 974.74,-144.5"/>
</g>
</g>
</svg>
