<?xml version="1.0" encoding="UTF-8" standalone="no"?>
<!DOCTYPE svg PUBLIC "-//W3C//DTD SVG 1.1//EN"
 "http://www.w3.org/Graphics/SVG/1.1/DTD/svg11.dtd">
<!-- Generated by graphviz version 2.43.0 (0)
 -->
<!-- Title: %3 Pages: 1 -->
<svg width="1762pt" height="1005pt"
 viewBox="0.00 0.00 1762.00 1005.00" xmlns="http://www.w3.org/2000/svg" xmlns:xlink="http://www.w3.org/1999/xlink">
<g id="graph0" class="graph" transform="scale(1 1) rotate(0) translate(4 1001)">
<title>%3</title>
<g id="clust1" class="cluster">
<title>cluster_0</title>
<polygon fill="#cdaa7d" stroke="black" points="170.5,-8 170.5,-692 1699.5,-692 1699.5,-8 170.5,-8"/>
<text text-anchor="middle" x="935" y="-676.8" font-family="Times,serif" font-size="14.00">Bartlett\GraphUml\Generator</text>
</g>
<g id="clust2" class="cluster">
<title>cluster_1</title>
<polygon fill="#cdaa7d" stroke="black" points="8,-700 8,-989 1746,-989 1746,-700 8,-700"/>
<text text-anchor="middle" x="877" y="-973.8" font-family="Times,serif" font-size="14.00">Bartlett\GraphUml</text>
</g>
<!-- Bartlett\\GraphUml\\Generator\\GraphVizGenerator -->
<g id="node1" class="node">
<title>Bartlett\\GraphUml\\Generator\\GraphVizGenerator</title>
<polygon fill="#fecece" stroke="transparent" points="786.5,-466.5 178.5,-466.5 178.5,-279.5 786.5,-279.5 786.5,-466.5"/>
<polygon fill="#eeeeee" stroke="transparent" points="186.5,-428 186.5,-462 778.5,-462 778.5,-428 186.5,-428"/>
<polygon fill="none" stroke="black" points="186.5,-428 186.5,-462 778.5,-462 778.5,-428 186.5,-428"/>
<text text-anchor="start" x="405.5" y="-434.8" font-family="Times,serif" font-weight="bold" font-size="14.00">GraphVizGenerator</text>
<polygon fill="none" stroke="black" points="186.5,-403 186.5,-428 778.5,-428 778.5,-403 186.5,-403"/>
<text text-anchor="start" x="191.5" y="-411.8" font-family="Times,serif" font-size="14.00">– graphViz : GraphViz</text>
<polygon fill="none" stroke="black" points="186.5,-283 186.5,-403 778.5,-403 778.5,-283 186.5,-283"/>
<text text-anchor="start" x="191.5" y="-386.8" font-family="Times,serif" font-size="14.00">+ __construct(graphViz : Graphp\GraphViz\GraphViz)</text>
<text text-anchor="start" x="191.5" y="-367.8" font-family="Times,serif" font-size="14.00">+ getFormatter() : Bartlett\GraphUml\Formatter\FormatterInterface</text>
<text text-anchor="start" x="191.5" y="-348.8" font-family="Times,serif" font-size="14.00">+ getName() : string</text>
<text text-anchor="start" x="191.5" y="-329.8" font-family="Times,serif" font-size="14.00">+ getPrefix() : string</text>
<text text-anchor="start" x="191.5" y="-310.8" font-family="Times,serif" font-size="14.00">+ createScript(graph : Graphp\Graph\Graph) : string</text>
<text text-anchor="start" x="191.5" y="-291.8" font-family="Times,serif" font-size="14.00">+ createImageFile(graph : Graphp\Graph\Graph, cmdFormat : string = &#39;&#39;) : string</text>
</g>
<!-- Bartlett\\GraphUml\\Generator\\AbstractGenerator -->
<g id="node2" class="node">
<title>Bartlett\\GraphUml\\Generator\\AbstractGenerator</title>
<polygon fill="#fecece" stroke="transparent" points="1660,-398.5 1063,-398.5 1063,-15.5 1660,-15.5 1660,-398.5"/>
<polygon fill="#eeeeee" stroke="transparent" points="1071.5,-360 1071.5,-394 1652.5,-394 1652.5,-360 1071.5,-360"/>
<polygon fill="none" stroke="black" points="1071.5,-360 1071.5,-394 1652.5,-394 1652.5,-360 1071.5,-360"/>
<text text-anchor="start" x="1320" y="-380.8" font-family="Times,serif" font-weight="bold" font-size="14.00">«abstract»</text>
<text text-anchor="start" x="1288" y="-366.8" font-family="Times,serif" font-weight="bold" font-size="14.00">AbstractGenerator</text>
<polygon fill="none" stroke="black" points="1071.5,-278 1071.5,-360 1652.5,-360 1652.5,-278 1071.5,-278"/>
<text text-anchor="start" x="1076.5" y="-343.8" font-family="Times,serif" font-size="14.00">+ «static» CMD_EXECUTABLE : string = &quot;\%E&quot; {readOnly}</text>
<text text-anchor="start" x="1076.5" y="-324.8" font-family="Times,serif" font-size="14.00">+ «static» CMD_FORMAT : string = &quot;\%F&quot; {readOnly}</text>
<text text-anchor="start" x="1076.5" y="-305.8" font-family="Times,serif" font-size="14.00">+ «static» CMD_OUTPUT_FILE : string = &quot;\%o&quot; {readOnly}</text>
<text text-anchor="start" x="1076.5" y="-286.8" font-family="Times,serif" font-size="14.00">+ «static» CMD_TEMP_FILE : string = &quot;\%t&quot; {readOnly}</text>
<polygon fill="none" stroke="black" points="1071.5,-215 1071.5,-278 1652.5,-278 1652.5,-215 1071.5,-215"/>
<text text-anchor="start" x="1076.5" y="-261.8" font-family="Times,serif" font-size="14.00"># options : mixed</text>
<text text-anchor="start" x="1076.5" y="-242.8" font-family="Times,serif" font-size="14.00">– executable : string</text>
<text text-anchor="start" x="1076.5" y="-223.8" font-family="Times,serif" font-size="14.00">– format : string</text>
<polygon fill="none" stroke="black" points="1071.5,-19 1071.5,-215 1652.5,-215 1652.5,-19 1071.5,-19"/>
<text text-anchor="start" x="1076.5" y="-198.8" font-family="Times,serif" font-size="14.00">+ setOptions(values : array) : void</text>
<text text-anchor="start" x="1076.5" y="-179.8" font-family="Times,serif" font-size="14.00">+ «abstract» getFormatter() : Bartlett\GraphUml\Formatter\FormatterInterface</text>
<text text-anchor="start" x="1076.5" y="-160.8" font-family="Times,serif" font-size="14.00">+ «abstract» getName() : string</text>
<text text-anchor="start" x="1076.5" y="-141.8" font-family="Times,serif" font-size="14.00">+ getPrefix() : string</text>
<text text-anchor="start" x="1076.5" y="-122.8" font-family="Times,serif" font-size="14.00">+ getLabelClass(reflection : ReflectionClass) : string</text>
<text text-anchor="start" x="1076.5" y="-103.8" font-family="Times,serif" font-size="14.00">+ getLabelExtension(reflection : ReflectionExtension) : string</text>
<text text-anchor="start" x="1076.5" y="-84.8" font-family="Times,serif" font-size="14.00">+ setExecutable(executable : string) : void</text>
<text text-anchor="start" x="1076.5" y="-65.8" font-family="Times,serif" font-size="14.00">+ setFormat(format : string) : void</text>
<text text-anchor="start" x="1076.5" y="-46.8" font-family="Times,serif" font-size="14.00">+ «abstract» createScript(graph : Graphp\Graph\Graph) : string</text>
<text text-anchor="start" x="1076.5" y="-27.8" font-family="Times,serif" font-size="14.00">+ createImageFile(graph : Graphp\Graph\Graph, cmdFormat : string) : string</text>
</g>
<!-- Bartlett\\GraphUml\\Generator\\GraphVizGenerator&#45;&gt;Bartlett\\GraphUml\\Generator\\AbstractGenerator -->
<g id="edge1" class="edge">
<title>Bartlett\\GraphUml\\Generator\\GraphVizGenerator&#45;&gt;Bartlett\\GraphUml\\Generator\\AbstractGenerator</title>
<path fill="none" stroke="black" d="M786.54,-315.64C872.59,-299.35 966.36,-281.6 1052.69,-265.26"/>
<polygon fill="none" stroke="black" points="1053.46,-268.68 1062.64,-263.38 1052.16,-261.8 1053.46,-268.68"/>
</g>
<!-- Bartlett\\GraphUml\\Generator\\GeneratorInterface -->
<g id="node3" class="node">
<title>Bartlett\\GraphUml\\Generator\\GeneratorInterface</title>
<polygon fill="#fecece" stroke="transparent" points="1691.5,-661 1031.5,-661 1031.5,-417 1691.5,-417 1691.5,-661"/>
<polygon fill="#eeeeee" stroke="transparent" points="1039.5,-623 1039.5,-657 1683.5,-657 1683.5,-623 1039.5,-623"/>
<polygon fill="none" stroke="black" points="1039.5,-623 1039.5,-657 1683.5,-657 1683.5,-623 1039.5,-623"/>
<text text-anchor="start" x="1316.5" y="-643.8" font-family="Times,serif" font-weight="bold" font-size="14.00">«interface»</text>
<text text-anchor="start" x="1284.5" y="-629.8" font-family="Times,serif" font-weight="bold" font-size="14.00">GeneratorInterface</text>
<polygon fill="none" stroke="black" points="1039.5,-617 1039.5,-623 1683.5,-623 1683.5,-617 1039.5,-617"/>
<polygon fill="none" stroke="black" points="1039.5,-421 1039.5,-617 1683.5,-617 1683.5,-421 1039.5,-421"/>
<text text-anchor="start" x="1044.5" y="-600.8" font-family="Times,serif" font-size="14.00">+ «abstract» setOptions(values : array) : void</text>
<text text-anchor="start" x="1044.5" y="-581.8" font-family="Times,serif" font-size="14.00">+ «abstract» getFormatter() : Bartlett\GraphUml\Formatter\FormatterInterface</text>
<text text-anchor="start" x="1044.5" y="-562.8" font-family="Times,serif" font-size="14.00">+ «abstract» getName() : string</text>
<text text-anchor="start" x="1044.5" y="-543.8" font-family="Times,serif" font-size="14.00">+ «abstract» getPrefix() : string</text>
<text text-anchor="start" x="1044.5" y="-524.8" font-family="Times,serif" font-size="14.00">+ «abstract» getLabelClass(reflection : ReflectionClass) : string</text>
<text text-anchor="start" x="1044.5" y="-505.8" font-family="Times,serif" font-size="14.00">+ «abstract» getLabelExtension(reflection : ReflectionExtension) : string</text>
<text text-anchor="start" x="1044.5" y="-486.8" font-family="Times,serif" font-size="14.00">+ «abstract» setExecutable(executable : string) : void</text>
<text text-anchor="start" x="1044.5" y="-467.8" font-family="Times,serif" font-size="14.00">+ «abstract» setFormat(format : string) : void</text>
<text text-anchor="start" x="1044.5" y="-448.8" font-family="Times,serif" font-size="14.00">+ «abstract» createScript(graph : Graphp\Graph\Graph) : string</text>
<text text-anchor="start" x="1044.5" y="-429.8" font-family="Times,serif" font-size="14.00">+ «abstract» createImageFile(graph : Graphp\Graph\Graph, cmdFormat : string) : string</text>
</g>
<!-- Bartlett\\GraphUml\\Generator\\GraphVizGenerator&#45;&gt;Bartlett\\GraphUml\\Generator\\GeneratorInterface -->
<g id="edge2" class="edge">
<title>Bartlett\\GraphUml\\Generator\\GraphVizGenerator&#45;&gt;Bartlett\\GraphUml\\Generator\\GeneratorInterface</title>
<path fill="none" stroke="black" stroke-dasharray="5,2" d="M786.54,-430.36C862.27,-444.69 943.98,-460.16 1021.33,-474.8"/>
<polygon fill="none" stroke="black" points="1020.76,-478.26 1031.23,-476.68 1022.06,-471.38 1020.76,-478.26"/>
</g>
<!-- Bartlett\\GraphUml\\ClassDiagramBuilder -->
<g id="node4" class="node">
<title>Bartlett\\GraphUml\\ClassDiagramBuilder</title>
<polygon fill="#fecece" stroke="transparent" points="949,-958 16,-958 16,-708 949,-708 949,-958"/>
<polygon fill="#eeeeee" stroke="transparent" points="24.5,-920 24.5,-954 941.5,-954 941.5,-920 24.5,-920"/>
<polygon fill="none" stroke="black" points="24.5,-920 24.5,-954 941.5,-954 941.5,-920 24.5,-920"/>
<text text-anchor="start" x="398.5" y="-926.8" font-family="Times,serif" font-weight="bold" font-size="14.00">ClassDiagramBuilder</text>
<polygon fill="none" stroke="black" points="24.5,-895 24.5,-920 941.5,-920 941.5,-895 24.5,-895"/>
<text text-anchor="start" x="29.5" y="-903.8" font-family="Times,serif" font-size="14.00">+ «static» OPTIONS_DEFAULTS : array = […] {readOnly}</text>
<polygon fill="none" stroke="black" points="24.5,-813 24.5,-895 941.5,-895 941.5,-813 24.5,-813"/>
<text text-anchor="start" x="29.5" y="-878.8" font-family="Times,serif" font-size="14.00">– graph : Graph</text>
<text text-anchor="start" x="29.5" y="-859.8" font-family="Times,serif" font-size="14.00">– options : mixed</text>
<text text-anchor="start" x="29.5" y="-840.8" font-family="Times,serif" font-size="14.00">– generator : GeneratorInterface</text>
<text text-anchor="start" x="29.5" y="-821.8" font-family="Times,serif" font-size="14.00">– entities : mixed</text>
<polygon fill="none" stroke="black" points="24.5,-712 24.5,-813 941.5,-813 941.5,-712 24.5,-712"/>
<text text-anchor="start" x="29.5" y="-796.8" font-family="Times,serif" font-size="14.00">+ __construct(generator : Bartlett\GraphUml\Generator\GeneratorInterface, graph : Graphp\Graph\Graph, options : array = [])</text>
<text text-anchor="start" x="29.5" y="-777.8" font-family="Times,serif" font-size="14.00">+ createVertexClass(class, attributes : array = []) : Graphp\Graph\Vertex</text>
<text text-anchor="start" x="29.5" y="-758.8" font-family="Times,serif" font-size="14.00">+ createVertexExtension(extension, attributes : array = []) : Graphp\Graph\Vertex</text>
<text text-anchor="start" x="29.5" y="-739.8" font-family="Times,serif" font-size="14.00">+ createVerticesFromCallable(callback : callable, vertices : Generator) : void</text>
<text text-anchor="start" x="29.5" y="-720.8" font-family="Times,serif" font-size="14.00">– getInterfaces(reflection : ReflectionClass) : array</text>
</g>
<!-- Bartlett\\GraphUml\\ClassDiagramBuilderInterface -->
<g id="node5" class="node">
<title>Bartlett\\GraphUml\\ClassDiagramBuilderInterface</title>
<polygon fill="#fecece" stroke="transparent" points="1738,-901 985,-901 985,-765 1738,-765 1738,-901"/>
<polygon fill="#eeeeee" stroke="transparent" points="993.5,-863 993.5,-897 1730.5,-897 1730.5,-863 993.5,-863"/>
<polygon fill="none" stroke="black" points="993.5,-863 993.5,-897 1730.5,-897 1730.5,-863 993.5,-863"/>
<text text-anchor="start" x="1317" y="-883.8" font-family="Times,serif" font-weight="bold" font-size="14.00">«interface»</text>
<text text-anchor="start" x="1241" y="-869.8" font-family="Times,serif" font-weight="bold" font-size="14.00">ClassDiagramBuilderInterface</text>
<polygon fill="none" stroke="black" points="993.5,-838 993.5,-863 1730.5,-863 1730.5,-838 993.5,-838"/>
<text text-anchor="start" x="998.5" y="-846.8" font-family="Times,serif" font-size="14.00">+ «static» OPTIONS_DEFAULTS : array = […] {readOnly}</text>
<polygon fill="none" stroke="black" points="993.5,-832 993.5,-838 1730.5,-838 1730.5,-832 993.5,-832"/>
<polygon fill="none" stroke="black" points="993.5,-769 993.5,-832 1730.5,-832 1730.5,-769 993.5,-769"/>
<text text-anchor="start" x="998.5" y="-815.8" font-family="Times,serif" font-size="14.00">+ «abstract» createVertexClass(class : mixed, attributes : array = []) : Graphp\Graph\Vertex</text>
<text text-anchor="start" x="998.5" y="-796.8" font-family="Times,serif" font-size="14.00">+ «abstract» createVertexExtension(extension : mixed, attributes : array = []) : Graphp\Graph\Vertex</text>
<text text-anchor="start" x="998.5" y="-777.8" font-family="Times,serif" font-size="14.00">+ «abstract» createVerticesFromCallable(callback : callable, vertices : Generator) : void</text>
</g>
<!-- Bartlett\\GraphUml\\ClassDiagramBuilder&#45;&gt;Bartlett\\GraphUml\\ClassDiagramBuilderInterface -->
<g id="edge3" class="edge">
<title>Bartlett\\GraphUml\\ClassDiagramBuilder&#45;&gt;Bartlett\\GraphUml\\ClassDiagramBuilderInterface</title>
<path fill="none" stroke="black" stroke-dasharray="5,2" d="M949.28,-833C957.73,-833 966.17,-833 974.57,-833"/>
<polygon fill="none" stroke="black" points="974.82,-836.5 984.82,-833 974.82,-829.5 974.82,-836.5"/>
</g>
</g>
</svg>
