<?xml version="1.0" encoding="UTF-8" standalone="no"?>
<!DOCTYPE svg PUBLIC "-//W3C//DTD SVG 1.1//EN"
 "http://www.w3.org/Graphics/SVG/1.1/DTD/svg11.dtd">
<!-- Generated by graphviz version 2.43.0 (0)
 -->
<!-- Title: %3 Pages: 1 -->
<svg width="492pt" height="239pt"
 viewBox="0.00 0.00 492.00 239.00" xmlns="http://www.w3.org/2000/svg" xmlns:xlink="http://www.w3.org/1999/xlink">
<g id="graph0" class="graph" transform="scale(1 1) rotate(0) translate(4 235)">
<title>%3</title>
<polygon fill="white" stroke="transparent" points="-4,4 -4,-235 488,-235 488,4 -4,4"/>
<g id="clust1" class="cluster">
<title>cluster_0</title>
<polygon fill="white" stroke="black" points="8,-8 8,-223 476,-223 476,-8 8,-8"/>
<text text-anchor="middle" x="242" y="-207.8" font-family="Times,serif" font-size="14.00">Bartlett\GraphUml</text>
</g>
<!-- Bartlett\\GraphUml\\ClassDiagramBuilder -->
<g id="node1" class="node">
<title>Bartlett\\GraphUml\\ClassDiagramBuilder</title>
<polygon fill="white" stroke="black" points="88,-122.5 88,-191.5 396,-191.5 396,-122.5 88,-122.5"/>
<text text-anchor="middle" x="242" y="-176.3" font-family="Times,serif" font-size="14.00">Bartlett\GraphUml\ClassDiagramBuilder</text>
<polyline fill="none" stroke="black" points="88,-168.5 396,-168.5 "/>
<text text-anchor="middle" x="242" y="-153.3" font-family="Times,serif" font-size="14.00"> </text>
<polyline fill="none" stroke="black" points="88,-145.5 396,-145.5 "/>
<text text-anchor="middle" x="242" y="-130.3" font-family="Times,serif" font-size="14.00"> </text>
</g>
<!-- Bartlett\\GraphUml\\ClassDiagramBuilderInterface -->
<g id="node2" class="node">
<title>Bartlett\\GraphUml\\ClassDiagramBuilderInterface</title>
<polygon fill="white" stroke="black" points="15.5,-16.5 15.5,-85.5 468.5,-85.5 468.5,-16.5 15.5,-16.5"/>
<text text-anchor="middle" x="242" y="-70.3" font-family="Times,serif" font-size="14.00">«interface»Bartlett\GraphUml\ClassDiagramBuilderInterface</text>
<polyline fill="none" stroke="black" points="15.5,-62.5 468.5,-62.5 "/>
<text text-anchor="middle" x="242" y="-47.3" font-family="Times,serif" font-size="14.00"> </text>
<polyline fill="none" stroke="black" points="15.5,-39.5 468.5,-39.5 "/>
<text text-anchor="middle" x="242" y="-24.3" font-family="Times,serif" font-size="14.00"> </text>
</g>
<!-- Bartlett\\GraphUml\\ClassDiagramBuilder&#45;&gt;Bartlett\\GraphUml\\ClassDiagramBuilderInterface -->
<g id="edge1" class="edge">
<title>Bartlett\\GraphUml\\ClassDiagramBuilder&#45;&gt;Bartlett\\GraphUml\\ClassDiagramBuilderInterface</title>
<path fill="none" stroke="black" stroke-dasharray="5,2" d="M242,-122.23C242,-113.79 242,-104.62 242,-95.77"/>
<polygon fill="none" stroke="black" points="245.5,-95.6 242,-85.6 238.5,-95.6 245.5,-95.6"/>
</g>
</g>
</svg>
