<?xml version="1.0" encoding="UTF-8" standalone="no"?>
<!DOCTYPE svg PUBLIC "-//W3C//DTD SVG 1.1//EN"
 "http://www.w3.org/Graphics/SVG/1.1/DTD/svg11.dtd">
<!-- Generated by graphviz version 2.43.0 (0)
 -->
<!-- Title: %3 Pages: 1 -->
<svg width="1762pt" height="1127pt"
 viewBox="0.00 0.00 1762.00 1127.00" xmlns="http://www.w3.org/2000/svg" xmlns:xlink="http://www.w3.org/1999/xlink">
<g id="graph0" class="graph" transform="scale(1 1) rotate(0) translate(4 1123)">
<title>%3</title>
<polygon fill="white" stroke="transparent" points="-4,4 -4,-1123 1758,-1123 1758,4 -4,4"/>
<g id="clust1" class="cluster">
<title>cluster_0</title>
<defs>
<radialGradient id="r_0" cx="50%" cy="50%" r="75%" fx="0%" fy="50%">
<stop offset="0" style="stop-color:yellow;stop-opacity:1.;"/>
<stop offset="1" style="stop-color:blue;stop-opacity:1.;"/>
</radialGradient>
</defs>
<polygon fill="url(#r_0)" stroke="black" points="231,-8 231,-381 1653,-381 1653,-8 231,-8"/>
<text text-anchor="middle" x="942" y="-365.8" font-family="Times,serif" font-size="14.00">Bartlett\GraphUml\Formatter</text>
</g>
<g id="clust2" class="cluster">
<title>cluster_1</title>
<defs>
<linearGradient id="l_0" gradientUnits="userSpaceOnUse" x1="394.42" y1="-468.81" x2="1475.58" y2="-854.19" >
<stop offset="0" style="stop-color:yellow;stop-opacity:1.;"/>
<stop offset="1" style="stop-color:blue;stop-opacity:1.;"/>
</linearGradient>
</defs>
<polygon fill="url(#l_0)" stroke="black" points="170.5,-389 170.5,-934 1699.5,-934 1699.5,-389 170.5,-389"/>
<text text-anchor="middle" x="935" y="-918.8" font-family="Times,serif" font-size="14.00">Bartlett\GraphUml\Generator</text>
</g>
<g id="clust3" class="cluster">
<title>cluster_2</title>
<polygon fill="lightblue" stroke="black" points="8,-942 8,-1111 1746,-1111 1746,-942 8,-942"/>
<text text-anchor="middle" x="877" y="-1095.8" font-family="Times,serif" font-size="14.00">Bartlett\GraphUml</text>
</g>
<!-- Bartlett\\GraphUml\\Formatter\\HtmlFormatter -->
<g id="node1" class="node">
<title>Bartlett\\GraphUml\\Formatter\\HtmlFormatter</title>
<polygon fill="#eeeeee" stroke="transparent" points="247.5,-312 247.5,-346 718.5,-346 718.5,-312 247.5,-312"/>
<polygon fill="none" stroke="black" points="247.5,-312 247.5,-346 718.5,-346 718.5,-312 247.5,-312"/>
<text text-anchor="start" x="422.5" y="-318.8" font-family="Times,serif" font-weight="bold" font-size="14.00">HtmlFormatter</text>
<polygon fill="none" stroke="black" points="247.5,-306 247.5,-312 718.5,-312 718.5,-306 247.5,-306"/>
<polygon fill="none" stroke="black" points="247.5,-186 247.5,-306 718.5,-306 718.5,-186 247.5,-186"/>
<text text-anchor="start" x="252.5" y="-289.8" font-family="Times,serif" font-size="14.00">+ __construct(options : array)</text>
<text text-anchor="start" x="252.5" y="-270.8" font-family="Times,serif" font-size="14.00">+ getLabelExtension(reflection : ReflectionExtension) : string</text>
<text text-anchor="start" x="252.5" y="-251.8" font-family="Times,serif" font-size="14.00">+ getLabelClass(reflection : ReflectionClass) : string</text>
<text text-anchor="start" x="252.5" y="-232.8" font-family="Times,serif" font-size="14.00">+ getLabelConstants(reflection) : string</text>
<text text-anchor="start" x="252.5" y="-213.8" font-family="Times,serif" font-size="14.00">+ getLabelProperties(reflection : ReflectionClass) : string</text>
<text text-anchor="start" x="252.5" y="-194.8" font-family="Times,serif" font-size="14.00">+ getLabelFunctions(functions : array, class : string = &#39;&#39;) : string</text>
</g>
<!-- Bartlett\\GraphUml\\Formatter\\AbstractFormatter -->
<g id="node2" class="node">
<title>Bartlett\\GraphUml\\Formatter\\AbstractFormatter</title>
<polygon fill="#eeeeee" stroke="transparent" points="1250.5,-105 1250.5,-139 1473.5,-139 1473.5,-105 1250.5,-105"/>
<polygon fill="none" stroke="black" points="1250.5,-105 1250.5,-139 1473.5,-139 1473.5,-105 1250.5,-105"/>
<text text-anchor="start" x="1320" y="-125.8" font-family="Times,serif" font-weight="bold" font-size="14.00">«abstract»</text>
<text text-anchor="start" x="1288.5" y="-111.8" font-family="Times,serif" font-weight="bold" font-size="14.00">AbstractFormatter</text>
<polygon fill="none" stroke="black" points="1250.5,-99 1250.5,-105 1473.5,-105 1473.5,-99 1250.5,-99"/>
<polygon fill="none" stroke="black" points="1250.5,-55 1250.5,-99 1473.5,-99 1473.5,-55 1250.5,-55"/>
<text text-anchor="start" x="1255.5" y="-82.8" font-family="Times,serif" font-size="14.00">+ __construct(options : array)</text>
<text text-anchor="start" x="1255.5" y="-63.8" font-family="Times,serif" font-size="14.00">+ getFormat() : string</text>
</g>
<!-- Bartlett\\GraphUml\\Formatter\\HtmlFormatter&#45;&gt;Bartlett\\GraphUml\\Formatter\\AbstractFormatter -->
<g id="edge1" class="edge">
<title>Bartlett\\GraphUml\\Formatter\\HtmlFormatter&#45;&gt;Bartlett\\GraphUml\\Formatter\\AbstractFormatter</title>
<path fill="none" stroke="black" d="M726.18,-217.44C840.66,-194.56 958.11,-171.15 985,-166 1066.91,-150.31 1159.02,-133.37 1231.51,-120.21"/>
<polygon fill="none" stroke="black" points="1232.4,-123.6 1241.61,-118.37 1231.15,-116.72 1232.4,-123.6"/>
</g>
<!-- Bartlett\\GraphUml\\Formatter\\FormatterInterface -->
<g id="node3" class="node">
<title>Bartlett\\GraphUml\\Formatter\\FormatterInterface</title>
<polygon fill="#eeeeee" stroke="transparent" points="1086.5,-305 1086.5,-339 1637.5,-339 1637.5,-305 1086.5,-305"/>
<polygon fill="none" stroke="black" points="1086.5,-305 1086.5,-339 1637.5,-339 1637.5,-305 1086.5,-305"/>
<text text-anchor="start" x="1317" y="-325.8" font-family="Times,serif" font-weight="bold" font-size="14.00">«interface»</text>
<text text-anchor="start" x="1285.5" y="-311.8" font-family="Times,serif" font-weight="bold" font-size="14.00">FormatterInterface</text>
<polygon fill="none" stroke="black" points="1086.5,-299 1086.5,-305 1637.5,-305 1637.5,-299 1086.5,-299"/>
<polygon fill="none" stroke="black" points="1086.5,-179 1086.5,-299 1637.5,-299 1637.5,-179 1086.5,-179"/>
<text text-anchor="start" x="1091.5" y="-282.8" font-family="Times,serif" font-size="14.00">+ «abstract» getFormat() : string</text>
<text text-anchor="start" x="1091.5" y="-263.8" font-family="Times,serif" font-size="14.00">+ «abstract» getLabelExtension(reflection : ReflectionExtension) : string</text>
<text text-anchor="start" x="1091.5" y="-244.8" font-family="Times,serif" font-size="14.00">+ «abstract» getLabelClass(reflection : ReflectionClass) : string</text>
<text text-anchor="start" x="1091.5" y="-225.8" font-family="Times,serif" font-size="14.00">+ «abstract» getLabelConstants(reflection : mixed) : string</text>
<text text-anchor="start" x="1091.5" y="-206.8" font-family="Times,serif" font-size="14.00">+ «abstract» getLabelProperties(reflection : ReflectionClass) : string</text>
<text text-anchor="start" x="1091.5" y="-187.8" font-family="Times,serif" font-size="14.00">+ «abstract» getLabelFunctions(functions : array, class : string = &#39;&#39;) : string</text>
</g>
<!-- Bartlett\\GraphUml\\Formatter\\HtmlFormatter&#45;&gt;Bartlett\\GraphUml\\Formatter\\FormatterInterface -->
<g id="edge2" class="edge">
<title>Bartlett\\GraphUml\\Formatter\\HtmlFormatter&#45;&gt;Bartlett\\GraphUml\\Formatter\\FormatterInterface</title>
<path fill="none" stroke="black" stroke-dasharray="5,2" d="M726.05,-264.06C831.85,-263.22 956.82,-262.22 1067.74,-261.34"/>
<polygon fill="none" stroke="black" points="1067.77,-264.84 1077.75,-261.26 1067.72,-257.84 1067.77,-264.84"/>
</g>
<!-- Bartlett\\GraphUml\\Formatter\\RecordFormatter -->
<g id="node4" class="node">
<title>Bartlett\\GraphUml\\Formatter\\RecordFormatter</title>
<polygon fill="#eeeeee" stroke="transparent" points="247.5,-126 247.5,-160 718.5,-160 718.5,-126 247.5,-126"/>
<polygon fill="none" stroke="black" points="247.5,-126 247.5,-160 718.5,-160 718.5,-126 247.5,-126"/>
<text text-anchor="start" x="415" y="-132.8" font-family="Times,serif" font-weight="bold" font-size="14.00">RecordFormatter</text>
<polygon fill="none" stroke="black" points="247.5,-120 247.5,-126 718.5,-126 718.5,-120 247.5,-120"/>
<polygon fill="none" stroke="black" points="247.5,-19 247.5,-120 718.5,-120 718.5,-19 247.5,-19"/>
<text text-anchor="start" x="252.5" y="-103.8" font-family="Times,serif" font-size="14.00">+ getLabelExtension(reflection : ReflectionExtension) : string</text>
<text text-anchor="start" x="252.5" y="-84.8" font-family="Times,serif" font-size="14.00">+ getLabelClass(reflection : ReflectionClass) : string</text>
<text text-anchor="start" x="252.5" y="-65.8" font-family="Times,serif" font-size="14.00">+ getLabelConstants(reflection) : string</text>
<text text-anchor="start" x="252.5" y="-46.8" font-family="Times,serif" font-size="14.00">+ getLabelProperties(reflection : ReflectionClass) : string</text>
<text text-anchor="start" x="252.5" y="-27.8" font-family="Times,serif" font-size="14.00">+ getLabelFunctions(functions : array, class : string = &#39;&#39;) : string</text>
</g>
<!-- Bartlett\\GraphUml\\Formatter\\RecordFormatter&#45;&gt;Bartlett\\GraphUml\\Formatter\\AbstractFormatter -->
<g id="edge3" class="edge">
<title>Bartlett\\GraphUml\\Formatter\\RecordFormatter&#45;&gt;Bartlett\\GraphUml\\Formatter\\AbstractFormatter</title>
<path fill="none" stroke="black" d="M726.05,-91.94C889.71,-93.24 1099.23,-94.91 1231.71,-95.97"/>
<polygon fill="none" stroke="black" points="1231.88,-99.47 1241.9,-96.05 1231.93,-92.47 1231.88,-99.47"/>
</g>
<!-- Bartlett\\GraphUml\\Formatter\\RecordFormatter&#45;&gt;Bartlett\\GraphUml\\Formatter\\FormatterInterface -->
<g id="edge4" class="edge">
<title>Bartlett\\GraphUml\\Formatter\\RecordFormatter&#45;&gt;Bartlett\\GraphUml\\Formatter\\FormatterInterface</title>
<path fill="none" stroke="black" stroke-dasharray="5,2" d="M726.26,-131.88C798.06,-144.65 876.77,-159.02 949,-173 987.56,-180.47 1028.09,-188.59 1068.06,-196.77"/>
<polygon fill="none" stroke="black" points="1067.44,-200.22 1077.94,-198.8 1068.84,-193.36 1067.44,-200.22"/>
</g>
<!-- Bartlett\\GraphUml\\Generator\\GraphVizGenerator -->
<g id="node5" class="node">
<title>Bartlett\\GraphUml\\Generator\\GraphVizGenerator</title>
<polygon fill="#eeeeee" stroke="transparent" points="186.5,-696 186.5,-730 778.5,-730 778.5,-696 186.5,-696"/>
<polygon fill="none" stroke="black" points="186.5,-696 186.5,-730 778.5,-730 778.5,-696 186.5,-696"/>
<text text-anchor="start" x="405.5" y="-702.8" font-family="Times,serif" font-weight="bold" font-size="14.00">GraphVizGenerator</text>
<polygon fill="none" stroke="black" points="186.5,-690 186.5,-696 778.5,-696 778.5,-690 186.5,-690"/>
<polygon fill="none" stroke="black" points="186.5,-570 186.5,-690 778.5,-690 778.5,-570 186.5,-570"/>
<text text-anchor="start" x="191.5" y="-673.8" font-family="Times,serif" font-size="14.00">+ __construct(graphViz : Graphp\GraphViz\GraphViz)</text>
<text text-anchor="start" x="191.5" y="-654.8" font-family="Times,serif" font-size="14.00">+ getFormatter() : Bartlett\GraphUml\Formatter\FormatterInterface</text>
<text text-anchor="start" x="191.5" y="-635.8" font-family="Times,serif" font-size="14.00">+ getName() : string</text>
<text text-anchor="start" x="191.5" y="-616.8" font-family="Times,serif" font-size="14.00">+ getPrefix() : string</text>
<text text-anchor="start" x="191.5" y="-597.8" font-family="Times,serif" font-size="14.00">+ createScript(graph : Graphp\Graph\Graph) : string</text>
<text text-anchor="start" x="191.5" y="-578.8" font-family="Times,serif" font-size="14.00">+ createImageFile(graph : Graphp\Graph\Graph, cmdFormat : string = &#39;&#39;) : string</text>
</g>
<!-- Bartlett\\GraphUml\\Generator\\AbstractGenerator -->
<g id="node6" class="node">
<title>Bartlett\\GraphUml\\Generator\\AbstractGenerator</title>
<polygon fill="#eeeeee" stroke="transparent" points="1071.5,-603 1071.5,-637 1652.5,-637 1652.5,-603 1071.5,-603"/>
<polygon fill="none" stroke="black" points="1071.5,-603 1071.5,-637 1652.5,-637 1652.5,-603 1071.5,-603"/>
<text text-anchor="start" x="1320" y="-623.8" font-family="Times,serif" font-weight="bold" font-size="14.00">«abstract»</text>
<text text-anchor="start" x="1288" y="-609.8" font-family="Times,serif" font-weight="bold" font-size="14.00">AbstractGenerator</text>
<polygon fill="none" stroke="black" points="1071.5,-597 1071.5,-603 1652.5,-603 1652.5,-597 1071.5,-597"/>
<polygon fill="none" stroke="black" points="1071.5,-401 1071.5,-597 1652.5,-597 1652.5,-401 1071.5,-401"/>
<text text-anchor="start" x="1076.5" y="-580.8" font-family="Times,serif" font-size="14.00">+ setOptions(values : array) : void</text>
<text text-anchor="start" x="1076.5" y="-561.8" font-family="Times,serif" font-size="14.00">+ «abstract» getFormatter() : Bartlett\GraphUml\Formatter\FormatterInterface</text>
<text text-anchor="start" x="1076.5" y="-542.8" font-family="Times,serif" font-size="14.00">+ «abstract» getName() : string</text>
<text text-anchor="start" x="1076.5" y="-523.8" font-family="Times,serif" font-size="14.00">+ getPrefix() : string</text>
<text text-anchor="start" x="1076.5" y="-504.8" font-family="Times,serif" font-size="14.00">+ getLabelClass(reflection : ReflectionClass) : string</text>
<text text-anchor="start" x="1076.5" y="-485.8" font-family="Times,serif" font-size="14.00">+ getLabelExtension(reflection : ReflectionExtension) : string</text>
<text text-anchor="start" x="1076.5" y="-466.8" font-family="Times,serif" font-size="14.00">+ setExecutable(executable : string) : void</text>
<text text-anchor="start" x="1076.5" y="-447.8" font-family="Times,serif" font-size="14.00">+ setFormat(format : string) : void</text>
<text text-anchor="start" x="1076.5" y="-428.8" font-family="Times,serif" font-size="14.00">+ «abstract» createScript(graph : Graphp\Graph\Graph) : string</text>
<text text-anchor="start" x="1076.5" y="-409.8" font-family="Times,serif" font-size="14.00">+ createImageFile(graph : Graphp\Graph\Graph, cmdFormat : string) : string</text>
</g>
<!-- Bartlett\\GraphUml\\Generator\\GraphVizGenerator&#45;&gt;Bartlett\\GraphUml\\Generator\\AbstractGenerator -->
<g id="edge5" class="edge">
<title>Bartlett\\GraphUml\\Generator\\GraphVizGenerator&#45;&gt;Bartlett\\GraphUml\\Generator\\AbstractGenerator</title>
<path fill="none" stroke="black" d="M786.54,-604.73C872.59,-591.88 966.36,-577.87 1052.69,-564.98"/>
<polygon fill="none" stroke="black" points="1053.26,-568.43 1062.64,-563.49 1052.23,-561.51 1053.26,-568.43"/>
</g>
<!-- Bartlett\\GraphUml\\Generator\\GeneratorInterface -->
<g id="node7" class="node">
<title>Bartlett\\GraphUml\\Generator\\GeneratorInterface</title>
<polygon fill="#eeeeee" stroke="transparent" points="1039.5,-865 1039.5,-899 1683.5,-899 1683.5,-865 1039.5,-865"/>
<polygon fill="none" stroke="black" points="1039.5,-865 1039.5,-899 1683.5,-899 1683.5,-865 1039.5,-865"/>
<text text-anchor="start" x="1316.5" y="-885.8" font-family="Times,serif" font-weight="bold" font-size="14.00">«interface»</text>
<text text-anchor="start" x="1284.5" y="-871.8" font-family="Times,serif" font-weight="bold" font-size="14.00">GeneratorInterface</text>
<polygon fill="none" stroke="black" points="1039.5,-859 1039.5,-865 1683.5,-865 1683.5,-859 1039.5,-859"/>
<polygon fill="none" stroke="black" points="1039.5,-663 1039.5,-859 1683.5,-859 1683.5,-663 1039.5,-663"/>
<text text-anchor="start" x="1044.5" y="-842.8" font-family="Times,serif" font-size="14.00">+ «abstract» setOptions(values : array) : void</text>
<text text-anchor="start" x="1044.5" y="-823.8" font-family="Times,serif" font-size="14.00">+ «abstract» getFormatter() : Bartlett\GraphUml\Formatter\FormatterInterface</text>
<text text-anchor="start" x="1044.5" y="-804.8" font-family="Times,serif" font-size="14.00">+ «abstract» getName() : string</text>
<text text-anchor="start" x="1044.5" y="-785.8" font-family="Times,serif" font-size="14.00">+ «abstract» getPrefix() : string</text>
<text text-anchor="start" x="1044.5" y="-766.8" font-family="Times,serif" font-size="14.00">+ «abstract» getLabelClass(reflection : ReflectionClass) : string</text>
<text text-anchor="start" x="1044.5" y="-747.8" font-family="Times,serif" font-size="14.00">+ «abstract» getLabelExtension(reflection : ReflectionExtension) : string</text>
<text text-anchor="start" x="1044.5" y="-728.8" font-family="Times,serif" font-size="14.00">+ «abstract» setExecutable(executable : string) : void</text>
<text text-anchor="start" x="1044.5" y="-709.8" font-family="Times,serif" font-size="14.00">+ «abstract» setFormat(format : string) : void</text>
<text text-anchor="start" x="1044.5" y="-690.8" font-family="Times,serif" font-size="14.00">+ «abstract» createScript(graph : Graphp\Graph\Graph) : string</text>
<text text-anchor="start" x="1044.5" y="-671.8" font-family="Times,serif" font-size="14.00">+ «abstract» createImageFile(graph : Graphp\Graph\Graph, cmdFormat : string) : string</text>
</g>
<!-- Bartlett\\GraphUml\\Generator\\GraphVizGenerator&#45;&gt;Bartlett\\GraphUml\\Generator\\GeneratorInterface -->
<g id="edge6" class="edge">
<title>Bartlett\\GraphUml\\Generator\\GraphVizGenerator&#45;&gt;Bartlett\\GraphUml\\Generator\\GeneratorInterface</title>
<path fill="none" stroke="black" stroke-dasharray="5,2" d="M786.54,-695.27C862.27,-706.58 943.98,-718.78 1021.33,-730.34"/>
<polygon fill="none" stroke="black" points="1020.83,-733.8 1031.23,-731.82 1021.86,-726.88 1020.83,-733.8"/>
</g>
<!-- Bartlett\\GraphUml\\ClassDiagramBuilder -->
<g id="node8" class="node">
<title>Bartlett\\GraphUml\\ClassDiagramBuilder</title>
<polygon fill="#eeeeee" stroke="transparent" points="24.5,-1042 24.5,-1076 941.5,-1076 941.5,-1042 24.5,-1042"/>
<polygon fill="none" stroke="black" points="24.5,-1042 24.5,-1076 941.5,-1076 941.5,-1042 24.5,-1042"/>
<text text-anchor="start" x="398.5" y="-1048.8" font-family="Times,serif" font-weight="bold" font-size="14.00">ClassDiagramBuilder</text>
<polygon fill="none" stroke="black" points="24.5,-1036 24.5,-1042 941.5,-1042 941.5,-1036 24.5,-1036"/>
<polygon fill="none" stroke="black" points="24.5,-954 24.5,-1036 941.5,-1036 941.5,-954 24.5,-954"/>
<text text-anchor="start" x="29.5" y="-1019.8" font-family="Times,serif" font-size="14.00">+ __construct(generator : Bartlett\GraphUml\Generator\GeneratorInterface, graph : Graphp\Graph\Graph, options : array = [])</text>
<text text-anchor="start" x="29.5" y="-1000.8" font-family="Times,serif" font-size="14.00">+ createVertexClass(class, attributes : array = []) : Graphp\Graph\Vertex</text>
<text text-anchor="start" x="29.5" y="-981.8" font-family="Times,serif" font-size="14.00">+ createVertexExtension(extension, attributes : array = []) : Graphp\Graph\Vertex</text>
<text text-anchor="start" x="29.5" y="-962.8" font-family="Times,serif" font-size="14.00">+ createVerticesFromCallable(callback : callable, vertices : Generator) : void</text>
</g>
<!-- Bartlett\\GraphUml\\ClassDiagramBuilderInterface -->
<g id="node9" class="node">
<title>Bartlett\\GraphUml\\ClassDiagramBuilderInterface</title>
<polygon fill="#eeeeee" stroke="transparent" points="993.5,-1032 993.5,-1066 1730.5,-1066 1730.5,-1032 993.5,-1032"/>
<polygon fill="none" stroke="black" points="993.5,-1032 993.5,-1066 1730.5,-1066 1730.5,-1032 993.5,-1032"/>
<text text-anchor="start" x="1317" y="-1052.8" font-family="Times,serif" font-weight="bold" font-size="14.00">«interface»</text>
<text text-anchor="start" x="1241" y="-1038.8" font-family="Times,serif" font-weight="bold" font-size="14.00">ClassDiagramBuilderInterface</text>
<polygon fill="none" stroke="black" points="993.5,-1026 993.5,-1032 1730.5,-1032 1730.5,-1026 993.5,-1026"/>
<polygon fill="none" stroke="black" points="993.5,-963 993.5,-1026 1730.5,-1026 1730.5,-963 993.5,-963"/>
<text text-anchor="start" x="998.5" y="-1009.8" font-family="Times,serif" font-size="14.00">+ «abstract» createVertexClass(class : mixed, attributes : array = []) : Graphp\Graph\Vertex</text>
<text text-anchor="start" x="998.5" y="-990.8" font-family="Times,serif" font-size="14.00">+ «abstract» createVertexExtension(extension : mixed, attributes : array = []) : Graphp\Graph\Vertex</text>
<text text-anchor="start" x="998.5" y="-971.8" font-family="Times,serif" font-size="14.00">+ «abstract» createVerticesFromCallable(callback : callable, vertices : Generator) : void</text>
</g>
<!-- Bartlett\\GraphUml\\ClassDiagramBuilder&#45;&gt;Bartlett\\GraphUml\\ClassDiagramBuilderInterface -->
<g id="edge7" class="edge">
<title>Bartlett\\GraphUml\\ClassDiagramBuilder&#45;&gt;Bartlett\\GraphUml\\ClassDiagramBuilderInterface</title>
<path fill="none" stroke="black" stroke-dasharray="5,2" d="M949.28,-1015C957.73,-1015 966.17,-1015 974.57,-1015"/>
<polygon fill="none" stroke="black" points="974.82,-1018.5 984.82,-1015 974.82,-1011.5 974.82,-1018.5"/>
</g>
</g>
</svg>
