<?xml version="1.0" encoding="UTF-8" standalone="no"?>
<!DOCTYPE svg PUBLIC "-//W3C//DTD SVG 1.1//EN"
 "http://www.w3.org/Graphics/SVG/1.1/DTD/svg11.dtd">
<!-- Generated by graphviz version 2.43.0 (0)
 -->
<!-- Title: %3 Pages: 1 -->
<svg width="1482pt" height="613pt"
 viewBox="0.00 0.00 1482.00 613.00" xmlns="http://www.w3.org/2000/svg" xmlns:xlink="http://www.w3.org/1999/xlink">
<g id="graph0" class="graph" transform="scale(1 1) rotate(0) translate(4 609)">
<title>%3</title>
<g id="clust1" class="cluster">
<title>cluster_0</title>
<polygon fill="#ffd39b" stroke="black" points="8,-8 8,-597 1466,-597 1466,-8 8,-8"/>
<text text-anchor="middle" x="737" y="-581.8" font-family="Times,serif" font-size="14.00">Bartlett\GraphUml\Formatter</text>
</g>
<!-- Bartlett\\GraphUml\\Formatter\\HtmlFormatter -->
<g id="node1" class="node">
<title>Bartlett\\GraphUml\\Formatter\\HtmlFormatter</title>
<polygon fill="#fecece" stroke="transparent" points="855,-544.5 16,-544.5 16,-351.5 855,-351.5 855,-544.5"/>
<polygon fill="#eeeeee" stroke="transparent" points="24.5,-506 24.5,-540 847.5,-540 847.5,-506 24.5,-506"/>
<polygon fill="none" stroke="black" points="24.5,-506 24.5,-540 847.5,-540 847.5,-506 24.5,-506"/>
<text text-anchor="start" x="375.5" y="-512.8" font-family="Times,serif" font-weight="bold" font-size="14.00">HtmlFormatter</text>
<polygon fill="none" stroke="black" points="24.5,-481 24.5,-506 847.5,-506 847.5,-481 24.5,-481"/>
<text text-anchor="start" x="29.5" y="-489.8" font-family="Times,serif" font-size="14.00">+ «static» DEFAULT_ROW_FORMAT : string = &quot;\ \ \ \ \&lt;tr\&gt;\&lt;td\ align\=\&quot;left\&quot;\&gt;\%s\&lt;\/td\&gt;\&lt;\/tr\&gt;&quot; {readOnly}</text>
<polygon fill="none" stroke="black" points="24.5,-475 24.5,-481 847.5,-481 847.5,-475 24.5,-475"/>
<polygon fill="none" stroke="black" points="24.5,-355 24.5,-475 847.5,-475 847.5,-355 24.5,-355"/>
<text text-anchor="start" x="29.5" y="-458.8" font-family="Times,serif" font-size="14.00">+ __construct(options : array)</text>
<text text-anchor="start" x="29.5" y="-439.8" font-family="Times,serif" font-size="14.00">+ getLabelExtension(reflection : ReflectionExtension) : string</text>
<text text-anchor="start" x="29.5" y="-420.8" font-family="Times,serif" font-size="14.00">+ getLabelClass(reflection : ReflectionClass) : string</text>
<text text-anchor="start" x="29.5" y="-401.8" font-family="Times,serif" font-size="14.00">+ getLabelConstants(reflection) : string</text>
<text text-anchor="start" x="29.5" y="-382.8" font-family="Times,serif" font-size="14.00">+ getLabelProperties(reflection : ReflectionClass) : string</text>
<text text-anchor="start" x="29.5" y="-363.8" font-family="Times,serif" font-size="14.00">+ getLabelFunctions(functions : array, class : string = &#39;&#39;) : string</text>
</g>
<!-- Bartlett\\GraphUml\\Formatter\\AbstractFormatter -->
<g id="node2" class="node">
<title>Bartlett\\GraphUml\\Formatter\\AbstractFormatter</title>
<polygon fill="#fecece" stroke="transparent" points="1441.5,-380 907.5,-380 907.5,-16 1441.5,-16 1441.5,-380"/>
<polygon fill="#eeeeee" stroke="transparent" points="915.5,-342 915.5,-376 1433.5,-376 1433.5,-342 915.5,-342"/>
<polygon fill="none" stroke="black" points="915.5,-342 915.5,-376 1433.5,-376 1433.5,-342 915.5,-342"/>
<text text-anchor="start" x="1132.5" y="-362.8" font-family="Times,serif" font-weight="bold" font-size="14.00">«abstract»</text>
<text text-anchor="start" x="1101" y="-348.8" font-family="Times,serif" font-weight="bold" font-size="14.00">AbstractFormatter</text>
<polygon fill="none" stroke="black" points="915.5,-317 915.5,-342 1433.5,-342 1433.5,-317 915.5,-317"/>
<text text-anchor="start" x="920.5" y="-325.8" font-family="Times,serif" font-size="14.00">+ «static» EOL : string = &quot;\n&quot; {readOnly}</text>
<polygon fill="none" stroke="black" points="915.5,-292 915.5,-317 1433.5,-317 1433.5,-292 915.5,-292"/>
<text text-anchor="start" x="920.5" y="-300.8" font-family="Times,serif" font-size="14.00"># options : mixed</text>
<polygon fill="none" stroke="black" points="915.5,-20 915.5,-292 1433.5,-292 1433.5,-20 915.5,-20"/>
<text text-anchor="start" x="920.5" y="-275.8" font-family="Times,serif" font-size="14.00">+ __construct(options : array)</text>
<text text-anchor="start" x="920.5" y="-256.8" font-family="Times,serif" font-size="14.00">+ getFormat() : string</text>
<text text-anchor="start" x="920.5" y="-237.8" font-family="Times,serif" font-size="14.00"># getStereotype(reflection : ReflectionClass) : string</text>
<text text-anchor="start" x="920.5" y="-218.8" font-family="Times,serif" font-size="14.00"># isVisible(reflection : Reflector) : bool</text>
<text text-anchor="start" x="920.5" y="-199.8" font-family="Times,serif" font-size="14.00"># getDocBlock(ref : mixed) : ?string</text>
<text text-anchor="start" x="920.5" y="-180.8" font-family="Times,serif" font-size="14.00"># getDocBlockVar(ref : ReflectionProperty) : ?string</text>
<text text-anchor="start" x="920.5" y="-161.8" font-family="Times,serif" font-size="14.00"># getParameterType(parameter : ReflectionParameter) : ?string</text>
<text text-anchor="start" x="920.5" y="-142.8" font-family="Times,serif" font-size="14.00"># getParameterDefaultValue(parameter : ReflectionParameter) : string</text>
<text text-anchor="start" x="920.5" y="-123.8" font-family="Times,serif" font-size="14.00"># getDocBlockMulti(ref : mixed, what : string) : array</text>
<text text-anchor="start" x="920.5" y="-104.8" font-family="Times,serif" font-size="14.00"># getDocBlockSingle(ref : ReflectionProperty, what : string) : ?string</text>
<text text-anchor="start" x="920.5" y="-85.8" font-family="Times,serif" font-size="14.00"># getType(ret : string) : ?string</text>
<text text-anchor="start" x="920.5" y="-66.8" font-family="Times,serif" font-size="14.00"># getCasted(value : mixed, quoted : string = &#39;\&quot;&#39;) : string</text>
<text text-anchor="start" x="920.5" y="-47.8" font-family="Times,serif" font-size="14.00"># visibility(reflection : Reflector) : string</text>
<text text-anchor="start" x="920.5" y="-28.8" font-family="Times,serif" font-size="14.00"># escape(id : string) : string</text>
</g>
<!-- Bartlett\\GraphUml\\Formatter\\HtmlFormatter&#45;&gt;Bartlett\\GraphUml\\Formatter\\AbstractFormatter -->
<g id="edge1" class="edge">
<title>Bartlett\\GraphUml\\Formatter\\HtmlFormatter&#45;&gt;Bartlett\\GraphUml\\Formatter\\AbstractFormatter</title>
<path fill="none" stroke="black" d="M721.18,-351.43C779.13,-331.77 840.01,-311.12 897.65,-291.57"/>
<polygon fill="none" stroke="black" points="898.9,-294.84 907.25,-288.32 896.65,-288.21 898.9,-294.84"/>
</g>
<!-- Bartlett\\GraphUml\\Formatter\\FormatterInterface -->
<g id="node3" class="node">
<title>Bartlett\\GraphUml\\Formatter\\FormatterInterface</title>
<polygon fill="#cdaa7d" stroke="transparent" points="1458,-566 891,-566 891,-398 1458,-398 1458,-566"/>
<polygon fill="#eeeeee" stroke="transparent" points="899.5,-528 899.5,-562 1450.5,-562 1450.5,-528 899.5,-528"/>
<polygon fill="none" stroke="black" points="899.5,-528 899.5,-562 1450.5,-562 1450.5,-528 899.5,-528"/>
<text text-anchor="start" x="1130" y="-548.8" font-family="Times,serif" font-weight="bold" font-size="14.00">«interface»</text>
<text text-anchor="start" x="1098.5" y="-534.8" font-family="Times,serif" font-weight="bold" font-size="14.00">FormatterInterface</text>
<polygon fill="none" stroke="black" points="899.5,-522 899.5,-528 1450.5,-528 1450.5,-522 899.5,-522"/>
<polygon fill="none" stroke="black" points="899.5,-402 899.5,-522 1450.5,-522 1450.5,-402 899.5,-402"/>
<text text-anchor="start" x="904.5" y="-505.8" font-family="Times,serif" font-size="14.00">+ «abstract» getFormat() : string</text>
<text text-anchor="start" x="904.5" y="-486.8" font-family="Times,serif" font-size="14.00">+ «abstract» getLabelExtension(reflection : ReflectionExtension) : string</text>
<text text-anchor="start" x="904.5" y="-467.8" font-family="Times,serif" font-size="14.00">+ «abstract» getLabelClass(reflection : ReflectionClass) : string</text>
<text text-anchor="start" x="904.5" y="-448.8" font-family="Times,serif" font-size="14.00">+ «abstract» getLabelConstants(reflection : mixed) : string</text>
<text text-anchor="start" x="904.5" y="-429.8" font-family="Times,serif" font-size="14.00">+ «abstract» getLabelProperties(reflection : ReflectionClass) : string</text>
<text text-anchor="start" x="904.5" y="-410.8" font-family="Times,serif" font-size="14.00">+ «abstract» getLabelFunctions(functions : array, class : string = &#39;&#39;) : string</text>
</g>
<!-- Bartlett\\GraphUml\\Formatter\\HtmlFormatter&#45;&gt;Bartlett\\GraphUml\\Formatter\\FormatterInterface -->
<g id="edge2" class="edge">
<title>Bartlett\\GraphUml\\Formatter\\HtmlFormatter&#45;&gt;Bartlett\\GraphUml\\Formatter\\FormatterInterface</title>
<path fill="none" stroke="black" stroke-dasharray="5,2" d="M855.06,-467.31C863.69,-467.71 872.28,-468.1 880.82,-468.5"/>
<polygon fill="none" stroke="black" points="880.66,-471.99 890.81,-468.96 880.98,-465 880.66,-471.99"/>
</g>
<!-- Bartlett\\GraphUml\\Formatter\\RecordFormatter -->
<g id="node4" class="node">
<title>Bartlett\\GraphUml\\Formatter\\RecordFormatter</title>
<polygon fill="#fecece" stroke="transparent" points="679,-292.5 192,-292.5 192,-143.5 679,-143.5 679,-292.5"/>
<polygon fill="#eeeeee" stroke="transparent" points="200.5,-254 200.5,-288 671.5,-288 671.5,-254 200.5,-254"/>
<polygon fill="none" stroke="black" points="200.5,-254 200.5,-288 671.5,-288 671.5,-254 200.5,-254"/>
<text text-anchor="start" x="368" y="-260.8" font-family="Times,serif" font-weight="bold" font-size="14.00">RecordFormatter</text>
<polygon fill="none" stroke="black" points="200.5,-248 200.5,-254 671.5,-254 671.5,-248 200.5,-248"/>
<polygon fill="none" stroke="black" points="200.5,-147 200.5,-248 671.5,-248 671.5,-147 200.5,-147"/>
<text text-anchor="start" x="205.5" y="-231.8" font-family="Times,serif" font-size="14.00">+ getLabelExtension(reflection : ReflectionExtension) : string</text>
<text text-anchor="start" x="205.5" y="-212.8" font-family="Times,serif" font-size="14.00">+ getLabelClass(reflection : ReflectionClass) : string</text>
<text text-anchor="start" x="205.5" y="-193.8" font-family="Times,serif" font-size="14.00">+ getLabelConstants(reflection) : string</text>
<text text-anchor="start" x="205.5" y="-174.8" font-family="Times,serif" font-size="14.00">+ getLabelProperties(reflection : ReflectionClass) : string</text>
<text text-anchor="start" x="205.5" y="-155.8" font-family="Times,serif" font-size="14.00">+ getLabelFunctions(functions : array, class : string = &#39;&#39;) : string</text>
</g>
<!-- Bartlett\\GraphUml\\Formatter\\RecordFormatter&#45;&gt;Bartlett\\GraphUml\\Formatter\\AbstractFormatter -->
<g id="edge3" class="edge">
<title>Bartlett\\GraphUml\\Formatter\\RecordFormatter&#45;&gt;Bartlett\\GraphUml\\Formatter\\AbstractFormatter</title>
<path fill="none" stroke="black" d="M679.1,-211.42C748.91,-209.52 825.57,-207.44 897.26,-205.5"/>
<polygon fill="none" stroke="black" points="897.44,-208.99 907.34,-205.22 897.25,-202 897.44,-208.99"/>
</g>
<!-- Bartlett\\GraphUml\\Formatter\\RecordFormatter&#45;&gt;Bartlett\\GraphUml\\Formatter\\FormatterInterface -->
<g id="edge4" class="edge">
<title>Bartlett\\GraphUml\\Formatter\\RecordFormatter&#45;&gt;Bartlett\\GraphUml\\Formatter\\FormatterInterface</title>
<path fill="none" stroke="black" stroke-dasharray="5,2" d="M679.22,-263.19C739.98,-281.63 802.69,-307.33 855,-343 876.45,-357.63 869.76,-374.08 891,-389 892.62,-390.14 894.26,-391.27 895.92,-392.38"/>
<polygon fill="none" stroke="black" points="894.01,-395.32 904.3,-397.85 897.83,-389.45 894.01,-395.32"/>
</g>
</g>
</svg>
