<?xml version="1.0" encoding="UTF-8" standalone="no"?>
<!DOCTYPE svg PUBLIC "-//W3C//DTD SVG 1.1//EN"
 "http://www.w3.org/Graphics/SVG/1.1/DTD/svg11.dtd">
<!-- Generated by graphviz version 2.43.0 (0)
 -->
<!-- Title: %3 Pages: 1 -->
<svg width="1344pt" height="569pt"
 viewBox="0.00 0.00 1344.00 569.00" xmlns="http://www.w3.org/2000/svg" xmlns:xlink="http://www.w3.org/1999/xlink">
<g id="graph0" class="graph" transform="scale(1 1) rotate(0) translate(4 565)">
<title>%3</title>
<g id="clust1" class="cluster">
<title>cluster_0</title>
<polygon fill="#ffd39b" stroke="black" points="8,-8 8,-553 1328,-553 1328,-8 8,-8"/>
<text text-anchor="middle" x="668" y="-537.8" font-family="Times,serif" font-size="14.00">Bartlett\GraphUml\Generator</text>
</g>
<!-- Bartlett\\GraphUml\\Generator\\GraphVizGenerator -->
<g id="node1" class="node">
<title>Bartlett\\GraphUml\\Generator\\GraphVizGenerator</title>
<polygon fill="#fecece" stroke="transparent" points="624,-353 16,-353 16,-185 624,-185 624,-353"/>
<polygon fill="#eeeeee" stroke="transparent" points="24,-315 24,-349 616,-349 616,-315 24,-315"/>
<polygon fill="none" stroke="black" points="24,-315 24,-349 616,-349 616,-315 24,-315"/>
<text text-anchor="start" x="243" y="-321.8" font-family="Times,serif" font-weight="bold" font-size="14.00">GraphVizGenerator</text>
<polygon fill="none" stroke="black" points="24,-309 24,-315 616,-315 616,-309 24,-309"/>
<polygon fill="none" stroke="black" points="24,-189 24,-309 616,-309 616,-189 24,-189"/>
<text text-anchor="start" x="29" y="-292.8" font-family="Times,serif" font-size="14.00">+ __construct(graphViz : Graphp\GraphViz\GraphViz)</text>
<text text-anchor="start" x="29" y="-273.8" font-family="Times,serif" font-size="14.00">+ getFormatter() : Bartlett\GraphUml\Formatter\FormatterInterface</text>
<text text-anchor="start" x="29" y="-254.8" font-family="Times,serif" font-size="14.00">+ getName() : string</text>
<text text-anchor="start" x="29" y="-235.8" font-family="Times,serif" font-size="14.00">+ getPrefix() : string</text>
<text text-anchor="start" x="29" y="-216.8" font-family="Times,serif" font-size="14.00">+ createScript(graph : Graphp\Graph\Graph) : string</text>
<text text-anchor="start" x="29" y="-197.8" font-family="Times,serif" font-size="14.00">+ createImageFile(graph : Graphp\Graph\Graph, cmdFormat : string = &#39;&#39;) : string</text>
</g>
<!-- Bartlett\\GraphUml\\Generator\\AbstractGenerator -->
<g id="node2" class="node">
<title>Bartlett\\GraphUml\\Generator\\AbstractGenerator</title>
<polygon fill="#fecece" stroke="transparent" points="1288.5,-260 691.5,-260 691.5,-16 1288.5,-16 1288.5,-260"/>
<polygon fill="#eeeeee" stroke="transparent" points="700,-222 700,-256 1281,-256 1281,-222 700,-222"/>
<polygon fill="none" stroke="black" points="700,-222 700,-256 1281,-256 1281,-222 700,-222"/>
<text text-anchor="start" x="948.5" y="-242.8" font-family="Times,serif" font-weight="bold" font-size="14.00">«abstract»</text>
<text text-anchor="start" x="916.5" y="-228.8" font-family="Times,serif" font-weight="bold" font-size="14.00">AbstractGenerator</text>
<polygon fill="none" stroke="black" points="700,-216 700,-222 1281,-222 1281,-216 700,-216"/>
<polygon fill="none" stroke="black" points="700,-20 700,-216 1281,-216 1281,-20 700,-20"/>
<text text-anchor="start" x="705" y="-199.8" font-family="Times,serif" font-size="14.00">+ setOptions(values : array) : void</text>
<text text-anchor="start" x="705" y="-180.8" font-family="Times,serif" font-size="14.00">+ «abstract» getFormatter() : Bartlett\GraphUml\Formatter\FormatterInterface</text>
<text text-anchor="start" x="705" y="-161.8" font-family="Times,serif" font-size="14.00">+ «abstract» getName() : string</text>
<text text-anchor="start" x="705" y="-142.8" font-family="Times,serif" font-size="14.00">+ getPrefix() : string</text>
<text text-anchor="start" x="705" y="-123.8" font-family="Times,serif" font-size="14.00">+ getLabelClass(reflection : ReflectionClass) : string</text>
<text text-anchor="start" x="705" y="-104.8" font-family="Times,serif" font-size="14.00">+ getLabelExtension(reflection : ReflectionExtension) : string</text>
<text text-anchor="start" x="705" y="-85.8" font-family="Times,serif" font-size="14.00">+ setExecutable(executable : string) : void</text>
<text text-anchor="start" x="705" y="-66.8" font-family="Times,serif" font-size="14.00">+ setFormat(format : string) : void</text>
<text text-anchor="start" x="705" y="-47.8" font-family="Times,serif" font-size="14.00">+ «abstract» createScript(graph : Graphp\Graph\Graph) : string</text>
<text text-anchor="start" x="705" y="-28.8" font-family="Times,serif" font-size="14.00">+ createImageFile(graph : Graphp\Graph\Graph, cmdFormat : string) : string</text>
</g>
<!-- Bartlett\\GraphUml\\Generator\\GraphVizGenerator&#45;&gt;Bartlett\\GraphUml\\Generator\\AbstractGenerator -->
<g id="edge1" class="edge">
<title>Bartlett\\GraphUml\\Generator\\GraphVizGenerator&#45;&gt;Bartlett\\GraphUml\\Generator\\AbstractGenerator</title>
<path fill="none" stroke="black" d="M624.22,-209.54C643.23,-205.81 662.39,-202.05 681.43,-198.32"/>
<polygon fill="none" stroke="black" points="682.23,-201.73 691.37,-196.37 680.88,-194.86 682.23,-201.73"/>
</g>
<!-- Bartlett\\GraphUml\\Generator\\GeneratorInterface -->
<g id="node3" class="node">
<title>Bartlett\\GraphUml\\Generator\\GeneratorInterface</title>
<polygon fill="#cdaa7d" stroke="transparent" points="1320,-522 660,-522 660,-278 1320,-278 1320,-522"/>
<polygon fill="#eeeeee" stroke="transparent" points="668,-484 668,-518 1312,-518 1312,-484 668,-484"/>
<polygon fill="none" stroke="black" points="668,-484 668,-518 1312,-518 1312,-484 668,-484"/>
<text text-anchor="start" x="945" y="-504.8" font-family="Times,serif" font-weight="bold" font-size="14.00">«interface»</text>
<text text-anchor="start" x="913" y="-490.8" font-family="Times,serif" font-weight="bold" font-size="14.00">GeneratorInterface</text>
<polygon fill="none" stroke="black" points="668,-478 668,-484 1312,-484 1312,-478 668,-478"/>
<polygon fill="none" stroke="black" points="668,-282 668,-478 1312,-478 1312,-282 668,-282"/>
<text text-anchor="start" x="673" y="-461.8" font-family="Times,serif" font-size="14.00">+ «abstract» setOptions(values : array) : void</text>
<text text-anchor="start" x="673" y="-442.8" font-family="Times,serif" font-size="14.00">+ «abstract» getFormatter() : Bartlett\GraphUml\Formatter\FormatterInterface</text>
<text text-anchor="start" x="673" y="-423.8" font-family="Times,serif" font-size="14.00">+ «abstract» getName() : string</text>
<text text-anchor="start" x="673" y="-404.8" font-family="Times,serif" font-size="14.00">+ «abstract» getPrefix() : string</text>
<text text-anchor="start" x="673" y="-385.8" font-family="Times,serif" font-size="14.00">+ «abstract» getLabelClass(reflection : ReflectionClass) : string</text>
<text text-anchor="start" x="673" y="-366.8" font-family="Times,serif" font-size="14.00">+ «abstract» getLabelExtension(reflection : ReflectionExtension) : string</text>
<text text-anchor="start" x="673" y="-347.8" font-family="Times,serif" font-size="14.00">+ «abstract» setExecutable(executable : string) : void</text>
<text text-anchor="start" x="673" y="-328.8" font-family="Times,serif" font-size="14.00">+ «abstract» setFormat(format : string) : void</text>
<text text-anchor="start" x="673" y="-309.8" font-family="Times,serif" font-size="14.00">+ «abstract» createScript(graph : Graphp\Graph\Graph) : string</text>
<text text-anchor="start" x="673" y="-290.8" font-family="Times,serif" font-size="14.00">+ «abstract» createImageFile(graph : Graphp\Graph\Graph, cmdFormat : string) : string</text>
</g>
<!-- Bartlett\\GraphUml\\Generator\\GraphVizGenerator&#45;&gt;Bartlett\\GraphUml\\Generator\\GeneratorInterface -->
<g id="edge2" class="edge">
<title>Bartlett\\GraphUml\\Generator\\GraphVizGenerator&#45;&gt;Bartlett\\GraphUml\\Generator\\GeneratorInterface</title>
<path fill="none" stroke="black" stroke-dasharray="5,2" d="M624.22,-328.46C632.71,-330.13 641.22,-331.8 649.75,-333.47"/>
<polygon fill="none" stroke="black" points="649.27,-336.94 659.75,-335.43 650.61,-330.07 649.27,-336.94"/>
</g>
</g>
</svg>
