<?xml version="1.0" encoding="UTF-8" standalone="no"?>
<!DOCTYPE svg PUBLIC "-//W3C//DTD SVG 1.1//EN"
 "http://www.w3.org/Graphics/SVG/1.1/DTD/svg11.dtd">
<!-- Generated by graphviz version 2.43.0 (0)
 -->
<!-- Title: %3 Pages: 1 -->
<svg width="1344pt" height="708pt"
 viewBox="0.00 0.00 1344.00 708.00" xmlns="http://www.w3.org/2000/svg" xmlns:xlink="http://www.w3.org/1999/xlink">
<g id="graph0" class="graph" transform="scale(1 1) rotate(0) translate(4 704)">
<title>%3</title>
<g id="clust1" class="cluster">
<title>cluster_0</title>
<polygon fill="#ffd39b" stroke="black" points="8,-8 8,-692 1328,-692 1328,-8 8,-8"/>
<text text-anchor="middle" x="668" y="-676.8" font-family="Times,serif" font-size="14.00">Bartlett\GraphUml\Generator</text>
</g>
<!-- Bartlett\\GraphUml\\Generator\\GraphVizGenerator -->
<g id="node1" class="node">
<title>Bartlett\\GraphUml\\Generator\\GraphVizGenerator</title>
<polygon fill="#fecece" stroke="transparent" points="624,-466.5 16,-466.5 16,-279.5 624,-279.5 624,-466.5"/>
<polygon fill="#eeeeee" stroke="transparent" points="24,-428 24,-462 616,-462 616,-428 24,-428"/>
<polygon fill="none" stroke="black" points="24,-428 24,-462 616,-462 616,-428 24,-428"/>
<text text-anchor="start" x="243" y="-434.8" font-family="Times,serif" font-weight="bold" font-size="14.00">GraphVizGenerator</text>
<polygon fill="none" stroke="black" points="24,-403 24,-428 616,-428 616,-403 24,-403"/>
<text text-anchor="start" x="29" y="-411.8" font-family="Times,serif" font-size="14.00">– graphViz</text>
<polygon fill="none" stroke="black" points="24,-283 24,-403 616,-403 616,-283 24,-283"/>
<text text-anchor="start" x="29" y="-386.8" font-family="Times,serif" font-size="14.00">+ __construct(graphViz : Graphp\GraphViz\GraphViz)</text>
<text text-anchor="start" x="29" y="-367.8" font-family="Times,serif" font-size="14.00">+ getFormatter() : Bartlett\GraphUml\Formatter\FormatterInterface</text>
<text text-anchor="start" x="29" y="-348.8" font-family="Times,serif" font-size="14.00">+ getName() : string</text>
<text text-anchor="start" x="29" y="-329.8" font-family="Times,serif" font-size="14.00">+ getPrefix() : string</text>
<text text-anchor="start" x="29" y="-310.8" font-family="Times,serif" font-size="14.00">+ createScript(graph : Graphp\Graph\Graph) : string</text>
<text text-anchor="start" x="29" y="-291.8" font-family="Times,serif" font-size="14.00">+ createImageFile(graph : Graphp\Graph\Graph, cmdFormat : string = &#39;&#39;) : string</text>
</g>
<!-- Bartlett\\GraphUml\\Generator\\AbstractGenerator -->
<g id="node2" class="node">
<title>Bartlett\\GraphUml\\Generator\\AbstractGenerator</title>
<polygon fill="#fecece" stroke="transparent" points="1288.5,-398.5 691.5,-398.5 691.5,-15.5 1288.5,-15.5 1288.5,-398.5"/>
<polygon fill="#eeeeee" stroke="transparent" points="700,-360 700,-394 1281,-394 1281,-360 700,-360"/>
<polygon fill="none" stroke="black" points="700,-360 700,-394 1281,-394 1281,-360 700,-360"/>
<text text-anchor="start" x="948.5" y="-380.8" font-family="Times,serif" font-weight="bold" font-size="14.00">«abstract»</text>
<text text-anchor="start" x="916.5" y="-366.8" font-family="Times,serif" font-weight="bold" font-size="14.00">AbstractGenerator</text>
<polygon fill="none" stroke="black" points="700,-278 700,-360 1281,-360 1281,-278 700,-278"/>
<text text-anchor="start" x="705" y="-343.8" font-family="Times,serif" font-size="14.00">+ «static» CMD_EXECUTABLE : string = &quot;\%E&quot; {readOnly}</text>
<text text-anchor="start" x="705" y="-324.8" font-family="Times,serif" font-size="14.00">+ «static» CMD_FORMAT : string = &quot;\%F&quot; {readOnly}</text>
<text text-anchor="start" x="705" y="-305.8" font-family="Times,serif" font-size="14.00">+ «static» CMD_OUTPUT_FILE : string = &quot;\%o&quot; {readOnly}</text>
<text text-anchor="start" x="705" y="-286.8" font-family="Times,serif" font-size="14.00">+ «static» CMD_TEMP_FILE : string = &quot;\%t&quot; {readOnly}</text>
<polygon fill="none" stroke="black" points="700,-215 700,-278 1281,-278 1281,-215 700,-215"/>
<text text-anchor="start" x="705" y="-261.8" font-family="Times,serif" font-size="14.00"># options : mixed</text>
<text text-anchor="start" x="705" y="-242.8" font-family="Times,serif" font-size="14.00">– executable : string</text>
<text text-anchor="start" x="705" y="-223.8" font-family="Times,serif" font-size="14.00">– format : string</text>
<polygon fill="none" stroke="black" points="700,-19 700,-215 1281,-215 1281,-19 700,-19"/>
<text text-anchor="start" x="705" y="-198.8" font-family="Times,serif" font-size="14.00">+ setOptions(values : array) : void</text>
<text text-anchor="start" x="705" y="-179.8" font-family="Times,serif" font-size="14.00">+ «abstract» getFormatter() : Bartlett\GraphUml\Formatter\FormatterInterface</text>
<text text-anchor="start" x="705" y="-160.8" font-family="Times,serif" font-size="14.00">+ «abstract» getName() : string</text>
<text text-anchor="start" x="705" y="-141.8" font-family="Times,serif" font-size="14.00">+ getPrefix() : string</text>
<text text-anchor="start" x="705" y="-122.8" font-family="Times,serif" font-size="14.00">+ getLabelClass(reflection : ReflectionClass) : string</text>
<text text-anchor="start" x="705" y="-103.8" font-family="Times,serif" font-size="14.00">+ getLabelExtension(reflection : ReflectionExtension) : string</text>
<text text-anchor="start" x="705" y="-84.8" font-family="Times,serif" font-size="14.00">+ setExecutable(executable : string) : void</text>
<text text-anchor="start" x="705" y="-65.8" font-family="Times,serif" font-size="14.00">+ setFormat(format : string) : void</text>
<text text-anchor="start" x="705" y="-46.8" font-family="Times,serif" font-size="14.00">+ «abstract» createScript(graph : Graphp\Graph\Graph) : string</text>
<text text-anchor="start" x="705" y="-27.8" font-family="Times,serif" font-size="14.00">+ createImageFile(graph : Graphp\Graph\Graph, cmdFormat : string) : string</text>
</g>
<!-- Bartlett\\GraphUml\\Generator\\GraphVizGenerator&#45;&gt;Bartlett\\GraphUml\\Generator\\AbstractGenerator -->
<g id="edge1" class="edge">
<title>Bartlett\\GraphUml\\Generator\\GraphVizGenerator&#45;&gt;Bartlett\\GraphUml\\Generator\\AbstractGenerator</title>
<path fill="none" stroke="black" d="M624.22,-297.65C643.23,-292.92 662.39,-288.16 681.43,-283.43"/>
<polygon fill="none" stroke="black" points="682.51,-286.77 691.37,-280.96 680.82,-279.98 682.51,-286.77"/>
</g>
<!-- Bartlett\\GraphUml\\Generator\\GeneratorInterface -->
<g id="node3" class="node">
<title>Bartlett\\GraphUml\\Generator\\GeneratorInterface</title>
<polygon fill="#cdaa7d" stroke="transparent" points="1320,-661 660,-661 660,-417 1320,-417 1320,-661"/>
<polygon fill="#eeeeee" stroke="transparent" points="668,-623 668,-657 1312,-657 1312,-623 668,-623"/>
<polygon fill="none" stroke="black" points="668,-623 668,-657 1312,-657 1312,-623 668,-623"/>
<text text-anchor="start" x="945" y="-643.8" font-family="Times,serif" font-weight="bold" font-size="14.00">«interface»</text>
<text text-anchor="start" x="913" y="-629.8" font-family="Times,serif" font-weight="bold" font-size="14.00">GeneratorInterface</text>
<polygon fill="none" stroke="black" points="668,-617 668,-623 1312,-623 1312,-617 668,-617"/>
<polygon fill="none" stroke="black" points="668,-421 668,-617 1312,-617 1312,-421 668,-421"/>
<text text-anchor="start" x="673" y="-600.8" font-family="Times,serif" font-size="14.00">+ «abstract» setOptions(values : array) : void</text>
<text text-anchor="start" x="673" y="-581.8" font-family="Times,serif" font-size="14.00">+ «abstract» getFormatter() : Bartlett\GraphUml\Formatter\FormatterInterface</text>
<text text-anchor="start" x="673" y="-562.8" font-family="Times,serif" font-size="14.00">+ «abstract» getName() : string</text>
<text text-anchor="start" x="673" y="-543.8" font-family="Times,serif" font-size="14.00">+ «abstract» getPrefix() : string</text>
<text text-anchor="start" x="673" y="-524.8" font-family="Times,serif" font-size="14.00">+ «abstract» getLabelClass(reflection : ReflectionClass) : string</text>
<text text-anchor="start" x="673" y="-505.8" font-family="Times,serif" font-size="14.00">+ «abstract» getLabelExtension(reflection : ReflectionExtension) : string</text>
<text text-anchor="start" x="673" y="-486.8" font-family="Times,serif" font-size="14.00">+ «abstract» setExecutable(executable : string) : void</text>
<text text-anchor="start" x="673" y="-467.8" font-family="Times,serif" font-size="14.00">+ «abstract» setFormat(format : string) : void</text>
<text text-anchor="start" x="673" y="-448.8" font-family="Times,serif" font-size="14.00">+ «abstract» createScript(graph : Graphp\Graph\Graph) : string</text>
<text text-anchor="start" x="673" y="-429.8" font-family="Times,serif" font-size="14.00">+ «abstract» createImageFile(graph : Graphp\Graph\Graph, cmdFormat : string) : string</text>
</g>
<!-- Bartlett\\GraphUml\\Generator\\GraphVizGenerator&#45;&gt;Bartlett\\GraphUml\\Generator\\GeneratorInterface -->
<g id="edge2" class="edge">
<title>Bartlett\\GraphUml\\Generator\\GraphVizGenerator&#45;&gt;Bartlett\\GraphUml\\Generator\\GeneratorInterface</title>
<path fill="none" stroke="black" stroke-dasharray="5,2" d="M624.22,-448.35C632.8,-450.48 641.41,-452.62 650.03,-454.76"/>
<polygon fill="none" stroke="black" points="649.2,-458.17 659.75,-457.18 650.89,-451.37 649.2,-458.17"/>
</g>
</g>
</svg>
