<?xml version="1.0" encoding="UTF-8" standalone="no"?>
<!DOCTYPE svg PUBLIC "-//W3C//DTD SVG 1.1//EN"
 "http://www.w3.org/Graphics/SVG/1.1/DTD/svg11.dtd">
<!-- Generated by graphviz version 2.43.0 (0)
 -->
<!-- Title: %3 Pages: 1 -->
<svg width="1762pt" height="1005pt"
 viewBox="0.00 0.00 1762.00 1005.00" xmlns="http://www.w3.org/2000/svg" xmlns:xlink="http://www.w3.org/1999/xlink">
<g id="graph0" class="graph" transform="scale(1 1) rotate(0) translate(4 1001)">
<title>%3</title>
<g id="clust1" class="cluster">
<title>cluster_0</title>
<polygon fill="#cdaa7d" stroke="black" points="8,-8 8,-297 1746,-297 1746,-8 8,-8"/>
<text text-anchor="middle" x="877" y="-281.8" font-family="Times,serif" font-size="14.00">Bartlett\GraphUml</text>
</g>
<g id="clust2" class="cluster">
<title>cluster_1</title>
<polygon fill="#cdaa7d" stroke="black" points="170.5,-305 170.5,-989 1699.5,-989 1699.5,-305 170.5,-305"/>
<text text-anchor="middle" x="935" y="-973.8" font-family="Times,serif" font-size="14.00">Bartlett\GraphUml\Generator</text>
</g>
<!-- Bartlett\\GraphUml\\ClassDiagramBuilder -->
<g id="node1" class="node">
<title>Bartlett\\GraphUml\\ClassDiagramBuilder</title>
<polygon fill="#fecece" stroke="transparent" points="949,-266 16,-266 16,-16 949,-16 949,-266"/>
<polygon fill="#eeeeee" stroke="transparent" points="24.5,-228 24.5,-262 941.5,-262 941.5,-228 24.5,-228"/>
<polygon fill="none" stroke="black" points="24.5,-228 24.5,-262 941.5,-262 941.5,-228 24.5,-228"/>
<text text-anchor="start" x="398.5" y="-234.8" font-family="Times,serif" font-weight="bold" font-size="14.00">ClassDiagramBuilder</text>
<polygon fill="none" stroke="black" points="24.5,-203 24.5,-228 941.5,-228 941.5,-203 24.5,-203"/>
<text text-anchor="start" x="29.5" y="-211.8" font-family="Times,serif" font-size="14.00">+ «static» OPTIONS_DEFAULTS : array = […] {readOnly}</text>
<polygon fill="none" stroke="black" points="24.5,-121 24.5,-203 941.5,-203 941.5,-121 24.5,-121"/>
<text text-anchor="start" x="29.5" y="-186.8" font-family="Times,serif" font-size="14.00">– graph</text>
<text text-anchor="start" x="29.5" y="-167.8" font-family="Times,serif" font-size="14.00">– options : mixed</text>
<text text-anchor="start" x="29.5" y="-148.8" font-family="Times,serif" font-size="14.00">– generator</text>
<text text-anchor="start" x="29.5" y="-129.8" font-family="Times,serif" font-size="14.00">– entities : mixed</text>
<polygon fill="none" stroke="black" points="24.5,-20 24.5,-121 941.5,-121 941.5,-20 24.5,-20"/>
<text text-anchor="start" x="29.5" y="-104.8" font-family="Times,serif" font-size="14.00">+ __construct(generator : Bartlett\GraphUml\Generator\GeneratorInterface, graph : Graphp\Graph\Graph, options : array = [])</text>
<text text-anchor="start" x="29.5" y="-85.8" font-family="Times,serif" font-size="14.00">+ createVertexClass(class, attributes : array = []) : Graphp\Graph\Vertex</text>
<text text-anchor="start" x="29.5" y="-66.8" font-family="Times,serif" font-size="14.00">+ createVertexExtension(extension, attributes : array = []) : Graphp\Graph\Vertex</text>
<text text-anchor="start" x="29.5" y="-47.8" font-family="Times,serif" font-size="14.00">+ createVerticesFromCallable(callback : callable, vertices : Generator) : void</text>
<text text-anchor="start" x="29.5" y="-28.8" font-family="Times,serif" font-size="14.00">– getInterfaces(reflection : ReflectionClass) : array</text>
</g>
<!-- Bartlett\\GraphUml\\ClassDiagramBuilderInterface -->
<g id="node2" class="node">
<title>Bartlett\\GraphUml\\ClassDiagramBuilderInterface</title>
<polygon fill="#fecece" stroke="transparent" points="1738,-209 985,-209 985,-73 1738,-73 1738,-209"/>
<polygon fill="#eeeeee" stroke="transparent" points="993.5,-171 993.5,-205 1730.5,-205 1730.5,-171 993.5,-171"/>
<polygon fill="none" stroke="black" points="993.5,-171 993.5,-205 1730.5,-205 1730.5,-171 993.5,-171"/>
<text text-anchor="start" x="1317" y="-191.8" font-family="Times,serif" font-weight="bold" font-size="14.00">«interface»</text>
<text text-anchor="start" x="1241" y="-177.8" font-family="Times,serif" font-weight="bold" font-size="14.00">ClassDiagramBuilderInterface</text>
<polygon fill="none" stroke="black" points="993.5,-146 993.5,-171 1730.5,-171 1730.5,-146 993.5,-146"/>
<text text-anchor="start" x="998.5" y="-154.8" font-family="Times,serif" font-size="14.00">+ «static» OPTIONS_DEFAULTS : array = […] {readOnly}</text>
<polygon fill="none" stroke="black" points="993.5,-140 993.5,-146 1730.5,-146 1730.5,-140 993.5,-140"/>
<polygon fill="none" stroke="black" points="993.5,-77 993.5,-140 1730.5,-140 1730.5,-77 993.5,-77"/>
<text text-anchor="start" x="998.5" y="-123.8" font-family="Times,serif" font-size="14.00">+ «abstract» createVertexClass(class : mixed, attributes : array = []) : Graphp\Graph\Vertex</text>
<text text-anchor="start" x="998.5" y="-104.8" font-family="Times,serif" font-size="14.00">+ «abstract» createVertexExtension(extension : mixed, attributes : array = []) : Graphp\Graph\Vertex</text>
<text text-anchor="start" x="998.5" y="-85.8" font-family="Times,serif" font-size="14.00">+ «abstract» createVerticesFromCallable(callback : callable, vertices : Generator) : void</text>
</g>
<!-- Bartlett\\GraphUml\\ClassDiagramBuilder&#45;&gt;Bartlett\\GraphUml\\ClassDiagramBuilderInterface -->
<g id="edge1" class="edge">
<title>Bartlett\\GraphUml\\ClassDiagramBuilder&#45;&gt;Bartlett\\GraphUml\\ClassDiagramBuilderInterface</title>
<path fill="none" stroke="black" stroke-dasharray="5,2" d="M949.28,-141C957.73,-141 966.17,-141 974.57,-141"/>
<polygon fill="none" stroke="black" points="974.82,-144.5 984.82,-141 974.82,-137.5 974.82,-144.5"/>
</g>
<!-- Bartlett\\GraphUml\\Generator\\GraphVizGenerator -->
<g id="node3" class="node">
<title>Bartlett\\GraphUml\\Generator\\GraphVizGenerator</title>
<polygon fill="#fecece" stroke="transparent" points="786.5,-763.5 178.5,-763.5 178.5,-576.5 786.5,-576.5 786.5,-763.5"/>
<polygon fill="#eeeeee" stroke="transparent" points="186.5,-725 186.5,-759 778.5,-759 778.5,-725 186.5,-725"/>
<polygon fill="none" stroke="black" points="186.5,-725 186.5,-759 778.5,-759 778.5,-725 186.5,-725"/>
<text text-anchor="start" x="405.5" y="-731.8" font-family="Times,serif" font-weight="bold" font-size="14.00">GraphVizGenerator</text>
<polygon fill="none" stroke="black" points="186.5,-700 186.5,-725 778.5,-725 778.5,-700 186.5,-700"/>
<text text-anchor="start" x="191.5" y="-708.8" font-family="Times,serif" font-size="14.00">– graphViz</text>
<polygon fill="none" stroke="black" points="186.5,-580 186.5,-700 778.5,-700 778.5,-580 186.5,-580"/>
<text text-anchor="start" x="191.5" y="-683.8" font-family="Times,serif" font-size="14.00">+ __construct(graphViz : Graphp\GraphViz\GraphViz)</text>
<text text-anchor="start" x="191.5" y="-664.8" font-family="Times,serif" font-size="14.00">+ getFormatter() : Bartlett\GraphUml\Formatter\FormatterInterface</text>
<text text-anchor="start" x="191.5" y="-645.8" font-family="Times,serif" font-size="14.00">+ getName() : string</text>
<text text-anchor="start" x="191.5" y="-626.8" font-family="Times,serif" font-size="14.00">+ getPrefix() : string</text>
<text text-anchor="start" x="191.5" y="-607.8" font-family="Times,serif" font-size="14.00">+ createScript(graph : Graphp\Graph\Graph) : string</text>
<text text-anchor="start" x="191.5" y="-588.8" font-family="Times,serif" font-size="14.00">+ createImageFile(graph : Graphp\Graph\Graph, cmdFormat : string = &#39;&#39;) : string</text>
</g>
<!-- Bartlett\\GraphUml\\Generator\\AbstractGenerator -->
<g id="node4" class="node">
<title>Bartlett\\GraphUml\\Generator\\AbstractGenerator</title>
<polygon fill="#fecece" stroke="transparent" points="1660,-695.5 1063,-695.5 1063,-312.5 1660,-312.5 1660,-695.5"/>
<polygon fill="#eeeeee" stroke="transparent" points="1071.5,-657 1071.5,-691 1652.5,-691 1652.5,-657 1071.5,-657"/>
<polygon fill="none" stroke="black" points="1071.5,-657 1071.5,-691 1652.5,-691 1652.5,-657 1071.5,-657"/>
<text text-anchor="start" x="1320" y="-677.8" font-family="Times,serif" font-weight="bold" font-size="14.00">«abstract»</text>
<text text-anchor="start" x="1288" y="-663.8" font-family="Times,serif" font-weight="bold" font-size="14.00">AbstractGenerator</text>
<polygon fill="none" stroke="black" points="1071.5,-575 1071.5,-657 1652.5,-657 1652.5,-575 1071.5,-575"/>
<text text-anchor="start" x="1076.5" y="-640.8" font-family="Times,serif" font-size="14.00">+ «static» CMD_EXECUTABLE : string = &quot;\%E&quot; {readOnly}</text>
<text text-anchor="start" x="1076.5" y="-621.8" font-family="Times,serif" font-size="14.00">+ «static» CMD_FORMAT : string = &quot;\%F&quot; {readOnly}</text>
<text text-anchor="start" x="1076.5" y="-602.8" font-family="Times,serif" font-size="14.00">+ «static» CMD_OUTPUT_FILE : string = &quot;\%o&quot; {readOnly}</text>
<text text-anchor="start" x="1076.5" y="-583.8" font-family="Times,serif" font-size="14.00">+ «static» CMD_TEMP_FILE : string = &quot;\%t&quot; {readOnly}</text>
<polygon fill="none" stroke="black" points="1071.5,-512 1071.5,-575 1652.5,-575 1652.5,-512 1071.5,-512"/>
<text text-anchor="start" x="1076.5" y="-558.8" font-family="Times,serif" font-size="14.00"># options : mixed</text>
<text text-anchor="start" x="1076.5" y="-539.8" font-family="Times,serif" font-size="14.00">– executable : string</text>
<text text-anchor="start" x="1076.5" y="-520.8" font-family="Times,serif" font-size="14.00">– format : string</text>
<polygon fill="none" stroke="black" points="1071.5,-316 1071.5,-512 1652.5,-512 1652.5,-316 1071.5,-316"/>
<text text-anchor="start" x="1076.5" y="-495.8" font-family="Times,serif" font-size="14.00">+ setOptions(values : array) : void</text>
<text text-anchor="start" x="1076.5" y="-476.8" font-family="Times,serif" font-size="14.00">+ «abstract» getFormatter() : Bartlett\GraphUml\Formatter\FormatterInterface</text>
<text text-anchor="start" x="1076.5" y="-457.8" font-family="Times,serif" font-size="14.00">+ «abstract» getName() : string</text>
<text text-anchor="start" x="1076.5" y="-438.8" font-family="Times,serif" font-size="14.00">+ getPrefix() : string</text>
<text text-anchor="start" x="1076.5" y="-419.8" font-family="Times,serif" font-size="14.00">+ getLabelClass(reflection : ReflectionClass) : string</text>
<text text-anchor="start" x="1076.5" y="-400.8" font-family="Times,serif" font-size="14.00">+ getLabelExtension(reflection : ReflectionExtension) : string</text>
<text text-anchor="start" x="1076.5" y="-381.8" font-family="Times,serif" font-size="14.00">+ setExecutable(executable : string) : void</text>
<text text-anchor="start" x="1076.5" y="-362.8" font-family="Times,serif" font-size="14.00">+ setFormat(format : string) : void</text>
<text text-anchor="start" x="1076.5" y="-343.8" font-family="Times,serif" font-size="14.00">+ «abstract» createScript(graph : Graphp\Graph\Graph) : string</text>
<text text-anchor="start" x="1076.5" y="-324.8" font-family="Times,serif" font-size="14.00">+ createImageFile(graph : Graphp\Graph\Graph, cmdFormat : string) : string</text>
</g>
<!-- Bartlett\\GraphUml\\Generator\\GraphVizGenerator&#45;&gt;Bartlett\\GraphUml\\Generator\\AbstractGenerator -->
<g id="edge2" class="edge">
<title>Bartlett\\GraphUml\\Generator\\GraphVizGenerator&#45;&gt;Bartlett\\GraphUml\\Generator\\AbstractGenerator</title>
<path fill="none" stroke="black" d="M786.54,-612.64C872.59,-596.35 966.36,-578.6 1052.69,-562.26"/>
<polygon fill="none" stroke="black" points="1053.46,-565.68 1062.64,-560.38 1052.16,-558.8 1053.46,-565.68"/>
</g>
<!-- Bartlett\\GraphUml\\Generator\\GeneratorInterface -->
<g id="node5" class="node">
<title>Bartlett\\GraphUml\\Generator\\GeneratorInterface</title>
<polygon fill="#fecece" stroke="transparent" points="1691.5,-958 1031.5,-958 1031.5,-714 1691.5,-714 1691.5,-958"/>
<polygon fill="#eeeeee" stroke="transparent" points="1039.5,-920 1039.5,-954 1683.5,-954 1683.5,-920 1039.5,-920"/>
<polygon fill="none" stroke="black" points="1039.5,-920 1039.5,-954 1683.5,-954 1683.5,-920 1039.5,-920"/>
<text text-anchor="start" x="1316.5" y="-940.8" font-family="Times,serif" font-weight="bold" font-size="14.00">«interface»</text>
<text text-anchor="start" x="1284.5" y="-926.8" font-family="Times,serif" font-weight="bold" font-size="14.00">GeneratorInterface</text>
<polygon fill="none" stroke="black" points="1039.5,-914 1039.5,-920 1683.5,-920 1683.5,-914 1039.5,-914"/>
<polygon fill="none" stroke="black" points="1039.5,-718 1039.5,-914 1683.5,-914 1683.5,-718 1039.5,-718"/>
<text text-anchor="start" x="1044.5" y="-897.8" font-family="Times,serif" font-size="14.00">+ «abstract» setOptions(values : array) : void</text>
<text text-anchor="start" x="1044.5" y="-878.8" font-family="Times,serif" font-size="14.00">+ «abstract» getFormatter() : Bartlett\GraphUml\Formatter\FormatterInterface</text>
<text text-anchor="start" x="1044.5" y="-859.8" font-family="Times,serif" font-size="14.00">+ «abstract» getName() : string</text>
<text text-anchor="start" x="1044.5" y="-840.8" font-family="Times,serif" font-size="14.00">+ «abstract» getPrefix() : string</text>
<text text-anchor="start" x="1044.5" y="-821.8" font-family="Times,serif" font-size="14.00">+ «abstract» getLabelClass(reflection : ReflectionClass) : string</text>
<text text-anchor="start" x="1044.5" y="-802.8" font-family="Times,serif" font-size="14.00">+ «abstract» getLabelExtension(reflection : ReflectionExtension) : string</text>
<text text-anchor="start" x="1044.5" y="-783.8" font-family="Times,serif" font-size="14.00">+ «abstract» setExecutable(executable : string) : void</text>
<text text-anchor="start" x="1044.5" y="-764.8" font-family="Times,serif" font-size="14.00">+ «abstract» setFormat(format : string) : void</text>
<text text-anchor="start" x="1044.5" y="-745.8" font-family="Times,serif" font-size="14.00">+ «abstract» createScript(graph : Graphp\Graph\Graph) : string</text>
<text text-anchor="start" x="1044.5" y="-726.8" font-family="Times,serif" font-size="14.00">+ «abstract» createImageFile(graph : Graphp\Graph\Graph, cmdFormat : string) : string</text>
</g>
<!-- Bartlett\\GraphUml\\Generator\\GraphVizGenerator&#45;&gt;Bartlett\\GraphUml\\Generator\\GeneratorInterface -->
<g id="edge3" class="edge">
<title>Bartlett\\GraphUml\\Generator\\GraphVizGenerator&#45;&gt;Bartlett\\GraphUml\\Generator\\GeneratorInterface</title>
<path fill="none" stroke="black" stroke-dasharray="5,2" d="M786.54,-727.36C862.27,-741.69 943.98,-757.16 1021.33,-771.8"/>
<polygon fill="none" stroke="black" points="1020.76,-775.26 1031.23,-773.68 1022.06,-768.38 1020.76,-775.26"/>
</g>
</g>
</svg>
