<?xml version="1.0" encoding="UTF-8" standalone="no"?>
<!DOCTYPE svg PUBLIC "-//W3C//DTD SVG 1.1//EN"
 "http://www.w3.org/Graphics/SVG/1.1/DTD/svg11.dtd">
<!-- Generated by graphviz version 2.43.0 (0)
 -->
<!-- Title: %3 Pages: 1 -->
<svg width="1707pt" height="1071pt"
 viewBox="0.00 0.00 1707.00 1071.00" xmlns="http://www.w3.org/2000/svg" xmlns:xlink="http://www.w3.org/1999/xlink">
<g id="graph0" class="graph" transform="scale(1 1) rotate(0) translate(4 1067)">
<title>%3</title>
<polygon fill="white" stroke="transparent" points="-4,4 -4,-1067 1703,-1067 1703,4 -4,4"/>
<g id="clust1" class="cluster">
<title>cluster_0</title>
<defs>
<radialGradient id="r_0" cx="50%" cy="50%" r="75%" fx="0%" fy="50%">
<stop offset="0" style="stop-color:yellow;stop-opacity:1.;"/>
<stop offset="1" style="stop-color:blue;stop-opacity:1.;"/>
</radialGradient>
</defs>
<polygon fill="url(#r_0)" stroke="black" points="231,-8 231,-381 1625.5,-381 1625.5,-8 231,-8"/>
<text text-anchor="middle" x="928.25" y="-365.8" font-family="Times,serif" font-size="14.00">Bartlett\GraphUml\Formatter</text>
</g>
<g id="clust2" class="cluster">
<title>cluster_1</title>
<defs>
<linearGradient id="l_0" gradientUnits="userSpaceOnUse" x1="321.68" y1="-460.61" x2="1440.32" y2="-806.39" >
<stop offset="0" style="stop-color:yellow;stop-opacity:1.;"/>
<stop offset="1" style="stop-color:blue;stop-opacity:1.;"/>
</linearGradient>
</defs>
<polygon fill="url(#l_0)" stroke="black" points="90,-389 90,-878 1672,-878 1672,-389 90,-389"/>
<text text-anchor="middle" x="881" y="-862.8" font-family="Times,serif" font-size="14.00">Bartlett\GraphUml\Generator</text>
</g>
<g id="clust3" class="cluster">
<title>cluster_2</title>
<polygon fill="lightblue" stroke="black" points="8,-886 8,-1055 1691,-1055 1691,-886 8,-886"/>
<text text-anchor="middle" x="849.5" y="-1039.8" font-family="Times,serif" font-size="14.00">Bartlett\GraphUml</text>
</g>
<!-- Bartlett\\GraphUml\\Formatter\\HtmlFormatter -->
<g id="node1" class="node">
<title>Bartlett\\GraphUml\\Formatter\\HtmlFormatter</title>
<polygon fill="#eeeeee" stroke="transparent" points="247.5,-312 247.5,-346 718.5,-346 718.5,-312 247.5,-312"/>
<polygon fill="none" stroke="black" points="247.5,-312 247.5,-346 718.5,-346 718.5,-312 247.5,-312"/>
<text text-anchor="start" x="422.5" y="-318.8" font-family="Times,serif" font-weight="bold" font-size="14.00">HtmlFormatter</text>
<polygon fill="none" stroke="black" points="247.5,-306 247.5,-312 718.5,-312 718.5,-306 247.5,-306"/>
<polygon fill="none" stroke="black" points="247.5,-186 247.5,-306 718.5,-306 718.5,-186 247.5,-186"/>
<text text-anchor="start" x="252.5" y="-289.8" font-family="Times,serif" font-size="14.00">+ __construct(options : array)</text>
<text text-anchor="start" x="252.5" y="-270.8" font-family="Times,serif" font-size="14.00">+ getLabelExtension(reflection : ReflectionExtension) : string</text>
<text text-anchor="start" x="252.5" y="-251.8" font-family="Times,serif" font-size="14.00">+ getLabelClass(reflection : ReflectionClass) : string</text>
<text text-anchor="start" x="252.5" y="-232.8" font-family="Times,serif" font-size="14.00">+ getLabelConstants(reflection) : string</text>
<text text-anchor="start" x="252.5" y="-213.8" font-family="Times,serif" font-size="14.00">+ getLabelProperties(reflection : ReflectionClass) : string</text>
<text text-anchor="start" x="252.5" y="-194.8" font-family="Times,serif" font-size="14.00">+ getLabelFunctions(functions : array, class : string = &#39;&#39;) : string</text>
</g>
<!-- Bartlett\\GraphUml\\Formatter\\AbstractFormatter -->
<g id="node2" class="node">
<title>Bartlett\\GraphUml\\Formatter\\AbstractFormatter</title>
<polygon fill="#eeeeee" stroke="transparent" points="1223,-105 1223,-139 1446,-139 1446,-105 1223,-105"/>
<polygon fill="none" stroke="black" points="1223,-105 1223,-139 1446,-139 1446,-105 1223,-105"/>
<text text-anchor="start" x="1292.5" y="-125.8" font-family="Times,serif" font-weight="bold" font-size="14.00">«abstract»</text>
<text text-anchor="start" x="1261" y="-111.8" font-family="Times,serif" font-weight="bold" font-size="14.00">AbstractFormatter</text>
<polygon fill="none" stroke="black" points="1223,-99 1223,-105 1446,-105 1446,-99 1223,-99"/>
<polygon fill="none" stroke="black" points="1223,-55 1223,-99 1446,-99 1446,-55 1223,-55"/>
<text text-anchor="start" x="1228" y="-82.8" font-family="Times,serif" font-size="14.00">+ __construct(options : array)</text>
<text text-anchor="start" x="1228" y="-63.8" font-family="Times,serif" font-size="14.00">+ getFormat() : string</text>
</g>
<!-- Bartlett\\GraphUml\\Formatter\\HtmlFormatter&#45;&gt;Bartlett\\GraphUml\\Formatter\\AbstractFormatter -->
<g id="edge1" class="edge">
<title>Bartlett\\GraphUml\\Formatter\\HtmlFormatter&#45;&gt;Bartlett\\GraphUml\\Formatter\\AbstractFormatter</title>
<path fill="none" stroke="black" d="M726.13,-217.56C808.32,-201.17 900.65,-182.77 985,-166 1057.54,-151.58 1138.6,-135.5 1204.23,-122.5"/>
<polygon fill="none" stroke="black" points="1205.08,-125.9 1214.21,-120.52 1203.72,-119.03 1205.08,-125.9"/>
</g>
<!-- Bartlett\\GraphUml\\Formatter\\FormatterInterface -->
<g id="node3" class="node">
<title>Bartlett\\GraphUml\\Formatter\\FormatterInterface</title>
<polygon fill="#eeeeee" stroke="transparent" points="1059,-305 1059,-339 1610,-339 1610,-305 1059,-305"/>
<polygon fill="none" stroke="black" points="1059,-305 1059,-339 1610,-339 1610,-305 1059,-305"/>
<text text-anchor="start" x="1289.5" y="-325.8" font-family="Times,serif" font-weight="bold" font-size="14.00">«interface»</text>
<text text-anchor="start" x="1258" y="-311.8" font-family="Times,serif" font-weight="bold" font-size="14.00">FormatterInterface</text>
<polygon fill="none" stroke="black" points="1059,-299 1059,-305 1610,-305 1610,-299 1059,-299"/>
<polygon fill="none" stroke="black" points="1059,-179 1059,-299 1610,-299 1610,-179 1059,-179"/>
<text text-anchor="start" x="1064" y="-282.8" font-family="Times,serif" font-size="14.00">+ «abstract» getFormat() : string</text>
<text text-anchor="start" x="1064" y="-263.8" font-family="Times,serif" font-size="14.00">+ «abstract» getLabelExtension(reflection : ReflectionExtension) : string</text>
<text text-anchor="start" x="1064" y="-244.8" font-family="Times,serif" font-size="14.00">+ «abstract» getLabelClass(reflection : ReflectionClass) : string</text>
<text text-anchor="start" x="1064" y="-225.8" font-family="Times,serif" font-size="14.00">+ «abstract» getLabelConstants(reflection) : string</text>
<text text-anchor="start" x="1064" y="-206.8" font-family="Times,serif" font-size="14.00">+ «abstract» getLabelProperties(reflection : ReflectionClass) : string</text>
<text text-anchor="start" x="1064" y="-187.8" font-family="Times,serif" font-size="14.00">+ «abstract» getLabelFunctions(functions : array, class : string = &#39;&#39;) : string</text>
</g>
<!-- Bartlett\\GraphUml\\Formatter\\HtmlFormatter&#45;&gt;Bartlett\\GraphUml\\Formatter\\FormatterInterface -->
<g id="edge2" class="edge">
<title>Bartlett\\GraphUml\\Formatter\\HtmlFormatter&#45;&gt;Bartlett\\GraphUml\\Formatter\\FormatterInterface</title>
<path fill="none" stroke="black" stroke-dasharray="5,2" d="M726.08,-264C823.96,-263.19 937.77,-262.26 1040.2,-261.41"/>
<polygon fill="none" stroke="black" points="1040.43,-264.91 1050.4,-261.33 1040.37,-257.91 1040.43,-264.91"/>
</g>
<!-- Bartlett\\GraphUml\\Formatter\\RecordFormatter -->
<g id="node4" class="node">
<title>Bartlett\\GraphUml\\Formatter\\RecordFormatter</title>
<polygon fill="#eeeeee" stroke="transparent" points="247.5,-126 247.5,-160 718.5,-160 718.5,-126 247.5,-126"/>
<polygon fill="none" stroke="black" points="247.5,-126 247.5,-160 718.5,-160 718.5,-126 247.5,-126"/>
<text text-anchor="start" x="415" y="-132.8" font-family="Times,serif" font-weight="bold" font-size="14.00">RecordFormatter</text>
<polygon fill="none" stroke="black" points="247.5,-120 247.5,-126 718.5,-126 718.5,-120 247.5,-120"/>
<polygon fill="none" stroke="black" points="247.5,-19 247.5,-120 718.5,-120 718.5,-19 247.5,-19"/>
<text text-anchor="start" x="252.5" y="-103.8" font-family="Times,serif" font-size="14.00">+ getLabelExtension(reflection : ReflectionExtension) : string</text>
<text text-anchor="start" x="252.5" y="-84.8" font-family="Times,serif" font-size="14.00">+ getLabelClass(reflection : ReflectionClass) : string</text>
<text text-anchor="start" x="252.5" y="-65.8" font-family="Times,serif" font-size="14.00">+ getLabelProperties(reflection : ReflectionClass) : string</text>
<text text-anchor="start" x="252.5" y="-46.8" font-family="Times,serif" font-size="14.00">+ getLabelConstants(reflection) : string</text>
<text text-anchor="start" x="252.5" y="-27.8" font-family="Times,serif" font-size="14.00">+ getLabelFunctions(functions : array, class : string = &#39;&#39;) : string</text>
</g>
<!-- Bartlett\\GraphUml\\Formatter\\RecordFormatter&#45;&gt;Bartlett\\GraphUml\\Formatter\\AbstractFormatter -->
<g id="edge3" class="edge">
<title>Bartlett\\GraphUml\\Formatter\\RecordFormatter&#45;&gt;Bartlett\\GraphUml\\Formatter\\AbstractFormatter</title>
<path fill="none" stroke="black" d="M726.08,-92C881.85,-93.28 1077.94,-94.9 1204.37,-95.94"/>
<polygon fill="none" stroke="black" points="1204.46,-99.44 1214.49,-96.02 1204.52,-92.44 1204.46,-99.44"/>
</g>
<!-- Bartlett\\GraphUml\\Formatter\\RecordFormatter&#45;&gt;Bartlett\\GraphUml\\Formatter\\FormatterInterface -->
<g id="edge4" class="edge">
<title>Bartlett\\GraphUml\\Formatter\\RecordFormatter&#45;&gt;Bartlett\\GraphUml\\Formatter\\FormatterInterface</title>
<path fill="none" stroke="black" stroke-dasharray="5,2" d="M726.08,-131.18C797.97,-143.94 876.77,-158.48 949,-173 978.69,-178.97 1009.61,-185.45 1040.45,-192.08"/>
<polygon fill="none" stroke="black" points="1039.94,-195.56 1050.45,-194.24 1041.42,-188.71 1039.94,-195.56"/>
</g>
<!-- Bartlett\\GraphUml\\Generator\\GraphVizGenerator -->
<g id="node5" class="node">
<title>Bartlett\\GraphUml\\Generator\\GraphVizGenerator</title>
<polygon fill="#eeeeee" stroke="transparent" points="106.5,-673 106.5,-707 859.5,-707 859.5,-673 106.5,-673"/>
<polygon fill="none" stroke="black" points="106.5,-673 106.5,-707 859.5,-707 859.5,-673 106.5,-673"/>
<text text-anchor="start" x="406" y="-679.8" font-family="Times,serif" font-weight="bold" font-size="14.00">GraphVizGenerator</text>
<polygon fill="none" stroke="black" points="106.5,-667 106.5,-673 859.5,-673 859.5,-667 106.5,-667"/>
<polygon fill="none" stroke="black" points="106.5,-547 106.5,-667 859.5,-667 859.5,-547 106.5,-547"/>
<text text-anchor="start" x="111.5" y="-650.8" font-family="Times,serif" font-size="14.00">+ __construct(graphViz : Graphp\GraphViz\GraphViz, executable : string = &#39;dot&#39;, format : string = &#39;png&#39;)</text>
<text text-anchor="start" x="111.5" y="-631.8" font-family="Times,serif" font-size="14.00">+ getFormatter() : Bartlett\GraphUml\Formatter\FormatterInterface</text>
<text text-anchor="start" x="111.5" y="-612.8" font-family="Times,serif" font-size="14.00">+ getName() : string</text>
<text text-anchor="start" x="111.5" y="-593.8" font-family="Times,serif" font-size="14.00">+ getPrefix() : string</text>
<text text-anchor="start" x="111.5" y="-574.8" font-family="Times,serif" font-size="14.00">+ createScript(graph : Graphp\Graph\Graph) : string</text>
<text text-anchor="start" x="111.5" y="-555.8" font-family="Times,serif" font-size="14.00">+ createImageFile(graph : Graphp\Graph\Graph, cmdFormat : string = &#39;&#39;) : string</text>
</g>
<!-- Bartlett\\GraphUml\\Generator\\AbstractGenerator -->
<g id="node6" class="node">
<title>Bartlett\\GraphUml\\Generator\\AbstractGenerator</title>
<polygon fill="#eeeeee" stroke="transparent" points="1044,-584 1044,-618 1625,-618 1625,-584 1044,-584"/>
<polygon fill="none" stroke="black" points="1044,-584 1044,-618 1625,-618 1625,-584 1044,-584"/>
<text text-anchor="start" x="1292.5" y="-604.8" font-family="Times,serif" font-weight="bold" font-size="14.00">«abstract»</text>
<text text-anchor="start" x="1260.5" y="-590.8" font-family="Times,serif" font-weight="bold" font-size="14.00">AbstractGenerator</text>
<polygon fill="none" stroke="black" points="1044,-578 1044,-584 1625,-584 1625,-578 1044,-578"/>
<polygon fill="none" stroke="black" points="1044,-401 1044,-578 1625,-578 1625,-401 1044,-401"/>
<text text-anchor="start" x="1049" y="-561.8" font-family="Times,serif" font-size="14.00">+ __construct(executable : string, format : string)</text>
<text text-anchor="start" x="1049" y="-542.8" font-family="Times,serif" font-size="14.00">+ setOptions(values : array) : void</text>
<text text-anchor="start" x="1049" y="-523.8" font-family="Times,serif" font-size="14.00">+ «abstract» getFormatter() : Bartlett\GraphUml\Formatter\FormatterInterface</text>
<text text-anchor="start" x="1049" y="-504.8" font-family="Times,serif" font-size="14.00">+ «abstract» getName() : string</text>
<text text-anchor="start" x="1049" y="-485.8" font-family="Times,serif" font-size="14.00">+ getPrefix() : string</text>
<text text-anchor="start" x="1049" y="-466.8" font-family="Times,serif" font-size="14.00">+ getLabelClass(reflection : ReflectionClass) : string</text>
<text text-anchor="start" x="1049" y="-447.8" font-family="Times,serif" font-size="14.00">+ getLabelExtension(reflection : ReflectionExtension) : string</text>
<text text-anchor="start" x="1049" y="-428.8" font-family="Times,serif" font-size="14.00">+ «abstract» createScript(graph : Graphp\Graph\Graph) : string</text>
<text text-anchor="start" x="1049" y="-409.8" font-family="Times,serif" font-size="14.00">+ createImageFile(graph : Graphp\Graph\Graph, cmdFormat : string) : string</text>
</g>
<!-- Bartlett\\GraphUml\\Generator\\GraphVizGenerator&#45;&gt;Bartlett\\GraphUml\\Generator\\AbstractGenerator -->
<g id="edge5" class="edge">
<title>Bartlett\\GraphUml\\Generator\\GraphVizGenerator&#45;&gt;Bartlett\\GraphUml\\Generator\\AbstractGenerator</title>
<path fill="none" stroke="black" d="M867.24,-574.15C920.11,-566.87 973.83,-559.47 1025.09,-552.41"/>
<polygon fill="none" stroke="black" points="1025.88,-555.83 1035.31,-551 1024.92,-548.9 1025.88,-555.83"/>
</g>
<!-- Bartlett\\GraphUml\\Generator\\GeneratorInterface -->
<g id="node7" class="node">
<title>Bartlett\\GraphUml\\Generator\\GeneratorInterface</title>
<polygon fill="#eeeeee" stroke="transparent" points="1012,-809 1012,-843 1656,-843 1656,-809 1012,-809"/>
<polygon fill="none" stroke="black" points="1012,-809 1012,-843 1656,-843 1656,-809 1012,-809"/>
<text text-anchor="start" x="1289" y="-829.8" font-family="Times,serif" font-weight="bold" font-size="14.00">«interface»</text>
<text text-anchor="start" x="1257" y="-815.8" font-family="Times,serif" font-weight="bold" font-size="14.00">GeneratorInterface</text>
<polygon fill="none" stroke="black" points="1012,-803 1012,-809 1656,-809 1656,-803 1012,-803"/>
<polygon fill="none" stroke="black" points="1012,-645 1012,-803 1656,-803 1656,-645 1012,-645"/>
<text text-anchor="start" x="1017" y="-786.8" font-family="Times,serif" font-size="14.00">+ «abstract» setOptions(values : array) : void</text>
<text text-anchor="start" x="1017" y="-767.8" font-family="Times,serif" font-size="14.00">+ «abstract» getFormatter() : Bartlett\GraphUml\Formatter\FormatterInterface</text>
<text text-anchor="start" x="1017" y="-748.8" font-family="Times,serif" font-size="14.00">+ «abstract» getName() : string</text>
<text text-anchor="start" x="1017" y="-729.8" font-family="Times,serif" font-size="14.00">+ «abstract» getPrefix() : string</text>
<text text-anchor="start" x="1017" y="-710.8" font-family="Times,serif" font-size="14.00">+ «abstract» getLabelClass(reflection : ReflectionClass) : string</text>
<text text-anchor="start" x="1017" y="-691.8" font-family="Times,serif" font-size="14.00">+ «abstract» getLabelExtension(reflection : ReflectionExtension) : string</text>
<text text-anchor="start" x="1017" y="-672.8" font-family="Times,serif" font-size="14.00">+ «abstract» createScript(graph : Graphp\Graph\Graph) : string</text>
<text text-anchor="start" x="1017" y="-653.8" font-family="Times,serif" font-size="14.00">+ «abstract» createImageFile(graph : Graphp\Graph\Graph, cmdFormat : string) : string</text>
</g>
<!-- Bartlett\\GraphUml\\Generator\\GraphVizGenerator&#45;&gt;Bartlett\\GraphUml\\Generator\\GeneratorInterface -->
<g id="edge6" class="edge">
<title>Bartlett\\GraphUml\\Generator\\GraphVizGenerator&#45;&gt;Bartlett\\GraphUml\\Generator\\GeneratorInterface</title>
<path fill="none" stroke="black" stroke-dasharray="5,2" d="M867.24,-679.85C909.47,-685.67 952.25,-691.56 993.89,-697.29"/>
<polygon fill="none" stroke="black" points="993.49,-700.77 1003.88,-698.67 994.45,-693.84 993.49,-700.77"/>
</g>
<!-- Bartlett\\GraphUml\\ClassDiagramBuilder -->
<g id="node8" class="node">
<title>Bartlett\\GraphUml\\ClassDiagramBuilder</title>
<polygon fill="#eeeeee" stroke="transparent" points="24.5,-986 24.5,-1020 941.5,-1020 941.5,-986 24.5,-986"/>
<polygon fill="none" stroke="black" points="24.5,-986 24.5,-1020 941.5,-1020 941.5,-986 24.5,-986"/>
<text text-anchor="start" x="398.5" y="-992.8" font-family="Times,serif" font-weight="bold" font-size="14.00">ClassDiagramBuilder</text>
<polygon fill="none" stroke="black" points="24.5,-980 24.5,-986 941.5,-986 941.5,-980 24.5,-980"/>
<polygon fill="none" stroke="black" points="24.5,-898 24.5,-980 941.5,-980 941.5,-898 24.5,-898"/>
<text text-anchor="start" x="29.5" y="-963.8" font-family="Times,serif" font-size="14.00">+ __construct(generator : Bartlett\GraphUml\Generator\GeneratorInterface, graph : Graphp\Graph\Graph, options : array = [])</text>
<text text-anchor="start" x="29.5" y="-944.8" font-family="Times,serif" font-size="14.00">+ createVertexClass(source, attributes : array = []) : Graphp\Graph\Vertex</text>
<text text-anchor="start" x="29.5" y="-925.8" font-family="Times,serif" font-size="14.00">+ createVertexExtension(source, attributes : array = []) : Graphp\Graph\Vertex</text>
<text text-anchor="start" x="29.5" y="-906.8" font-family="Times,serif" font-size="14.00">+ createVerticesFromCallable(callback : callable, vertices : Generator) : void</text>
</g>
<!-- Bartlett\\GraphUml\\ClassDiagramBuilderInterface -->
<g id="node9" class="node">
<title>Bartlett\\GraphUml\\ClassDiagramBuilderInterface</title>
<polygon fill="#eeeeee" stroke="transparent" points="993,-976 993,-1010 1675,-1010 1675,-976 993,-976"/>
<polygon fill="none" stroke="black" points="993,-976 993,-1010 1675,-1010 1675,-976 993,-976"/>
<text text-anchor="start" x="1289" y="-996.8" font-family="Times,serif" font-weight="bold" font-size="14.00">«interface»</text>
<text text-anchor="start" x="1213" y="-982.8" font-family="Times,serif" font-weight="bold" font-size="14.00">ClassDiagramBuilderInterface</text>
<polygon fill="none" stroke="black" points="993,-970 993,-976 1675,-976 1675,-970 993,-970"/>
<polygon fill="none" stroke="black" points="993,-907 993,-970 1675,-970 1675,-907 993,-907"/>
<text text-anchor="start" x="998" y="-953.8" font-family="Times,serif" font-size="14.00">+ «abstract» createVertexClass(source : mixed, attributes : array = []) : Graphp\Graph\Vertex</text>
<text text-anchor="start" x="998" y="-934.8" font-family="Times,serif" font-size="14.00">+ «abstract» createVertexExtension(source, attributes : array = []) : Graphp\Graph\Vertex</text>
<text text-anchor="start" x="998" y="-915.8" font-family="Times,serif" font-size="14.00">+ «abstract» createVerticesFromCallable(callback : callable, vertices : Generator) : void</text>
</g>
<!-- Bartlett\\GraphUml\\ClassDiagramBuilder&#45;&gt;Bartlett\\GraphUml\\ClassDiagramBuilderInterface -->
<g id="edge7" class="edge">
<title>Bartlett\\GraphUml\\ClassDiagramBuilder&#45;&gt;Bartlett\\GraphUml\\ClassDiagramBuilderInterface</title>
<path fill="none" stroke="black" stroke-dasharray="5,2" d="M949.26,-959C957.71,-959 966.13,-959 974.52,-959"/>
<polygon fill="none" stroke="black" points="974.74,-962.5 984.74,-959 974.74,-955.5 974.74,-962.5"/>
</g>
</g>
</svg>
