<?xml version="1.0" encoding="UTF-8" standalone="no"?>
<!DOCTYPE svg PUBLIC "-//W3C//DTD SVG 1.1//EN"
 "http://www.w3.org/Graphics/SVG/1.1/DTD/svg11.dtd">
<!-- Generated by graphviz version 2.43.0 (0)
 -->
<!-- Title: %3 Pages: 1 -->
<svg width="1505pt" height="513pt"
 viewBox="0.00 0.00 1505.00 513.00" xmlns="http://www.w3.org/2000/svg" xmlns:xlink="http://www.w3.org/1999/xlink">
<g id="graph0" class="graph" transform="scale(1 1) rotate(0) translate(4 509)">
<title>%3</title>
<g id="clust1" class="cluster">
<title>cluster_0</title>
<polygon fill="#ffd39b" stroke="black" points="8,-8 8,-497 1489,-497 1489,-8 8,-8"/>
<text text-anchor="middle" x="748.5" y="-481.8" font-family="Times,serif" font-size="14.00">Bartlett\GraphUml\Generator</text>
</g>
<!-- Bartlett\\GraphUml\\Generator\\GraphVizGenerator -->
<g id="node1" class="node">
<title>Bartlett\\GraphUml\\Generator\\GraphVizGenerator</title>
<polygon fill="#fecece" stroke="transparent" points="785,-330 16,-330 16,-162 785,-162 785,-330"/>
<polygon fill="#eeeeee" stroke="transparent" points="24.5,-292 24.5,-326 777.5,-326 777.5,-292 24.5,-292"/>
<polygon fill="none" stroke="black" points="24.5,-292 24.5,-326 777.5,-326 777.5,-292 24.5,-292"/>
<text text-anchor="start" x="324" y="-298.8" font-family="Times,serif" font-weight="bold" font-size="14.00">GraphVizGenerator</text>
<polygon fill="none" stroke="black" points="24.5,-286 24.5,-292 777.5,-292 777.5,-286 24.5,-286"/>
<polygon fill="none" stroke="black" points="24.5,-166 24.5,-286 777.5,-286 777.5,-166 24.5,-166"/>
<text text-anchor="start" x="29.5" y="-269.8" font-family="Times,serif" font-size="14.00">+ __construct(graphViz : Graphp\GraphViz\GraphViz, executable : string = &#39;dot&#39;, format : string = &#39;png&#39;)</text>
<text text-anchor="start" x="29.5" y="-250.8" font-family="Times,serif" font-size="14.00">+ getFormatter() : Bartlett\GraphUml\Formatter\FormatterInterface</text>
<text text-anchor="start" x="29.5" y="-231.8" font-family="Times,serif" font-size="14.00">+ getName() : string</text>
<text text-anchor="start" x="29.5" y="-212.8" font-family="Times,serif" font-size="14.00">+ getPrefix() : string</text>
<text text-anchor="start" x="29.5" y="-193.8" font-family="Times,serif" font-size="14.00">+ createScript(graph : Graphp\Graph\Graph) : string</text>
<text text-anchor="start" x="29.5" y="-174.8" font-family="Times,serif" font-size="14.00">+ createImageFile(graph : Graphp\Graph\Graph, cmdFormat : string = &#39;&#39;) : string</text>
</g>
<!-- Bartlett\\GraphUml\\Generator\\AbstractGenerator -->
<g id="node2" class="node">
<title>Bartlett\\GraphUml\\Generator\\AbstractGenerator</title>
<polygon fill="#fecece" stroke="transparent" points="1449.5,-241.5 852.5,-241.5 852.5,-16.5 1449.5,-16.5 1449.5,-241.5"/>
<polygon fill="#eeeeee" stroke="transparent" points="861,-203 861,-237 1442,-237 1442,-203 861,-203"/>
<polygon fill="none" stroke="black" points="861,-203 861,-237 1442,-237 1442,-203 861,-203"/>
<text text-anchor="start" x="1109.5" y="-223.8" font-family="Times,serif" font-weight="bold" font-size="14.00">«abstract»</text>
<text text-anchor="start" x="1077.5" y="-209.8" font-family="Times,serif" font-weight="bold" font-size="14.00">AbstractGenerator</text>
<polygon fill="none" stroke="black" points="861,-197 861,-203 1442,-203 1442,-197 861,-197"/>
<polygon fill="none" stroke="black" points="861,-20 861,-197 1442,-197 1442,-20 861,-20"/>
<text text-anchor="start" x="866" y="-180.8" font-family="Times,serif" font-size="14.00">+ __construct(executable : string, format : string)</text>
<text text-anchor="start" x="866" y="-161.8" font-family="Times,serif" font-size="14.00">+ setOptions(values : array) : void</text>
<text text-anchor="start" x="866" y="-142.8" font-family="Times,serif" font-size="14.00">+ «abstract» getFormatter() : Bartlett\GraphUml\Formatter\FormatterInterface</text>
<text text-anchor="start" x="866" y="-123.8" font-family="Times,serif" font-size="14.00">+ «abstract» getName() : string</text>
<text text-anchor="start" x="866" y="-104.8" font-family="Times,serif" font-size="14.00">+ getPrefix() : string</text>
<text text-anchor="start" x="866" y="-85.8" font-family="Times,serif" font-size="14.00">+ getLabelClass(reflection : ReflectionClass) : string</text>
<text text-anchor="start" x="866" y="-66.8" font-family="Times,serif" font-size="14.00">+ getLabelExtension(reflection : ReflectionExtension) : string</text>
<text text-anchor="start" x="866" y="-47.8" font-family="Times,serif" font-size="14.00">+ «abstract» createScript(graph : Graphp\Graph\Graph) : string</text>
<text text-anchor="start" x="866" y="-28.8" font-family="Times,serif" font-size="14.00">+ createImageFile(graph : Graphp\Graph\Graph, cmdFormat : string) : string</text>
</g>
<!-- Bartlett\\GraphUml\\Generator\\GraphVizGenerator&#45;&gt;Bartlett\\GraphUml\\Generator\\AbstractGenerator -->
<g id="edge1" class="edge">
<title>Bartlett\\GraphUml\\Generator\\GraphVizGenerator&#45;&gt;Bartlett\\GraphUml\\Generator\\AbstractGenerator</title>
<path fill="none" stroke="black" d="M785.07,-186.04C804.18,-183.06 823.26,-180.07 842.11,-177.13"/>
<polygon fill="none" stroke="black" points="842.91,-180.55 852.25,-175.54 841.83,-173.63 842.91,-180.55"/>
</g>
<!-- Bartlett\\GraphUml\\Generator\\GeneratorInterface -->
<g id="node3" class="node">
<title>Bartlett\\GraphUml\\Generator\\GeneratorInterface</title>
<polygon fill="#cdaa7d" stroke="transparent" points="1481,-466 821,-466 821,-260 1481,-260 1481,-466"/>
<polygon fill="#eeeeee" stroke="transparent" points="829,-428 829,-462 1473,-462 1473,-428 829,-428"/>
<polygon fill="none" stroke="black" points="829,-428 829,-462 1473,-462 1473,-428 829,-428"/>
<text text-anchor="start" x="1106" y="-448.8" font-family="Times,serif" font-weight="bold" font-size="14.00">«interface»</text>
<text text-anchor="start" x="1074" y="-434.8" font-family="Times,serif" font-weight="bold" font-size="14.00">GeneratorInterface</text>
<polygon fill="none" stroke="black" points="829,-422 829,-428 1473,-428 1473,-422 829,-422"/>
<polygon fill="none" stroke="black" points="829,-264 829,-422 1473,-422 1473,-264 829,-264"/>
<text text-anchor="start" x="834" y="-405.8" font-family="Times,serif" font-size="14.00">+ «abstract» setOptions(values : array) : void</text>
<text text-anchor="start" x="834" y="-386.8" font-family="Times,serif" font-size="14.00">+ «abstract» getFormatter() : Bartlett\GraphUml\Formatter\FormatterInterface</text>
<text text-anchor="start" x="834" y="-367.8" font-family="Times,serif" font-size="14.00">+ «abstract» getName() : string</text>
<text text-anchor="start" x="834" y="-348.8" font-family="Times,serif" font-size="14.00">+ «abstract» getPrefix() : string</text>
<text text-anchor="start" x="834" y="-329.8" font-family="Times,serif" font-size="14.00">+ «abstract» getLabelClass(reflection : ReflectionClass) : string</text>
<text text-anchor="start" x="834" y="-310.8" font-family="Times,serif" font-size="14.00">+ «abstract» getLabelExtension(reflection : ReflectionExtension) : string</text>
<text text-anchor="start" x="834" y="-291.8" font-family="Times,serif" font-size="14.00">+ «abstract» createScript(graph : Graphp\Graph\Graph) : string</text>
<text text-anchor="start" x="834" y="-272.8" font-family="Times,serif" font-size="14.00">+ «abstract» createImageFile(graph : Graphp\Graph\Graph, cmdFormat : string) : string</text>
</g>
<!-- Bartlett\\GraphUml\\Generator\\GraphVizGenerator&#45;&gt;Bartlett\\GraphUml\\Generator\\GeneratorInterface -->
<g id="edge2" class="edge">
<title>Bartlett\\GraphUml\\Generator\\GraphVizGenerator&#45;&gt;Bartlett\\GraphUml\\Generator\\GeneratorInterface</title>
<path fill="none" stroke="black" stroke-dasharray="5,2" d="M785.07,-305.96C793.66,-307.3 802.24,-308.64 810.79,-309.98"/>
<polygon fill="none" stroke="black" points="810.4,-313.46 820.82,-311.55 811.48,-306.54 810.4,-313.46"/>
</g>
</g>
</svg>
