<?xml version="1.0" encoding="UTF-8" standalone="no"?>
<!DOCTYPE svg PUBLIC "-//W3C//DTD SVG 1.1//EN"
 "http://www.w3.org/Graphics/SVG/1.1/DTD/svg11.dtd">
<!-- Generated by graphviz version 2.40.1 (20161225.0304)
 -->
<!-- Title: %3 Pages: 1 -->
<svg width="545pt" height="293pt"
 viewBox="0.00 0.00 545.04 293.00" xmlns="http://www.w3.org/2000/svg" xmlns:xlink="http://www.w3.org/1999/xlink">
<g id="graph0" class="graph" transform="scale(1 1) rotate(0) translate(4 289)">
<title>%3</title>
<polygon fill="#ffffff" stroke="transparent" points="-4,4 -4,-289 541.0428,-289 541.0428,4 -4,4"/>
<!-- bartlett/graph&#45;uml -->
<g id="node1" class="node">
<title>bartlett/graph&#45;uml</title>
<ellipse fill="#d3d3d3" stroke="#000000" stroke-width="2" cx="232.5428" cy="-267" rx="75.2868" ry="18"/>
<text text-anchor="middle" x="232.5428" y="-263.3" font-family="Times,serif" font-size="14.00" fill="#000000">bartlett/graph&#45;uml</text>
</g>
<!-- php -->
<g id="node2" class="node">
<title>php</title>
<path fill="#eeeeee" stroke="#000000" d="M146.5428,-36C146.5428,-36 116.5428,-36 116.5428,-36 110.5428,-36 104.5428,-30 104.5428,-24 104.5428,-24 104.5428,-12 104.5428,-12 104.5428,-6 110.5428,0 116.5428,0 116.5428,0 146.5428,0 146.5428,0 152.5428,0 158.5428,-6 158.5428,-12 158.5428,-12 158.5428,-24 158.5428,-24 158.5428,-30 152.5428,-36 146.5428,-36"/>
<text text-anchor="middle" x="131.5428" y="-14.3" font-family="Times,serif" font-size="14.00" fill="#314b5f">php</text>
</g>
<!-- bartlett/graph&#45;uml&#45;&gt;php -->
<g id="edge1" class="edge">
<title>bartlett/graph&#45;uml&#45;&gt;php</title>
<path fill="none" stroke="#1a2833" d="M170.4709,-256.735C113.4466,-245.8891 35.058,-226.9072 16.5428,-202 -25.14,-145.9274 20.8663,-104.1217 69.5428,-54 76.8919,-46.4326 86.1701,-39.9302 95.2948,-34.6169"/>
<polygon fill="#1a2833" stroke="#1a2833" points="97.1915,-37.5691 104.291,-29.7047 93.8368,-31.4253 97.1915,-37.5691"/>
<text text-anchor="middle" x="27.0428" y="-140" font-family="Times,serif" font-size="10.00" fill="#767676">^7.1.3|^8.0</text>
</g>
<!-- cweagans/composer&#45;patches -->
<g id="node3" class="node">
<title>cweagans/composer&#45;patches</title>
<path fill="#eeeeee" stroke="#000000" d="M219.5428,-202C219.5428,-202 37.5428,-202 37.5428,-202 31.5428,-202 25.5428,-196 25.5428,-190 25.5428,-190 25.5428,-178 25.5428,-178 25.5428,-172 31.5428,-166 37.5428,-166 37.5428,-166 219.5428,-166 219.5428,-166 225.5428,-166 231.5428,-172 231.5428,-178 231.5428,-178 231.5428,-190 231.5428,-190 231.5428,-196 225.5428,-202 219.5428,-202"/>
<text text-anchor="middle" x="128.5428" y="-180.3" font-family="Times,serif" font-size="14.00" fill="#314b5f">cweagans/composer&#45;patches: 1.7.1</text>
</g>
<!-- bartlett/graph&#45;uml&#45;&gt;cweagans/composer&#45;patches -->
<g id="edge4" class="edge">
<title>bartlett/graph&#45;uml&#45;&gt;cweagans/composer&#45;patches</title>
<path fill="none" stroke="#1a2833" d="M210.7409,-249.6005C195.9303,-237.7804 176.118,-221.9687 159.6554,-208.8303"/>
<polygon fill="#1a2833" stroke="#1a2833" points="161.3954,-205.741 151.3961,-202.2388 157.0289,-211.2122 161.3954,-205.741"/>
<text text-anchor="middle" x="196.5428" y="-223" font-family="Times,serif" font-size="10.00" fill="#767676">^1.7</text>
</g>
<!-- graphp/graph -->
<g id="node5" class="node">
<title>graphp/graph</title>
<path fill="#eeeeee" stroke="#000000" d="M398.0428,-119C398.0428,-119 265.0428,-119 265.0428,-119 259.0428,-119 253.0428,-113 253.0428,-107 253.0428,-107 253.0428,-95 253.0428,-95 253.0428,-89 259.0428,-83 265.0428,-83 265.0428,-83 398.0428,-83 398.0428,-83 404.0428,-83 410.0428,-89 410.0428,-95 410.0428,-95 410.0428,-107 410.0428,-107 410.0428,-113 404.0428,-119 398.0428,-119"/>
<text text-anchor="middle" x="331.5428" y="-97.3" font-family="Times,serif" font-size="14.00" fill="#314b5f">graphp/graph: dev&#45;master</text>
</g>
<!-- bartlett/graph&#45;uml&#45;&gt;graphp/graph -->
<g id="edge6" class="edge">
<title>bartlett/graph&#45;uml&#45;&gt;graphp/graph</title>
<path fill="none" stroke="#1a2833" d="M238.9409,-248.7379C246.6248,-227.9114 260.6178,-193.2261 277.5428,-166 286.1644,-152.1308 297.4979,-138.0336 307.5548,-126.5287"/>
<polygon fill="#1a2833" stroke="#1a2833" points="310.2159,-128.8035 314.2644,-119.0126 304.9939,-124.1418 310.2159,-128.8035"/>
<text text-anchor="middle" x="316.5428" y="-181.5" font-family="Times,serif" font-size="10.00" fill="#767676">dev&#45;master as 1.0.0</text>
</g>
<!-- graphp/graphviz -->
<g id="node6" class="node">
<title>graphp/graphviz</title>
<path fill="#eeeeee" stroke="#000000" d="M525.0428,-202C525.0428,-202 376.0428,-202 376.0428,-202 370.0428,-202 364.0428,-196 364.0428,-190 364.0428,-190 364.0428,-178 364.0428,-178 364.0428,-172 370.0428,-166 376.0428,-166 376.0428,-166 525.0428,-166 525.0428,-166 531.0428,-166 537.0428,-172 537.0428,-178 537.0428,-178 537.0428,-190 537.0428,-190 537.0428,-196 531.0428,-202 525.0428,-202"/>
<text text-anchor="middle" x="450.5428" y="-180.3" font-family="Times,serif" font-size="14.00" fill="#314b5f">graphp/graphviz: dev&#45;master</text>
</g>
<!-- bartlett/graph&#45;uml&#45;&gt;graphp/graphviz -->
<g id="edge9" class="edge">
<title>bartlett/graph&#45;uml&#45;&gt;graphp/graphviz</title>
<path fill="none" stroke="#1a2833" d="M272.7814,-251.6798C306.6926,-238.7686 355.6119,-220.1434 393.5511,-205.6987"/>
<polygon fill="#1a2833" stroke="#1a2833" points="394.8441,-208.9515 402.9443,-202.1223 392.3534,-202.4096 394.8441,-208.9515"/>
<text text-anchor="middle" x="393.5428" y="-223" font-family="Times,serif" font-size="10.00" fill="#767676">dev&#45;master as 1.0.0</text>
</g>
<!-- cweagans/composer&#45;patches&#45;&gt;php -->
<g id="edge3" class="edge">
<title>cweagans/composer&#45;patches&#45;&gt;php</title>
<path fill="none" stroke="#1a2833" d="M101.5054,-165.7411C86.9929,-154.2381 70.4929,-137.9881 62.5428,-119 56.3634,-104.2414 56.1999,-97.6891 62.5428,-83 69.6204,-66.6091 83.0904,-52.4375 96.2641,-41.5476"/>
<polygon fill="#1a2833" stroke="#1a2833" points="98.6534,-44.122 104.3684,-35.2007 94.3374,-38.6109 98.6534,-44.122"/>
<text text-anchor="middle" x="79.0428" y="-98.5" font-family="Times,serif" font-size="10.00" fill="#767676">&gt;=5.3.0</text>
</g>
<!-- composer&#45;plugin&#45;api -->
<g id="node4" class="node">
<title>composer&#45;plugin&#45;api</title>
<path fill="#eeeeee" stroke="#000000" d="M222.5428,-119C222.5428,-119 116.5428,-119 116.5428,-119 110.5428,-119 104.5428,-113 104.5428,-107 104.5428,-107 104.5428,-95 104.5428,-95 104.5428,-89 110.5428,-83 116.5428,-83 116.5428,-83 222.5428,-83 222.5428,-83 228.5428,-83 234.5428,-89 234.5428,-95 234.5428,-95 234.5428,-107 234.5428,-107 234.5428,-113 228.5428,-119 222.5428,-119"/>
<text text-anchor="middle" x="169.5428" y="-97.3" font-family="Times,serif" font-size="14.00" fill="#314b5f">composer&#45;plugin&#45;api</text>
</g>
<!-- cweagans/composer&#45;patches&#45;&gt;composer&#45;plugin&#45;api -->
<g id="edge2" class="edge">
<title>cweagans/composer&#45;patches&#45;&gt;composer&#45;plugin&#45;api</title>
<path fill="none" stroke="#1a2833" d="M137.4391,-165.9902C142.8818,-154.9722 149.9515,-140.6604 156.0707,-128.2727"/>
<polygon fill="#1a2833" stroke="#1a2833" points="159.2312,-129.7771 160.5221,-119.2612 152.9552,-126.6769 159.2312,-129.7771"/>
<text text-anchor="middle" x="173.5428" y="-140" font-family="Times,serif" font-size="10.00" fill="#767676">^1.0 || ^2.0</text>
</g>
<!-- graphp/graph&#45;&gt;php -->
<g id="edge5" class="edge">
<title>graphp/graph&#45;&gt;php</title>
<path fill="none" stroke="#1a2833" d="M288.1457,-82.9902C252.2802,-68.106 201.9304,-47.2109 168.0934,-33.1685"/>
<polygon fill="#1a2833" stroke="#1a2833" points="169.1633,-29.8232 158.5855,-29.2227 166.4801,-36.2885 169.1633,-29.8232"/>
<text text-anchor="middle" x="256.0428" y="-57" font-family="Times,serif" font-size="10.00" fill="#767676">&gt;=5.3</text>
</g>
<!-- graphp/graphviz&#45;&gt;php -->
<g id="edge8" class="edge">
<title>graphp/graphviz&#45;&gt;php</title>
<path fill="none" stroke="#1a2833" d="M450.4823,-165.961C449.3567,-143.0012 443.7265,-103.8262 419.5428,-83 382.1371,-50.7875 237.9839,-30.2518 168.8903,-22.0571"/>
<polygon fill="#1a2833" stroke="#1a2833" points="169.2047,-18.5702 158.8676,-20.8927 168.3968,-25.5234 169.2047,-18.5702"/>
<text text-anchor="middle" x="458.0428" y="-98.5" font-family="Times,serif" font-size="10.00" fill="#767676">&gt;=5.3.0</text>
</g>
<!-- graphp/graphviz&#45;&gt;graphp/graph -->
<g id="edge7" class="edge">
<title>graphp/graphviz&#45;&gt;graphp/graph</title>
<path fill="none" stroke="#1a2833" d="M363.804,-167.3204C345.656,-162.0492 330.2626,-155.5829 324.5428,-148 320.4038,-142.5129 319.7002,-135.6194 320.6343,-128.8161"/>
<polygon fill="#1a2833" stroke="#1a2833" points="324.0389,-129.6276 322.9653,-119.0873 317.2315,-127.9965 324.0389,-129.6276"/>
<text text-anchor="middle" x="382.5428" y="-140" font-family="Times,serif" font-size="10.00" fill="#767676">dev&#45;master#81eef65 as 1.0.0</text>
</g>
</g>
</svg>
