<?xml version="1.0" encoding="UTF-8" standalone="no"?>
<!DOCTYPE svg PUBLIC "-//W3C//DTD SVG 1.1//EN"
 "http://www.w3.org/Graphics/SVG/1.1/DTD/svg11.dtd">
<!-- Generated by graphviz version 2.40.1 (20161225.0304)
 -->
<!-- Title: %3 Pages: 1 -->
<svg width="467pt" height="293pt"
 viewBox="0.00 0.00 466.50 293.00" xmlns="http://www.w3.org/2000/svg" xmlns:xlink="http://www.w3.org/1999/xlink">
<g id="graph0" class="graph" transform="scale(1 1) rotate(0) translate(4 289)">
<title>%3</title>
<polygon fill="#ffffff" stroke="transparent" points="-4,4 -4,-289 462.5,-289 462.5,4 -4,4"/>
<!-- bartlett/graph&#45;uml -->
<g id="node1" class="node">
<title>bartlett/graph&#45;uml</title>
<path fill="#eeeeee" stroke="#000000" stroke-width="2" d="M370.5,-285C370.5,-285 278.5,-285 278.5,-285 272.5,-285 266.5,-279 266.5,-273 266.5,-273 266.5,-261 266.5,-261 266.5,-255 272.5,-249 278.5,-249 278.5,-249 370.5,-249 370.5,-249 376.5,-249 382.5,-255 382.5,-261 382.5,-261 382.5,-273 382.5,-273 382.5,-279 376.5,-285 370.5,-285"/>
<text text-anchor="middle" x="324.5" y="-263.3" font-family="Times,serif" font-size="14.00" fill="#314b5f">bartlett/graph&#45;uml</text>
</g>
<!-- php -->
<g id="node2" class="node">
<title>php</title>
<path fill="#eeeeee" stroke="#000000" d="M314.5,-36C314.5,-36 284.5,-36 284.5,-36 278.5,-36 272.5,-30 272.5,-24 272.5,-24 272.5,-12 272.5,-12 272.5,-6 278.5,0 284.5,0 284.5,0 314.5,0 314.5,0 320.5,0 326.5,-6 326.5,-12 326.5,-12 326.5,-24 326.5,-24 326.5,-30 320.5,-36 314.5,-36"/>
<text text-anchor="middle" x="299.5" y="-14.3" font-family="Times,serif" font-size="14.00" fill="#314b5f">php</text>
</g>
<!-- bartlett/graph&#45;uml&#45;&gt;php -->
<g id="edge1" class="edge">
<title>bartlett/graph&#45;uml&#45;&gt;php</title>
<path fill="none" stroke="#1a2833" d="M382.6408,-249.8279C405.8072,-239.8151 430.108,-224.5746 443.5,-202 451.6634,-188.2392 449.5216,-180.8237 443.5,-166 421.7337,-112.4164 370.2134,-67.592 335.0845,-41.767"/>
<polygon fill="#1a2833" stroke="#1a2833" points="336.6965,-38.6151 326.5347,-35.6169 332.6089,-44.2976 336.6965,-38.6151"/>
<text text-anchor="middle" x="446" y="-140" font-family="Times,serif" font-size="10.00" fill="#767676">^7.1.3</text>
</g>
<!-- graphp/graph -->
<g id="node3" class="node">
<title>graphp/graph</title>
<path fill="#eeeeee" stroke="#000000" d="M251,-119C251,-119 118,-119 118,-119 112,-119 106,-113 106,-107 106,-107 106,-95 106,-95 106,-89 112,-83 118,-83 118,-83 251,-83 251,-83 257,-83 263,-89 263,-95 263,-95 263,-107 263,-107 263,-113 257,-119 251,-119"/>
<text text-anchor="middle" x="184.5" y="-97.3" font-family="Times,serif" font-size="14.00" fill="#314b5f">graphp/graph: dev&#45;master</text>
</g>
<!-- bartlett/graph&#45;uml&#45;&gt;graphp/graph -->
<g id="edge2" class="edge">
<title>bartlett/graph&#45;uml&#45;&gt;graphp/graph</title>
<path fill="none" stroke="#1a2833" d="M324.7342,-248.9162C324.0989,-221.1983 318.8065,-168.1551 289.5,-137 284.4166,-131.5959 278.4873,-127.003 272.0816,-123.0996"/>
<polygon fill="#1a2833" stroke="#1a2833" points="273.5409,-119.9088 263.0859,-118.1927 270.1888,-126.054 273.5409,-119.9088"/>
<text text-anchor="middle" x="380" y="-181.5" font-family="Times,serif" font-size="10.00" fill="#767676">dev&#45;master#214de45 as 1.0.0</text>
</g>
<!-- graphp/graphviz -->
<g id="node4" class="node">
<title>graphp/graphviz</title>
<path fill="#eeeeee" stroke="#000000" d="M276.5,-202C276.5,-202 14.5,-202 14.5,-202 8.5,-202 2.5,-196 2.5,-190 2.5,-190 2.5,-178 2.5,-178 2.5,-172 8.5,-166 14.5,-166 14.5,-166 276.5,-166 276.5,-166 282.5,-166 288.5,-172 288.5,-178 288.5,-178 288.5,-190 288.5,-190 288.5,-196 282.5,-202 276.5,-202"/>
<text text-anchor="middle" x="145.5" y="-180.3" font-family="Times,serif" font-size="14.00" fill="#314b5f">graphp/graphviz: dev&#45;subgraph_cluster_attributes</text>
</g>
<!-- bartlett/graph&#45;uml&#45;&gt;graphp/graphviz -->
<g id="edge3" class="edge">
<title>bartlett/graph&#45;uml&#45;&gt;graphp/graphviz</title>
<path fill="none" stroke="#1a2833" d="M266.0556,-263.1C219.8214,-258.653 160.6128,-249.4548 145.5,-231 141.2931,-225.8628 139.7607,-219.2425 139.6276,-212.6011"/>
<polygon fill="#1a2833" stroke="#1a2833" points="143.138,-212.5888 140.3869,-202.3574 136.1572,-212.0713 143.138,-212.5888"/>
<text text-anchor="middle" x="228" y="-223" font-family="Times,serif" font-size="10.00" fill="#767676">dev&#45;subgraph_cluster_attributes as 1.0.0</text>
</g>
<!-- graphp/graph&#45;&gt;php -->
<g id="edge4" class="edge">
<title>graphp/graph&#45;&gt;php</title>
<path fill="none" stroke="#1a2833" d="M205.0814,-82.8982C215.69,-73.8624 228.9959,-62.9744 241.5,-54 248.5587,-48.9339 256.3312,-43.8169 263.8298,-39.0938"/>
<polygon fill="#1a2833" stroke="#1a2833" points="265.7886,-41.9976 272.4474,-33.7568 262.1029,-36.0465 265.7886,-41.9976"/>
<text text-anchor="middle" x="263.5" y="-57" font-family="Times,serif" font-size="10.00" fill="#767676">^7.0 || ^5.3</text>
</g>
<!-- phpunit/phpunit -->
<g id="node5" class="node">
<title>phpunit/phpunit</title>
<path fill="#eeeeee" stroke="#000000" d="M91,-36C91,-36 12,-36 12,-36 6,-36 0,-30 0,-24 0,-24 0,-12 0,-12 0,-6 6,0 12,0 12,0 91,0 91,0 97,0 103,-6 103,-12 103,-12 103,-24 103,-24 103,-30 97,-36 91,-36"/>
<text text-anchor="middle" x="51.5" y="-14.3" font-family="Times,serif" font-size="14.00" fill="#314b5f">phpunit/phpunit</text>
</g>
<!-- graphp/graph&#45;&gt;phpunit/phpunit -->
<g id="edge5" class="edge">
<title>graphp/graph&#45;&gt;phpunit/phpunit</title>
<path fill="none" stroke="#1a2833" stroke-dasharray="5,2" d="M155.641,-82.9902C136.2547,-70.892 110.5047,-54.8225 89.4605,-41.6897"/>
<polygon fill="#1a2833" stroke="#1a2833" points="91.0986,-38.5863 80.762,-36.2612 87.3926,-44.5248 91.0986,-38.5863"/>
<text text-anchor="middle" x="168" y="-57" font-family="Times,serif" font-size="10.00" fill="#767676">^9.3 || ^5.7 || ^4.8.35</text>
</g>
<!-- graphp/graphviz&#45;&gt;php -->
<g id="edge7" class="edge">
<title>graphp/graphviz&#45;&gt;php</title>
<path fill="none" stroke="#1a2833" d="M247.9572,-165.9333C265.1639,-160.9932 279.4249,-155.0225 285.5,-148 309.7056,-120.0197 308.7645,-74.9739 304.885,-45.9336"/>
<polygon fill="#1a2833" stroke="#1a2833" points="308.3401,-45.3735 303.364,-36.02 301.4211,-46.4352 308.3401,-45.3735"/>
<text text-anchor="middle" x="324" y="-98.5" font-family="Times,serif" font-size="10.00" fill="#767676">&gt;=5.3.0</text>
</g>
<!-- graphp/graphviz&#45;&gt;graphp/graph -->
<g id="edge6" class="edge">
<title>graphp/graphviz&#45;&gt;graphp/graph</title>
<path fill="none" stroke="#1a2833" d="M153.4942,-165.613C157.3388,-156.8999 162.0662,-146.3712 166.5,-137 167.8317,-134.1852 169.2453,-131.2596 170.6718,-128.3469"/>
<polygon fill="#1a2833" stroke="#1a2833" points="173.8813,-129.7528 175.1883,-119.2389 167.61,-126.6429 173.8813,-129.7528"/>
<text text-anchor="middle" x="226" y="-140" font-family="Times,serif" font-size="10.00" fill="#767676">dev&#45;master#214de45 as 1.0.0</text>
</g>
<!-- graphp/graphviz&#45;&gt;phpunit/phpunit -->
<g id="edge8" class="edge">
<title>graphp/graphviz&#45;&gt;phpunit/phpunit</title>
<path fill="none" stroke="#1a2833" stroke-dasharray="5,2" d="M74.9583,-165.8945C51.2499,-156.0798 27.3329,-141.2307 13.5,-119 -1.1148,-95.5128 13.7713,-65.5191 28.9891,-44.3383"/>
<polygon fill="#1a2833" stroke="#1a2833" points="31.9645,-46.2072 35.2217,-36.1255 26.3884,-41.9756 31.9645,-46.2072"/>
<text text-anchor="middle" x="55" y="-98.5" font-family="Times,serif" font-size="10.00" fill="#767676">^6.4 || ^5.7 || ^4.8.35</text>
</g>
</g>
</svg>
