<?xml version="1.0" encoding="UTF-8" standalone="no"?>
<!DOCTYPE svg PUBLIC "-//W3C//DTD SVG 1.1//EN"
 "http://www.w3.org/Graphics/SVG/1.1/DTD/svg11.dtd">
<!-- Generated by graphviz version 2.40.1 (20161225.0304)
 -->
<!-- Title: %3 Pages: 1 -->
<svg width="748pt" height="293pt"
 viewBox="0.00 0.00 748.00 293.00" xmlns="http://www.w3.org/2000/svg" xmlns:xlink="http://www.w3.org/1999/xlink">
<g id="graph0" class="graph" transform="scale(1 1) rotate(0) translate(4 289)">
<title>%3</title>
<polygon fill="#ffffff" stroke="transparent" points="-4,4 -4,-289 744,-289 744,4 -4,4"/>
<!-- bartlett/graph&#45;uml -->
<g id="node1" class="node">
<title>bartlett/graph&#45;uml</title>
<path fill="#eeeeee" stroke="#000000" stroke-width="2" d="M429,-285C429,-285 337,-285 337,-285 331,-285 325,-279 325,-273 325,-273 325,-261 325,-261 325,-255 331,-249 337,-249 337,-249 429,-249 429,-249 435,-249 441,-255 441,-261 441,-261 441,-273 441,-273 441,-279 435,-285 429,-285"/>
<text text-anchor="middle" x="383" y="-263.3" font-family="Times,serif" font-size="14.00" fill="#314b5f">bartlett/graph&#45;uml</text>
</g>
<!-- php -->
<g id="node2" class="node">
<title>php</title>
<path fill="#eeeeee" stroke="#000000" d="M388,-36C388,-36 358,-36 358,-36 352,-36 346,-30 346,-24 346,-24 346,-12 346,-12 346,-6 352,0 358,0 358,0 388,0 388,0 394,0 400,-6 400,-12 400,-12 400,-24 400,-24 400,-30 394,-36 388,-36"/>
<text text-anchor="middle" x="373" y="-14.3" font-family="Times,serif" font-size="14.00" fill="#314b5f">php</text>
</g>
<!-- bartlett/graph&#45;uml&#45;&gt;php -->
<g id="edge1" class="edge">
<title>bartlett/graph&#45;uml&#45;&gt;php</title>
<path fill="none" stroke="#1a2833" d="M379.4122,-248.9925C372.6069,-213.8142 358.0528,-133.4173 353,-65 352.6399,-60.1244 351.7737,-58.7326 353,-54 353.7398,-51.145 354.7605,-48.2754 355.9523,-45.47"/>
<polygon fill="#1a2833" stroke="#1a2833" points="359.1957,-46.8076 360.5042,-36.2938 352.9248,-43.6968 359.1957,-46.8076"/>
<text text-anchor="middle" x="385.5" y="-140" font-family="Times,serif" font-size="10.00" fill="#767676">^7.1.3||^8.0</text>
</g>
<!-- cweagans/composer&#45;patches -->
<g id="node3" class="node">
<title>cweagans/composer&#45;patches</title>
<path fill="#eeeeee" stroke="#000000" d="M300,-119C300,-119 118,-119 118,-119 112,-119 106,-113 106,-107 106,-107 106,-95 106,-95 106,-89 112,-83 118,-83 118,-83 300,-83 300,-83 306,-83 312,-89 312,-95 312,-95 312,-107 312,-107 312,-113 306,-119 300,-119"/>
<text text-anchor="middle" x="209" y="-97.3" font-family="Times,serif" font-size="14.00" fill="#314b5f">cweagans/composer&#45;patches: 1.7.1</text>
</g>
<!-- bartlett/graph&#45;uml&#45;&gt;cweagans/composer&#45;patches -->
<g id="edge2" class="edge">
<title>bartlett/graph&#45;uml&#45;&gt;cweagans/composer&#45;patches</title>
<path fill="none" stroke="#1a2833" d="M350.8585,-248.8564C342.4437,-243.5375 333.605,-237.414 326,-231 288.137,-199.0664 251.0213,-155.0452 229.0742,-127.307"/>
<polygon fill="#1a2833" stroke="#1a2833" points="231.6875,-124.9674 222.7659,-119.2528 226.1766,-129.2837 231.6875,-124.9674"/>
<text text-anchor="middle" x="302" y="-181.5" font-family="Times,serif" font-size="10.00" fill="#767676">^1.7</text>
</g>
<!-- graphp/graph -->
<g id="node4" class="node">
<title>graphp/graph</title>
<path fill="#eeeeee" stroke="#000000" d="M600.5,-119C600.5,-119 467.5,-119 467.5,-119 461.5,-119 455.5,-113 455.5,-107 455.5,-107 455.5,-95 455.5,-95 455.5,-89 461.5,-83 467.5,-83 467.5,-83 600.5,-83 600.5,-83 606.5,-83 612.5,-89 612.5,-95 612.5,-95 612.5,-107 612.5,-107 612.5,-113 606.5,-119 600.5,-119"/>
<text text-anchor="middle" x="534" y="-97.3" font-family="Times,serif" font-size="14.00" fill="#314b5f">graphp/graph: dev&#45;master</text>
</g>
<!-- bartlett/graph&#45;uml&#45;&gt;graphp/graph -->
<g id="edge3" class="edge">
<title>bartlett/graph&#45;uml&#45;&gt;graphp/graph</title>
<path fill="none" stroke="#1a2833" d="M389.9451,-248.9968C398.889,-227.4733 416.055,-191.2047 439,-166 453.7783,-149.7663 473.3663,-135.496 490.915,-124.4931"/>
<polygon fill="#1a2833" stroke="#1a2833" points="493.1465,-127.2324 499.8698,-119.0441 489.5076,-121.2525 493.1465,-127.2324"/>
<text text-anchor="middle" x="478" y="-181.5" font-family="Times,serif" font-size="10.00" fill="#767676">dev&#45;master as 1.0.0</text>
</g>
<!-- graphp/graphviz -->
<g id="node5" class="node">
<title>graphp/graphviz</title>
<path fill="#eeeeee" stroke="#000000" d="M686.5,-202C686.5,-202 537.5,-202 537.5,-202 531.5,-202 525.5,-196 525.5,-190 525.5,-190 525.5,-178 525.5,-178 525.5,-172 531.5,-166 537.5,-166 537.5,-166 686.5,-166 686.5,-166 692.5,-166 698.5,-172 698.5,-178 698.5,-178 698.5,-190 698.5,-190 698.5,-196 692.5,-202 686.5,-202"/>
<text text-anchor="middle" x="612" y="-180.3" font-family="Times,serif" font-size="14.00" fill="#314b5f">graphp/graphviz: dev&#45;master</text>
</g>
<!-- bartlett/graph&#45;uml&#45;&gt;graphp/graphviz -->
<g id="edge4" class="edge">
<title>bartlett/graph&#45;uml&#45;&gt;graphp/graphviz</title>
<path fill="none" stroke="#1a2833" d="M432.6896,-248.9902C467.8289,-236.2542 515.1112,-219.1169 552.3003,-205.6379"/>
<polygon fill="#1a2833" stroke="#1a2833" points="553.8036,-208.8159 562.0125,-202.1177 551.4183,-202.2348 553.8036,-208.8159"/>
<text text-anchor="middle" x="550" y="-223" font-family="Times,serif" font-size="10.00" fill="#767676">dev&#45;master as 1.0.0</text>
</g>
<!-- cweagans/composer&#45;patches&#45;&gt;php -->
<g id="edge6" class="edge">
<title>cweagans/composer&#45;patches&#45;&gt;php</title>
<path fill="none" stroke="#1a2833" d="M239.3603,-82.8705C254.9074,-73.8277 274.2539,-62.9417 292,-54 306.2926,-46.7985 322.3406,-39.5068 336.359,-33.3867"/>
<polygon fill="#1a2833" stroke="#1a2833" points="337.9024,-36.5326 345.6932,-29.3524 335.1252,-30.1071 337.9024,-36.5326"/>
<text text-anchor="middle" x="308.5" y="-57" font-family="Times,serif" font-size="10.00" fill="#767676">&gt;=5.3.0</text>
</g>
<!-- composer&#45;plugin&#45;api -->
<g id="node6" class="node">
<title>composer&#45;plugin&#45;api</title>
<path fill="#eeeeee" stroke="#000000" d="M118,-36C118,-36 12,-36 12,-36 6,-36 0,-30 0,-24 0,-24 0,-12 0,-12 0,-6 6,0 12,0 12,0 118,0 118,0 124,0 130,-6 130,-12 130,-12 130,-24 130,-24 130,-30 124,-36 118,-36"/>
<text text-anchor="middle" x="65" y="-14.3" font-family="Times,serif" font-size="14.00" fill="#314b5f">composer&#45;plugin&#45;api</text>
</g>
<!-- cweagans/composer&#45;patches&#45;&gt;composer&#45;plugin&#45;api -->
<g id="edge5" class="edge">
<title>cweagans/composer&#45;patches&#45;&gt;composer&#45;plugin&#45;api</title>
<path fill="none" stroke="#1a2833" d="M177.7541,-82.9902C156.5771,-70.784 128.3864,-54.5352 105.491,-41.3386"/>
<polygon fill="#1a2833" stroke="#1a2833" points="107.0938,-38.2227 96.6821,-36.2612 103.5982,-44.2874 107.0938,-38.2227"/>
<text text-anchor="middle" x="168" y="-57" font-family="Times,serif" font-size="10.00" fill="#767676">^1.0 || ^2.0</text>
</g>
<!-- composer/composer -->
<g id="node7" class="node">
<title>composer/composer</title>
<path fill="#eeeeee" stroke="#000000" d="M263.5,-36C263.5,-36 160.5,-36 160.5,-36 154.5,-36 148.5,-30 148.5,-24 148.5,-24 148.5,-12 148.5,-12 148.5,-6 154.5,0 160.5,0 160.5,0 263.5,0 263.5,0 269.5,0 275.5,-6 275.5,-12 275.5,-12 275.5,-24 275.5,-24 275.5,-30 269.5,-36 263.5,-36"/>
<text text-anchor="middle" x="212" y="-14.3" font-family="Times,serif" font-size="14.00" fill="#314b5f">composer/composer</text>
</g>
<!-- cweagans/composer&#45;patches&#45;&gt;composer/composer -->
<g id="edge7" class="edge">
<title>cweagans/composer&#45;patches&#45;&gt;composer/composer</title>
<path fill="none" stroke="#1a2833" stroke-dasharray="5,2" d="M209.651,-82.9902C210.0375,-72.2963 210.5362,-58.4994 210.9746,-46.3706"/>
<polygon fill="#1a2833" stroke="#1a2833" points="214.4764,-46.3812 211.34,-36.2612 207.4809,-46.1283 214.4764,-46.3812"/>
<text text-anchor="middle" x="234" y="-57" font-family="Times,serif" font-size="10.00" fill="#767676">~1.0 || ~2.0</text>
</g>
<!-- phpunit/phpunit -->
<g id="node8" class="node">
<title>phpunit/phpunit</title>
<path fill="#eeeeee" stroke="#000000" d="M573.5,-36C573.5,-36 494.5,-36 494.5,-36 488.5,-36 482.5,-30 482.5,-24 482.5,-24 482.5,-12 482.5,-12 482.5,-6 488.5,0 494.5,0 494.5,0 573.5,0 573.5,0 579.5,0 585.5,-6 585.5,-12 585.5,-12 585.5,-24 585.5,-24 585.5,-30 579.5,-36 573.5,-36"/>
<text text-anchor="middle" x="534" y="-14.3" font-family="Times,serif" font-size="14.00" fill="#314b5f">phpunit/phpunit</text>
</g>
<!-- cweagans/composer&#45;patches&#45;&gt;phpunit/phpunit -->
<g id="edge8" class="edge">
<title>cweagans/composer&#45;patches&#45;&gt;phpunit/phpunit</title>
<path fill="none" stroke="#1a2833" stroke-dasharray="5,2" d="M279.5202,-82.9902C337.0786,-68.2907 417.5935,-47.7284 472.5464,-33.6943"/>
<polygon fill="#1a2833" stroke="#1a2833" points="473.6756,-37.0183 482.4986,-31.1527 471.9435,-30.236 473.6756,-37.0183"/>
<text text-anchor="middle" x="399.5" y="-57" font-family="Times,serif" font-size="10.00" fill="#767676">~4.6</text>
</g>
<!-- graphp/graph&#45;&gt;php -->
<g id="edge9" class="edge">
<title>graphp/graph&#45;&gt;php</title>
<path fill="none" stroke="#1a2833" d="M499.0654,-82.9902C472.5094,-69.2999 436.0889,-50.5241 409.2211,-36.673"/>
<polygon fill="#1a2833" stroke="#1a2833" points="410.6401,-33.4668 400.1479,-31.9955 407.4325,-39.6887 410.6401,-33.4668"/>
<text text-anchor="middle" x="475.5" y="-57" font-family="Times,serif" font-size="10.00" fill="#767676">&gt;=5.3</text>
</g>
<!-- graphp/graph&#45;&gt;phpunit/phpunit -->
<g id="edge10" class="edge">
<title>graphp/graph&#45;&gt;phpunit/phpunit</title>
<path fill="none" stroke="#1a2833" stroke-dasharray="5,2" d="M534,-82.9902C534,-72.2963 534,-58.4994 534,-46.3706"/>
<polygon fill="#1a2833" stroke="#1a2833" points="537.5001,-46.2612 534,-36.2612 530.5001,-46.2613 537.5001,-46.2612"/>
<text text-anchor="middle" x="575.5" y="-57" font-family="Times,serif" font-size="10.00" fill="#767676">^9.3 || ^5.7 || ^4.8.35</text>
</g>
<!-- graphp/graphviz&#45;&gt;php -->
<g id="edge12" class="edge">
<title>graphp/graphviz&#45;&gt;php</title>
<path fill="none" stroke="#1a2833" d="M533.789,-165.9577C486.2646,-153.5791 431.476,-136.3166 414,-119 392.3356,-97.5331 404.0448,-82.0195 392,-54 390.7563,-51.1067 389.3698,-48.1299 387.928,-45.1863"/>
<polygon fill="#1a2833" stroke="#1a2833" points="390.9161,-43.3427 383.2408,-36.0393 384.6864,-46.5351 390.9161,-43.3427"/>
<text text-anchor="middle" x="430.5" y="-98.5" font-family="Times,serif" font-size="10.00" fill="#767676">&gt;=5.3.0</text>
</g>
<!-- graphp/graphviz&#45;&gt;graphp/graph -->
<g id="edge11" class="edge">
<title>graphp/graphviz&#45;&gt;graphp/graph</title>
<path fill="none" stroke="#1a2833" d="M546.0871,-165.8608C538.5675,-161.2005 531.8679,-155.3481 527,-148 523.3523,-142.4937 522.6708,-135.8345 523.4571,-129.2821"/>
<polygon fill="#1a2833" stroke="#1a2833" points="526.9327,-129.7756 525.6853,-119.2544 520.0994,-128.2571 526.9327,-129.7756"/>
<text text-anchor="middle" x="585" y="-140" font-family="Times,serif" font-size="10.00" fill="#767676">dev&#45;master#81eef65 as 1.0.0</text>
</g>
<!-- graphp/graphviz&#45;&gt;phpunit/phpunit -->
<g id="edge13" class="edge">
<title>graphp/graphviz&#45;&gt;phpunit/phpunit</title>
<path fill="none" stroke="#1a2833" stroke-dasharray="5,2" d="M631.9121,-165.8803C636.4224,-160.6038 640.5889,-154.4951 643,-148 654.0836,-118.1429 676.933,-117.93 621,-54 613.9853,-45.9823 604.9037,-39.7138 595.2622,-34.8233"/>
<polygon fill="#1a2833" stroke="#1a2833" points="596.4462,-31.5163 585.8959,-30.5448 593.5376,-37.8835 596.4462,-31.5163"/>
<text text-anchor="middle" x="698.5" y="-98.5" font-family="Times,serif" font-size="10.00" fill="#767676">^9.3 || ^5.7 || ^4.8.35</text>
</g>
</g>
</svg>
