<?xml version="1.0" encoding="UTF-8" standalone="no"?>
<!DOCTYPE svg PUBLIC "-//W3C//DTD SVG 1.1//EN"
 "http://www.w3.org/Graphics/SVG/1.1/DTD/svg11.dtd">
<!-- Generated by graphviz version 2.40.1 (20161225.0304)
 -->
<!-- Title: %3 Pages: 1 -->
<svg width="542pt" height="293pt"
 viewBox="0.00 0.00 541.50 293.00" xmlns="http://www.w3.org/2000/svg" xmlns:xlink="http://www.w3.org/1999/xlink">
<g id="graph0" class="graph" transform="scale(1 1) rotate(0) translate(4 289)">
<title>%3</title>
<polygon fill="#ffffff" stroke="transparent" points="-4,4 -4,-289 537.5,-289 537.5,4 -4,4"/>
<!-- bartlett/graph&#45;uml -->
<g id="node1" class="node">
<title>bartlett/graph&#45;uml</title>
<path fill="#eeeeee" stroke="#000000" stroke-width="2" d="M476,-285C476,-285 351,-285 351,-285 345,-285 339,-279 339,-273 339,-273 339,-261 339,-261 339,-255 345,-249 351,-249 351,-249 476,-249 476,-249 482,-249 488,-255 488,-261 488,-261 488,-273 488,-273 488,-279 482,-285 476,-285"/>
<text text-anchor="middle" x="413.5" y="-263.3" font-family="Times,serif" font-size="14.00" fill="#314b5f">bartlett/graph&#45;uml</text>
</g>
<!-- php -->
<g id="node2" class="node">
<title>php</title>
<path fill="#eeeeee" stroke="#000000" d="M403.5,-36C403.5,-36 373.5,-36 373.5,-36 367.5,-36 361.5,-30 361.5,-24 361.5,-24 361.5,-12 361.5,-12 361.5,-6 367.5,0 373.5,0 373.5,0 403.5,0 403.5,0 409.5,0 415.5,-6 415.5,-12 415.5,-12 415.5,-24 415.5,-24 415.5,-30 409.5,-36 403.5,-36"/>
<text text-anchor="middle" x="388.5" y="-14.3" font-family="Times,serif" font-size="14.00" fill="#314b5f">php</text>
</g>
<!-- bartlett/graph&#45;uml&#45;&gt;php -->
<g id="edge1" class="edge">
<title>bartlett/graph&#45;uml&#45;&gt;php</title>
<path fill="none" stroke="#1a2833" d="M456.9643,-248.8821C476.4549,-238.2973 497.4984,-222.8577 508.5,-202 515.9646,-187.848 513.8456,-181.0806 508.5,-166 490.6446,-115.6274 447.5314,-69.8883 418.1526,-42.9972"/>
<polygon fill="#1a2833" stroke="#1a2833" points="420.4138,-40.3237 410.6335,-36.2498 415.7386,-45.5336 420.4138,-40.3237"/>
<text text-anchor="middle" x="517" y="-140" font-family="Times,serif" font-size="10.00" fill="#767676">^7.1.3</text>
</g>
<!-- graphp/graph -->
<g id="node3" class="node">
<title>graphp/graph</title>
<path fill="#eeeeee" stroke="#000000" d="M340,-119C340,-119 161,-119 161,-119 155,-119 149,-113 149,-107 149,-107 149,-95 149,-95 149,-89 155,-83 161,-83 161,-83 340,-83 340,-83 346,-83 352,-89 352,-95 352,-95 352,-107 352,-107 352,-113 346,-119 340,-119"/>
<text text-anchor="middle" x="250.5" y="-97.3" font-family="Times,serif" font-size="14.00" fill="#314b5f">graphp/graph: dev&#45;master</text>
</g>
<!-- bartlett/graph&#45;uml&#45;&gt;graphp/graph -->
<g id="edge2" class="edge">
<title>bartlett/graph&#45;uml&#45;&gt;graphp/graph</title>
<path fill="none" stroke="#1a2833" d="M413.3759,-248.7339C412.1248,-220.275 405.2896,-165.652 372.5,-137 366.5661,-131.8149 354.4592,-126.7229 340.0822,-122.0752"/>
<polygon fill="#1a2833" stroke="#1a2833" points="340.9355,-118.676 330.3487,-119.0886 338.8821,-125.3681 340.9355,-118.676"/>
<text text-anchor="middle" x="456" y="-181.5" font-family="Times,serif" font-size="10.00" fill="#767676">dev&#45;master as 1.0.0</text>
</g>
<!-- graphp/graphviz -->
<g id="node4" class="node">
<title>graphp/graphviz</title>
<path fill="#eeeeee" stroke="#000000" d="M365,-202C365,-202 12,-202 12,-202 6,-202 0,-196 0,-190 0,-190 0,-178 0,-178 0,-172 6,-166 12,-166 12,-166 365,-166 365,-166 371,-166 377,-172 377,-178 377,-178 377,-190 377,-190 377,-196 371,-202 365,-202"/>
<text text-anchor="middle" x="188.5" y="-180.3" font-family="Times,serif" font-size="14.00" fill="#314b5f">graphp/graphviz: dev&#45;subgraph_cluster_attributes</text>
</g>
<!-- bartlett/graph&#45;uml&#45;&gt;graphp/graphviz -->
<g id="edge3" class="edge">
<title>bartlett/graph&#45;uml&#45;&gt;graphp/graphviz</title>
<path fill="none" stroke="#1a2833" d="M338.9234,-263.1084C285.4247,-258.7604 219.415,-249.6938 199.5,-231 194.3274,-226.1446 191.373,-219.3608 189.7353,-212.4549"/>
<polygon fill="#1a2833" stroke="#1a2833" points="193.1754,-211.7996 188.173,-202.4601 186.2594,-212.8807 193.1754,-211.7996"/>
<text text-anchor="middle" x="299.5" y="-223" font-family="Times,serif" font-size="10.00" fill="#767676">dev&#45;subgraph_cluster_attributes as 1.0.0</text>
</g>
<!-- graphp/graph&#45;&gt;php -->
<g id="edge4" class="edge">
<title>graphp/graph&#45;&gt;php</title>
<path fill="none" stroke="#1a2833" d="M273.6212,-82.827C285.7551,-73.669 301.0657,-62.6936 315.5,-54 327.0574,-47.0391 340.148,-40.263 352.0205,-34.5021"/>
<polygon fill="#1a2833" stroke="#1a2833" points="353.7059,-37.5761 361.2284,-30.1154 350.6952,-31.2566 353.7059,-37.5761"/>
<text text-anchor="middle" x="345" y="-57" font-family="Times,serif" font-size="10.00" fill="#767676">^7.0 || ^5.3</text>
</g>
<!-- phpunit/phpunit -->
<g id="node5" class="node">
<title>phpunit/phpunit</title>
<path fill="#eeeeee" stroke="#000000" d="M132.5,-36C132.5,-36 24.5,-36 24.5,-36 18.5,-36 12.5,-30 12.5,-24 12.5,-24 12.5,-12 12.5,-12 12.5,-6 18.5,0 24.5,0 24.5,0 132.5,0 132.5,0 138.5,0 144.5,-6 144.5,-12 144.5,-12 144.5,-24 144.5,-24 144.5,-30 138.5,-36 132.5,-36"/>
<text text-anchor="middle" x="78.5" y="-14.3" font-family="Times,serif" font-size="14.00" fill="#314b5f">phpunit/phpunit</text>
</g>
<!-- graphp/graph&#45;&gt;phpunit/phpunit -->
<g id="edge5" class="edge">
<title>graphp/graph&#45;&gt;phpunit/phpunit</title>
<path fill="none" stroke="#1a2833" stroke-dasharray="5,2" d="M213.1786,-82.9902C187.3473,-70.5251 152.7795,-53.8442 125.133,-40.5031"/>
<polygon fill="#1a2833" stroke="#1a2833" points="126.5726,-37.3116 116.0452,-36.1177 123.5303,-43.616 126.5726,-37.3116"/>
<text text-anchor="middle" x="230" y="-57" font-family="Times,serif" font-size="10.00" fill="#767676">^6.4 || ^5.7 || ^4.8.35</text>
</g>
<!-- graphp/graphviz&#45;&gt;php -->
<g id="edge7" class="edge">
<title>graphp/graphviz&#45;&gt;php</title>
<path fill="none" stroke="#1a2833" d="M333.9296,-165.9169C351.5134,-161.2058 365.6772,-155.3234 372.5,-148 397.7637,-120.8826 397.344,-75.6009 393.7039,-46.2754"/>
<polygon fill="#1a2833" stroke="#1a2833" points="397.1506,-45.6542 392.2586,-36.2563 390.2223,-46.6536 397.1506,-45.6542"/>
<text text-anchor="middle" x="416" y="-98.5" font-family="Times,serif" font-size="10.00" fill="#767676">&gt;=5.3.0</text>
</g>
<!-- graphp/graphviz&#45;&gt;graphp/graph -->
<g id="edge6" class="edge">
<title>graphp/graphviz&#45;&gt;graphp/graph</title>
<path fill="none" stroke="#1a2833" d="M201.9531,-165.9902C210.3448,-154.7562 221.2944,-140.0979 230.6703,-127.5463"/>
<polygon fill="#1a2833" stroke="#1a2833" points="233.6785,-129.3674 236.8591,-119.2612 228.0704,-125.1782 233.6785,-129.3674"/>
<text text-anchor="middle" x="296" y="-140" font-family="Times,serif" font-size="10.00" fill="#767676">dev&#45;master#81eef65 as 1.0.0</text>
</g>
<!-- graphp/graphviz&#45;&gt;phpunit/phpunit -->
<g id="edge8" class="edge">
<title>graphp/graphviz&#45;&gt;phpunit/phpunit</title>
<path fill="none" stroke="#1a2833" stroke-dasharray="5,2" d="M95.3361,-165.9058C70.0972,-156.2812 45.6053,-141.5478 30.5,-119 14.4992,-95.1154 33.0703,-65.0682 51.5713,-43.9796"/>
<polygon fill="#1a2833" stroke="#1a2833" points="54.3833,-46.0928 58.5863,-36.3673 49.2358,-41.3491 54.3833,-46.0928"/>
<text text-anchor="middle" x="85" y="-98.5" font-family="Times,serif" font-size="10.00" fill="#767676">^6.4 || ^5.7 || ^4.8.35</text>
</g>
</g>
</svg>
